<?xml version="1.0" encoding="utf-8"?>
<!-- Generator: Adobe Illustrator 19.0.0, SVG Export Plug-In . SVG Version: 6.00 Build 0)  -->
<svg version="1.1" id="Layer_1" xmlns="http://www.w3.org/2000/svg" xmlns:xlink="http://www.w3.org/1999/xlink" x="0px" y="0px"
	 viewBox="177 -11.6 604.5 272.6" style="enable-background:new 177 -11.6 604.5 272.6;" xml:space="preserve">
<style type="text/css">
	.st0{opacity:0.5;}
	.st1{fill:#ED1C24;}
	.st2{fill:#808285;}
</style>
<path class="st0" d="M649.2,261h-340c-73,0-132.2-59.2-132.2-132.2v-8.2c0-73,59.2-132.2,132.2-132.2h340
	c73,0,132.2,59.2,132.2,132.2v8.2C781.5,201.8,722.3,261,649.2,261z"/>
<g>
	<path class="st1" d="M397.1,96.4c0.8-1.5,1.2-2.9,1.2-4.2c0-2.8-1.6-4.2-4.9-4.2c-2.3,0-4.8,0.8-7.4,2.5c-2.6,1.6-4.5,3.6-5.8,6
		l-39,67.5c-1.4,2.3-3.4,4.3-6,6c-2.6,1.6-5,2.5-7.4,2.5h-42.2c-3.3,0-4.9-1.4-4.9-4.2c0-1.3,0.5-2.7,1.4-4.2L321,96.4
		c1-1.5,1.4-2.9,1.4-4.2c0-2.8-1.6-4.2-4.9-4.2c-2.3,0-4.8,0.8-7.4,2.5c-2.6,1.6-4.6,3.6-6,6L265.3,164c-1.4,2.3-3.4,4.3-6,6
		c-2.6,1.6-5,2.5-7.4,2.5h-42c-3.3,0-4.9-1.4-4.9-4.2c0-1.3,0.5-2.7,1.4-4.2l43.7-75.9c1.4-2.3,3.4-4.3,6-6c2.6-1.6,5-2.5,7.4-2.5
		h193.9c3.3,0,4.9,1.4,4.9,4.2c0,1.3-0.5,2.7-1.4,4.2l-81.5,141.2c-1.8,3-3.6,4.6-5.4,4.6c-1.1,0-1.9-0.6-2.6-1.8L348,192.6
		c-0.7-1.3-1.1-2.9-1.1-4.9c0-2.9,0.7-5.6,2.1-7.9L397.1,96.4z"/>
	<path class="st1" d="M594.9,104.9c-1.4,2.3-3.4,4.3-6,6c-2.6,1.6-5,2.5-7.4,2.5h-34.8c-3.9,0-5.8,1.2-5.8,3.5
		c0,0.6,0.2,1.2,0.7,1.9l19.5,33.4c0.7,1.2,1.1,2.8,1.1,4.7c0,2.9-0.7,5.6-2.1,8.1c-1.2,2-3,3.7-5.4,5.2c-2.5,1.5-4.9,2.2-7.2,2.2
		h-42.2c-3.3,0-4.9-1.4-4.9-4.2c0-1.3,0.5-2.7,1.4-4.2l24.3-42.1c0.9-1.5,1.4-2.9,1.4-4.2c0-2.8-1.6-4.2-4.9-4.2
		c-2.3,0-4.8,0.8-7.3,2.5c-2.6,1.6-4.5,3.6-5.9,6L485,163.9c-1.4,2.3-3.4,4.3-6,6c-2.6,1.6-5,2.5-7.4,2.5h-42.2
		c-3.3,0-4.9-1.4-4.9-4.2c0-1.3,0.5-2.7,1.4-4.2l81.5-141.2c1.8-3,3.6-4.6,5.6-4.6c1.1,0,1.9,0.5,2.5,1.6l23.4,39.6
		c0.7,1.2,1.1,2.8,1.1,4.7c0,2.9-0.7,5.6-2.1,8.1l-14,24.3c-0.9,1.5-1.3,2.9-1.3,4.2c0,2.8,1.6,4.2,4.9,4.2c2.3,0,4.8-0.8,7.4-2.5
		c2.6-1.6,4.5-3.6,5.8-6l4.9-8.4c1.4-2.3,3.4-4.3,6-6c2.6-1.6,5-2.5,7.4-2.5h42.2c3.3,0,4.9,1.4,4.9,4.2c0,1.3-0.5,2.7-1.4,4.2
		L594.9,104.9z"/>
	<path class="st1" d="M683.8,113.3c-3.2,0-4.7-1.4-4.7-4.2c0-1.3,0.4-2.7,1.2-4.2l4.9-8.4c0.8-1.5,1.2-2.9,1.2-4.2
		c0-2.8-1.6-4.2-4.9-4.2c-2.2,0-4.7,0.8-7.3,2.5c-2.6,1.6-4.6,3.6-5.9,6l-9.8,16.9c-0.8,1.5-1.2,2.9-1.2,4.2c0,2.8,1.6,4.2,4.9,4.2
		h59c3.2,0,4.7,1.4,4.7,4.2c0,1.3-0.4,2.7-1.2,4.2L705.2,164c-1.3,2.3-3.2,4.3-5.9,6c-2.6,1.6-5.1,2.5-7.5,2.5H573.9
		c-3.2,0-4.7-1.4-4.7-4.2c0-1.3,0.4-2.7,1.2-4.2l9.7-16.9c1.4-2.3,3.4-4.3,6-6c2.6-1.6,5-2.5,7.4-2.5h42.2c3.3,0,4.9,1.4,4.9,4.2
		c0,1.3-0.5,2.7-1.4,4.2l-4.7,8.4c-0.9,1.5-1.4,2.9-1.4,4.2c0,2.8,1.6,4.2,4.9,4.2c2.3,0,4.8-0.8,7.3-2.5c2.6-1.7,4.5-3.7,5.9-6
		l9.7-16.9c1-1.5,1.5-2.9,1.5-4.2c0-2.8-1.6-4.2-4.9-4.2h-59c-3.3,0-4.9-1.4-4.9-4.2c0-1.3,0.5-2.7,1.4-4.2L614.3,88
		c1.4-2.3,3.4-4.3,6-6c2.6-1.6,5-2.5,7.4-2.5h118.1c3.3,0,4.9,1.4,4.9,4.2c0,1.3-0.5,2.7-1.4,4.2l-9.7,16.9c-1.3,2.3-3.3,4.3-5.9,6
		c-2.6,1.6-5.1,2.5-7.5,2.5L683.8,113.3L683.8,113.3z"/>
</g>
<g>
	<path class="st2" d="M424.7,192.5c1.3,0.2,2,0.8,2,1.8c1.4-1.2,2.8-1.8,4.2-1.8h2.3c3.3,0,5.5,1.5,6.6,4.5c0.3,0.9,0.4,1.8,0.4,2.8
		v6.9c0,3.8-1.5,6.2-4.5,7.3c-1,0.3-2,0.5-2.9,0.5h-6.2v9.5l-0.2,0.2h-0.2c-0.9,0-1.6-0.7-1.9-2v-29.5
		C424.5,192.5,424.6,192.5,424.7,192.5z M426.8,201.1v11.1l1,0.1l5.4,0.1c1.8,0,3.3-0.8,4.3-2.4c0.4-1,0.6-1.9,0.6-2.7v-8
		c-0.4-3-1.9-4.5-4.5-4.5H432c-2.5,0-4.1,1-4.9,3C426.9,198.5,426.8,199.6,426.8,201.1z"/>
	<path class="st2" d="M458.1,192.4h0.8c3.8,0,6.3,1.5,7.4,4.5c0.4,1.1,0.6,2.4,0.6,4v1.3c0,1.8-0.8,2.7-2.4,2.7h-11.8l-0.2,0.2v3.1
		c0,2.4,1.1,4,3.4,4.8c0.4,0.1,1.1,0.2,2,0.3l1.6-0.1h4.5c1.4,0,2.3,0.4,2.6,1.3l0.2,0.9l-0.1,0.1h-8.5c-4.4,0-7-1.9-7.9-5.6
		l-0.2-1.4v-8.1c0-4.5,2.1-7.2,6.3-8.1L458.1,192.4z M452.6,201.5v1.3h10.8c0.8,0,1.2-0.4,1.2-1.2v-0.9c0-3.9-1.9-5.9-5.6-5.9h-0.4
		c-3.1,0-5,1-5.7,3.1C452.7,198.7,452.6,199.9,452.6,201.5z"/>
	<path class="st2" d="M477,192.4c1.5,0.3,2.2,0.9,2.2,1.8h0.1c1.4-1.1,2.9-1.7,4.5-1.7h1.5l0.2,0.2v0.1c-0.3,1.4-1,2-2,2
		c-0.9,0-1.8,0.5-3,1.6c-0.8,1.1-1.2,2.4-1.2,4v15l-0.2,0.2c-1.1,0-1.8-0.5-2.2-1.6l-0.1-0.9v-20.6L477,192.4z"/>
	<path class="st2" d="M502.1,181.7h3.6v0.3c0,1.2-1.2,1.9-3.5,2.1c-2.1,0-3.5,1.2-4.2,3.6l-0.2,1.4l0.1,0.4v5.2h6.3
		c0.1,0,0.2,0.1,0.2,0.2c0,1.2-0.7,1.8-2.2,2h-4.3v18.5l-0.2,0.2c-1.3,0-2.1-0.8-2.3-2.4v-23.7c0-3.8,1.7-6.3,5.2-7.5L502.1,181.7z"
		/>
	<path class="st2" d="M523.5,192.4h0.9c3.8,0,6.3,1.6,7.5,4.7c0.3,1,0.5,2.2,0.5,3.5v7.4c0,3.4-1.6,5.8-4.9,7.2l-1.8,0.3h-3.4
		c-2,0-3.8-1-5.4-3.1c-0.9-1.3-1.3-3.1-1.3-5.3v-5.7c0-4.1,1.2-6.7,3.5-7.9C520.5,192.8,521.9,192.4,523.5,192.4z M518,200.4v7.1
		c0,3.9,1.8,5.8,5.5,5.8l0.5-0.1l0.5,0.1c2.5,0,4.2-1,5-3c0.3-0.8,0.4-1.6,0.4-2.3v-8.1c0-3.4-2-5.1-6-5.1c-3.1,0-4.9,1.1-5.6,3.2
		C518.1,198.7,518,199.5,518,200.4z"/>
	<path class="st2" d="M542.4,192.4c1.5,0.3,2.2,0.9,2.2,1.8h0.1c1.4-1.1,2.9-1.7,4.5-1.7h1.5l0.2,0.2v0.1c-0.3,1.4-0.9,2-2,2
		c-0.8,0-1.8,0.5-3,1.6c-0.8,1.1-1.2,2.4-1.2,4v15l-0.2,0.2c-1.1,0-1.8-0.5-2.2-1.6l-0.1-0.9v-20.6L542.4,192.4z"/>
	<path class="st2" d="M560.8,192.4c1.3,0,2,0.6,2.2,1.9c1.4-1.3,3-1.9,4.9-1.9h1.7c3,0,5.1,1,6.4,3.1h0.2c1.3-2.1,3.5-3.1,6.6-3.1
		h0.9c3.5,0,5.8,1.3,7,3.8c0.7,1.1,1,2.7,1,4.8v14.5c0,0.1-0.1,0.2-0.2,0.2c-1.2,0-1.9-0.8-2.1-2.3v-12c0-4.4-1.8-6.6-5.5-6.6h-1.1
		c-2.5,0-4.1,0.8-4.9,2.5c-0.4,0.8-0.6,2.1-0.6,3.9v14.3l-0.2,0.2c-1,0-1.8-0.6-2.1-1.7v-0.6v-12.8c0-2.7-0.9-4.5-2.7-5.3
		c-0.9-0.4-1.8-0.5-2.6-0.5h-1.5c-2.3,0-4,1-4.9,3c-0.3,0.9-0.4,1.7-0.4,2.4v15.3l-0.2,0.2c-1.1,0-1.8-0.7-2.2-2v-21.1L560.8,192.4z
		"/>
	<path class="st2" d="M608.8,192.4h9.6l0.2,0.2v23c0,0.1-0.1,0.2-0.2,0.2c-1.4-0.2-2.1-0.9-2.1-2H616c-1.2,1.3-3.2,2-6,2h-8.2
		l-0.2-0.2V200c0-4,1.9-6.5,5.7-7.4L608.8,192.4z M604.2,199.7v13.6h6.3c2.6,0,4.4-1.1,5.2-3.3c0.2-0.9,0.3-1.7,0.3-2.5v-12.6h-6.7
		c-2.4,0-4,1-4.9,3.1L604.2,199.7z"/>
	<path class="st2" d="M628.5,192.4c1.5,0,2.2,0.6,2.2,1.8c1.2-1.2,3.2-1.8,5.9-1.8h0.5c3.7,0,6.1,1.5,7.4,4.4c0.4,1,0.5,2.3,0.5,3.9
		v14.7c0,0.1-0.1,0.2-0.2,0.2c-1.2,0-2-0.8-2.2-2.4V200c0-3.4-1.9-5.2-5.8-5.2H636c-3.6,0-5.3,2-5.3,5.9v14.8c0,0.1-0.1,0.2-0.2,0.2
		c-1.2,0-1.9-0.7-2.1-2.2v-20.8L628.5,192.4z"/>
	<path class="st2" d="M663.4,192.4h5.5c1.8,0.2,2.7,0.8,2.7,1.9l0.1,0.4l-0.1,0.1h-8.9c-2.6,0-4.3,1.1-5.1,3.3
		c-0.2,0.7-0.3,1.5-0.3,2.4v7c0,3.9,1.8,5.8,5.3,5.8h6.1c1.9,0,2.8,0.7,2.8,2.2l-0.2,0.2H662c-3.2,0-5.4-1.5-6.6-4.5
		c-0.4-1-0.5-2-0.5-3.2v-8.1c0-3,1.5-5.3,4.4-6.7C660.5,192.6,661.8,192.4,663.4,192.4z"/>
	<path class="st2" d="M689.3,192.4h0.8c3.8,0,6.3,1.5,7.4,4.5c0.4,1.1,0.6,2.4,0.6,4v1.3c0,1.8-0.8,2.7-2.3,2.7H684l-0.2,0.2v3.1
		c0,2.4,1.1,4,3.4,4.8c0.4,0.1,1.1,0.2,2,0.3l1.6-0.1h4.5c1.4,0,2.3,0.4,2.6,1.3l0.2,0.9l-0.1,0.1h-8.5c-4.4,0-7-1.9-7.9-5.6
		l-0.2-1.4v-8.1c0-4.5,2.1-7.2,6.3-8.1L689.3,192.4z M683.8,201.5v1.3h10.8c0.8,0,1.2-0.4,1.2-1.2v-0.9c0-3.9-1.9-5.9-5.6-5.9h-0.4
		c-3.1,0-5,1-5.7,3.1C683.9,198.7,683.8,199.9,683.8,201.5z"/>
</g>
</svg>
