<?xml version="1.0" encoding="utf-8"?>
<!-- Generator: Adobe Illustrator 19.0.0, SVG Export Plug-In . SVG Version: 6.00 Build 0)  -->
<svg version="1.1" id="Layer_1" xmlns="http://www.w3.org/2000/svg" xmlns:xlink="http://www.w3.org/1999/xlink" x="0px" y="0px"
	 viewBox="-193 287 223.7 220.6" style="enable-background:new -193 287 223.7 220.6;" xml:space="preserve">
<style type="text/css">
	.st0{fill:#EDEDED;}
	.st1{fill:#A6A8AC;}
	.st2{fill:#595A5C;}
</style>
<g id="text-title">
	<path class="st0" d="M-177.2,450.1v5.2h-1.3c0-0.8-0.1-1.5-0.3-2.1c-0.2-0.5-0.4-1-0.8-1.4c-0.4-0.4-0.9-0.7-1.6-0.7h-2v31.6
		c0,0.5,0.1,0.8,0.2,1c0.1,0.2,0.3,0.3,0.4,0.4c0.2,0.1,0.4,0.1,0.6,0v1.3h-6v-1.3c0.3,0.1,0.5,0.1,0.6,0c0.2,0,0.3-0.2,0.5-0.4
		c0.1-0.2,0.2-0.6,0.2-1v-31.6h-2.1c-0.7,0-1.2,0.2-1.6,0.7c-0.4,0.4-0.6,0.9-0.7,1.4c-0.2,0.6-0.3,1.3-0.3,2.1h-1.3v-5.2H-177.2z"
		/>
	<path class="st0" d="M-164.1,464.8c0,0.1,0,0.2,0,0.4c0,0.2,0,0.4,0,0.5c0,0.7-0.3,1.3-0.7,1.7c-0.4,0.4-1,0.7-1.6,0.7
		c-0.7,0-1.2-0.2-1.7-0.7c-0.4-0.5-0.7-1-0.7-1.7c0-0.8,0.3-1.4,0.9-1.9c0.1,0,0.1-0.1,0.1-0.1c0,0,0,0,0.1-0.1
		c0.2-0.2,0.4-0.4,0.4-0.7c0.1-0.3-0.1-0.6-0.6-0.8c-0.3-0.2-0.6-0.2-0.9-0.2c-1-0.1-1.9,0.2-2.6,0.9c-0.8,0.7-1.3,1.8-1.5,3.5v16.5
		c0,0.5,0.1,0.8,0.2,1c0.1,0.2,0.3,0.3,0.4,0.4c0.2,0.1,0.4,0.1,0.6,0v1.3h-6v-1.3c0.3,0.1,0.5,0.1,0.6,0c0.2,0,0.3-0.2,0.5-0.4
		c0.2-0.2,0.2-0.6,0.2-1v-18.8c0-0.5-0.1-0.8-0.2-1c-0.2-0.2-0.3-0.4-0.5-0.4c-0.1-0.1-0.3-0.1-0.6,0v-1.2h4.7v2
		c0.2-0.4,0.5-0.7,0.7-1c0.2-0.3,0.5-0.6,0.8-0.8c0.3-0.2,0.7-0.4,1.1-0.5c0.4-0.1,0.9-0.2,1.6-0.2c1,0,1.8,0.3,2.7,1
		C-165.1,462.5-164.5,463.5-164.1,464.8z"/>
	<path class="st0" d="M-155.7,460.9c0.8,0,1.5,0.1,2.3,0.4c0.8,0.3,1.5,0.7,2.1,1.2c0.6,0.6,1.1,1.3,1.5,2.1
		c0.4,0.9,0.6,1.9,0.6,3.1v5v0.1v1.1h-9.8v5.1c0,2,0.4,3.5,1.1,4.4c0.7,0.9,1.6,1.3,2.6,1.3c0.6,0,1.2-0.1,1.9-0.3
		c0.6-0.2,1.1-0.5,1.6-0.9c0.4-0.4,0.8-1,1.1-1.8c0.3-0.8,0.4-1.8,0.4-3.1h1.1v0.7c0,0.9-0.1,1.7-0.3,2.5s-0.5,1.5-1,2.1
		c-0.5,0.6-1.1,1.1-1.9,1.4c-0.8,0.3-1.7,0.5-2.8,0.6c-0.8,0-1.6-0.1-2.4-0.4c-0.8-0.3-1.6-0.7-2.2-1.3c-0.7-0.6-1.2-1.3-1.6-2.1
		c-0.4-0.8-0.6-1.7-0.6-2.7c0-0.2,0-0.6,0-1.2c0-0.5,0-1.2,0-1.9c0-0.7,0-1.5,0-2.3s0-1.7,0-2.4c0-0.8,0-1.5,0-2.1s0-1.1,0-1.5
		c0-1.2,0.2-2.2,0.6-3.1c0.4-0.9,0.9-1.6,1.5-2.1c0.6-0.5,1.3-1,2.1-1.2C-157.3,461-156.5,460.9-155.7,460.9z M-152.5,472.7v-3.9
		c0-1.3-0.1-2.3-0.2-3.1c-0.2-0.8-0.4-1.5-0.7-2c-0.3-0.5-0.6-0.9-1-1.1c-0.4-0.2-0.8-0.3-1.3-0.3c-1.1,0-1.9,0.5-2.4,1.4
		c-0.5,0.9-0.8,2.6-0.8,5.1v3.9H-152.5z"/>
	<path class="st0" d="M-132.5,461.3v1.2c-0.3,0-0.6,0.1-0.8,0.2c-0.3,0.1-0.5,0.2-0.7,0.4c-0.2,0.2-0.4,0.5-0.4,0.8
		c0,0-0.1,0.4-0.2,1c-0.1,0.6-0.3,1.5-0.6,2.5c-0.2,1-0.5,2.2-0.8,3.4c-0.3,1.3-0.6,2.6-0.9,3.9c-0.8,3.2-1.6,6.7-2.5,10.7h-2.2
		c-0.8-4-1.5-7.5-2.2-10.7c-0.3-1.3-0.5-2.6-0.8-3.9c-0.3-1.3-0.5-2.4-0.7-3.4c-0.2-1-0.3-1.8-0.5-2.5c-0.1-0.6-0.2-1-0.2-1
		c0-0.3-0.2-0.6-0.4-0.8c-0.2-0.2-0.4-0.3-0.6-0.4c-0.3-0.1-0.6-0.2-0.9-0.2v-1.2h6.4l0,1.2c-0.3,0-0.5,0.1-0.6,0.2
		c-0.1,0.1-0.2,0.2-0.3,0.4c-0.1,0.2-0.1,0.5,0,0.8c0,0,0.1,0.6,0.3,1.6c0.2,1,0.4,2.3,0.7,3.9c0.3,1.6,0.6,3.2,1,5
		c0.4,1.8,0.7,3.4,1,4.9c0.4-1.5,0.7-3.2,1.2-4.9c0.4-1.8,0.8-3.5,1.1-5c0.3-1.6,0.6-2.9,0.8-3.9c0.2-1,0.3-1.6,0.3-1.6
		c0.1-0.3,0.1-0.6,0-0.8c-0.1-0.2-0.2-0.3-0.3-0.4c-0.2-0.1-0.4-0.2-0.6-0.2l0-1.2H-132.5z"/>
	<path class="st0" d="M-124.4,460.9c0.8,0,1.6,0.1,2.4,0.4s1.5,0.7,2.2,1.2c0.7,0.6,1.2,1.3,1.6,2.2c0.4,0.9,0.6,1.9,0.6,3.2v11.2
		c0,1-0.2,1.8-0.6,2.7c-0.4,0.8-1,1.5-1.6,2.1c-0.6,0.6-1.4,1.1-2.1,1.4s-1.6,0.5-2.4,0.5s-1.6-0.1-2.4-0.4
		c-0.8-0.3-1.5-0.7-2.1-1.3c-0.6-0.6-1.2-1.3-1.6-2.1c-0.4-0.8-0.6-1.8-0.6-2.8V468c0-1.3,0.2-2.3,0.6-3.2c0.4-0.9,0.9-1.6,1.6-2.2
		c0.6-0.6,1.4-1,2.2-1.3C-126,461-125.2,460.9-124.4,460.9z M-121.1,468.9c0-1.3-0.1-2.3-0.2-3.2c-0.1-0.9-0.4-1.6-0.6-2.1
		c-0.3-0.5-0.6-0.9-1-1.1c-0.4-0.2-0.9-0.3-1.4-0.3c-1.1,0-1.9,0.5-2.4,1.5c-0.6,1-0.8,2.7-0.8,5.3v8.8c0,2.5,0.3,4.3,0.8,5.4
		c0.6,1.1,1.4,1.6,2.4,1.6c1.1,0,1.9-0.5,2.4-1.6c0.6-1.1,0.9-2.8,0.9-5.4V468.9z"/>
	<path class="st0" d="M-101.4,464.8c0,0.1,0,0.2,0,0.4c0,0.2,0,0.4,0,0.5c0,0.7-0.3,1.3-0.7,1.7c-0.4,0.4-1,0.7-1.6,0.7
		c-0.7,0-1.2-0.2-1.7-0.7c-0.4-0.5-0.7-1-0.7-1.7c0-0.8,0.3-1.4,0.9-1.9c0.1,0,0.1-0.1,0.1-0.1c0,0,0,0,0.1-0.1
		c0.2-0.2,0.4-0.4,0.4-0.7c0.1-0.3-0.1-0.6-0.6-0.8c-0.3-0.2-0.6-0.2-0.9-0.2c-1-0.1-1.9,0.2-2.6,0.9c-0.8,0.7-1.3,1.8-1.5,3.5v16.5
		c0,0.5,0.1,0.8,0.2,1c0.1,0.2,0.3,0.3,0.4,0.4c0.2,0.1,0.4,0.1,0.6,0v1.3h-6v-1.3c0.3,0.1,0.5,0.1,0.6,0c0.2,0,0.3-0.2,0.5-0.4
		c0.2-0.2,0.2-0.6,0.2-1v-18.8c0-0.5-0.1-0.8-0.2-1c-0.2-0.2-0.3-0.4-0.5-0.4c-0.1-0.1-0.3-0.1-0.6,0v-1.2h4.7v2
		c0.2-0.4,0.5-0.7,0.7-1c0.2-0.3,0.5-0.6,0.8-0.8c0.3-0.2,0.7-0.4,1.1-0.5c0.4-0.1,0.9-0.2,1.6-0.2c1,0,1.8,0.3,2.7,1
		C-102.4,462.5-101.8,463.5-101.4,464.8z"/>
	<path class="st0" d="M-75.8,450.1v5.2h-1.3c0-0.8-0.1-1.5-0.3-2.1c-0.2-0.5-0.4-1-0.8-1.4c-0.4-0.4-0.9-0.7-1.6-0.7h-2v31.6
		c0,0.5,0.1,0.8,0.2,1c0.1,0.2,0.3,0.3,0.4,0.4c0.2,0.1,0.4,0.1,0.6,0v1.3h-6v-1.3c0.3,0.1,0.5,0.1,0.6,0c0.2,0,0.3-0.2,0.5-0.4
		c0.1-0.2,0.2-0.6,0.2-1v-31.6h-2.1c-0.7,0-1.2,0.2-1.6,0.7c-0.4,0.4-0.6,0.9-0.7,1.4c-0.2,0.6-0.3,1.3-0.3,2.1h-1.3v-5.2H-75.8z"/>
	<path class="st0" d="M-68.9,450.1v13c0.1-0.1,0.2-0.3,0.3-0.5c0.2-0.2,0.4-0.5,0.8-0.7c0.3-0.3,0.8-0.5,1.3-0.7
		c0.5-0.2,1.2-0.3,1.9-0.3h0.1c0.7,0,1.4,0.1,2.1,0.4c0.7,0.3,1.3,0.7,1.8,1.3s0.9,1.3,1.3,2.1c0.3,0.9,0.5,1.9,0.5,3.1v14.9
		c0,0.6,0.1,1,0.3,1.2c0.2,0.2,0.4,0.2,0.6,0.2h0.2c0,0,0.1,0,0.1,0v1.3h-6v-1.3c0,0,0.1,0,0.1,0h0.2c0.2,0,0.4-0.1,0.6-0.2
		c0.2-0.1,0.3-0.5,0.4-1c0-0.7,0-1.6,0-2.6c0-1.1,0-2.2,0-3.3s0-2.3,0-3.5c0-1.2,0-2.3,0-3.2c0-1,0-1.8,0-2.4c0-0.6,0-1,0-1.2h0v0
		c-0.1-1.7-0.3-2.9-0.6-3.6c-0.3-0.7-0.9-1.1-1.7-1.1h-0.1c-1,0-1.9,0.4-2.7,1.2s-1.2,2.1-1.4,4v15.6c0,0.6,0.1,1,0.3,1.2
		c0.2,0.2,0.4,0.2,0.6,0.2h0.2c0,0,0.1,0,0.1,0v1.3h-6v-1.3c0,0,0.1,0,0.1,0h0.2c0.2,0,0.4-0.1,0.6-0.2c0.2-0.2,0.3-0.6,0.3-1.2v-30
		c0-0.6-0.1-1-0.3-1.2c-0.2-0.2-0.4-0.3-0.6-0.3c-0.1,0-0.1,0-0.1,0c0,0-0.1,0-0.1,0h-0.1v-1.2H-68.9z"/>
	<path class="st0" d="M-50.1,482.7c0,0.5,0.1,0.8,0.2,1c0.1,0.2,0.3,0.3,0.4,0.4c0.2,0.1,0.4,0.1,0.6,0v1.3h-5.9v-1.3
		c0.2,0.1,0.4,0.1,0.6,0c0.2,0,0.3-0.2,0.4-0.4c0.1-0.2,0.2-0.6,0.2-1v-18.8c0-0.4-0.1-0.7-0.2-1c-0.1-0.2-0.3-0.4-0.4-0.4
		c-0.2-0.1-0.4-0.1-0.6,0v-1.2h4.7V482.7z M-49.7,455.8c0,0.6-0.2,1.1-0.6,1.6c-0.4,0.4-0.9,0.6-1.5,0.6s-1.1-0.2-1.5-0.6
		s-0.6-0.9-0.6-1.6c0-0.6,0.2-1.1,0.6-1.5s0.9-0.6,1.5-0.6s1.1,0.2,1.5,0.6C-49.9,454.8-49.7,455.3-49.7,455.8z"/>
	<path class="st0" d="M-39,460.9c0.8,0,1.5,0.1,2.3,0.4s1.5,0.7,2.1,1.2c0.6,0.6,1.1,1.3,1.5,2.1c0.4,0.9,0.6,1.9,0.6,3.1v5v0.1v1.1
		h-9.8v5.1c0,2,0.4,3.5,1.1,4.4c0.7,0.9,1.6,1.3,2.6,1.3c0.6,0,1.2-0.1,1.9-0.3c0.6-0.2,1.1-0.5,1.6-0.9c0.4-0.4,0.8-1,1.1-1.8
		c0.3-0.8,0.4-1.8,0.4-3.1h1.1v0.7c0,0.9-0.1,1.7-0.3,2.5c-0.2,0.8-0.5,1.5-1,2.1c-0.5,0.6-1.1,1.1-1.9,1.4
		c-0.8,0.3-1.7,0.5-2.8,0.6c-0.8,0-1.6-0.1-2.4-0.4s-1.6-0.7-2.2-1.3s-1.2-1.3-1.6-2.1c-0.4-0.8-0.6-1.7-0.6-2.7c0-0.2,0-0.6,0-1.2
		c0-0.5,0-1.2,0-1.9c0-0.7,0-1.5,0-2.3s0-1.7,0-2.4c0-0.8,0-1.5,0-2.1s0-1.1,0-1.5c0-1.2,0.2-2.2,0.6-3.1c0.4-0.9,0.9-1.6,1.5-2.1
		c0.6-0.5,1.3-1,2.1-1.2C-40.6,461-39.8,460.9-39,460.9z M-35.8,472.7v-3.9c0-1.3-0.1-2.3-0.2-3.1c-0.2-0.8-0.4-1.5-0.7-2
		c-0.3-0.5-0.6-0.9-1-1.1c-0.4-0.2-0.8-0.3-1.3-0.3c-1.1,0-1.9,0.5-2.4,1.4c-0.5,0.9-0.8,2.6-0.8,5.1v3.9H-35.8z"/>
	<path class="st0" d="M-21,485.1C-21,485.1-21,485.2-21,485.1c-0.1,0-0.1,0.1-0.1,0.1l0,0c-0.1,0-0.1,0.1-0.2,0.1
		c-0.1,0-0.2,0.1-0.2,0.1c-0.7,0.3-1.5,0.4-2.4,0.4c-0.5,0-1-0.1-1.5-0.4c-0.5-0.2-0.9-0.5-1.3-0.6c-0.4-0.2-0.7-0.2-0.9-0.2
		c-0.2,0-0.4,0.3-0.4,0.7h-0.9v-5.9h1.2c-0.1,1.1,0,2,0.3,2.7c0.2,0.7,0.6,1.3,1.2,1.9c0.6,0.6,1.4,0.9,2.6,0.9
		c0.8,0,1.4-0.1,1.9-0.4c0.9-0.4,1.4-0.9,1.8-1.5c0.3-0.6,0.4-1.2,0.4-1.9c-0.1-0.6-0.3-1.3-0.7-1.9s-0.9-1.2-1.5-1.7
		c-0.4-0.3-0.8-0.6-1.2-0.9c-0.4-0.3-0.9-0.7-1.3-1c-1.2-0.9-2.1-1.8-2.7-2.5c-0.7-0.7-1.2-1.4-1.6-2.1c-0.4-0.6-0.6-1.3-0.7-1.8
		c-0.1-0.6-0.2-1.2-0.2-1.9c0-0.4,0-0.8,0.1-1.1c0-0.3,0.1-0.6,0.2-0.9c0.1-0.6,0.3-1.1,0.5-1.6c0.2-0.5,0.6-1,1-1.4s1-0.7,1.6-1
		c0.6-0.3,1.4-0.4,2.3-0.4c0.5,0,1,0.1,1.5,0.3s0.9,0.4,1.3,0.6c0.4,0.2,0.7,0.3,0.9,0.2s0.3-0.3,0.3-0.8h0.9v6.1h-1.3
		c0-1-0.1-1.9-0.3-2.7c-0.2-0.7-0.6-1.3-1.2-1.9c-0.6-0.6-1.4-0.8-2.5-0.8c-0.9,0-1.6,0.2-2.2,0.6c-0.3,0.2-0.6,0.6-0.8,1
		c-0.2,0.4-0.3,0.9-0.4,1.5c0,0.5,0,1.1,0.2,1.7c0.2,0.6,0.6,1.2,1.2,1.7c0.1,0.1,0.2,0.2,0.3,0.3c0.1,0.1,0.2,0.2,0.4,0.2
		c0.1,0.1,0.2,0.1,0.2,0.2c0.1,0.1,0.1,0.1,0.2,0.2c0.4,0.3,0.7,0.6,1.1,0.9c0.4,0.3,0.8,0.6,1.2,0.9c0.9,0.8,1.7,1.5,2.3,2.1
		s1.1,1.2,1.5,1.8c0.4,0.6,0.7,1.1,0.9,1.6s0.3,1,0.3,1.4c0.3,1.5,0.3,2.8-0.2,3.8c-0.4,1-1,1.9-1.7,2.4h0c0,0.1,0,0.1-0.1,0.1
		c-0.1,0.1-0.1,0.1-0.2,0.1c-0.1,0.1-0.2,0.1-0.3,0.2c-0.1,0.1-0.2,0.1-0.3,0.1v0C-20.8,485.1-20.9,485.1-21,485.1
		C-20.9,485.1-21,485.1-21,485.1z"/>
	<path class="st0" d="M-7.1,485.1C-7.1,485.1-7.2,485.2-7.1,485.1c-0.1,0-0.1,0.1-0.1,0.1l0,0c-0.1,0-0.1,0.1-0.2,0.1
		c-0.1,0-0.2,0.1-0.2,0.1c-0.7,0.3-1.5,0.4-2.4,0.4c-0.5,0-1-0.1-1.5-0.4c-0.5-0.2-0.9-0.5-1.3-0.6c-0.4-0.2-0.7-0.2-0.9-0.2
		c-0.2,0-0.4,0.3-0.4,0.7h-0.9v-5.9h1.2c-0.1,1.1,0,2,0.3,2.7c0.2,0.7,0.6,1.3,1.2,1.9c0.6,0.6,1.4,0.9,2.6,0.9
		c0.8,0,1.4-0.1,1.9-0.4c0.9-0.4,1.4-0.9,1.8-1.5c0.3-0.6,0.4-1.2,0.4-1.9c-0.1-0.6-0.3-1.3-0.7-1.9s-0.9-1.2-1.5-1.7
		c-0.4-0.3-0.8-0.6-1.2-0.9c-0.4-0.3-0.9-0.7-1.3-1c-1.2-0.9-2.1-1.8-2.7-2.5c-0.7-0.7-1.2-1.4-1.6-2.1c-0.4-0.6-0.6-1.3-0.7-1.8
		c-0.1-0.6-0.2-1.2-0.2-1.9c0-0.4,0-0.8,0.1-1.1c0-0.3,0.1-0.6,0.2-0.9c0.1-0.6,0.3-1.1,0.5-1.6c0.2-0.5,0.6-1,1-1.4s1-0.7,1.6-1
		c0.6-0.3,1.4-0.4,2.3-0.4c0.5,0,1,0.1,1.5,0.3s0.9,0.4,1.3,0.6c0.4,0.2,0.7,0.3,0.9,0.2s0.3-0.3,0.3-0.8h0.9v6.1h-1.3
		c0-1-0.1-1.9-0.3-2.7c-0.2-0.7-0.6-1.3-1.2-1.9c-0.6-0.6-1.4-0.8-2.5-0.8c-0.9,0-1.6,0.2-2.2,0.6c-0.3,0.2-0.6,0.6-0.8,1
		c-0.2,0.4-0.3,0.9-0.4,1.5c0,0.5,0,1.1,0.2,1.7c0.2,0.6,0.6,1.2,1.2,1.7c0.1,0.1,0.2,0.2,0.3,0.3c0.1,0.1,0.2,0.2,0.4,0.2
		c0.1,0.1,0.2,0.1,0.2,0.2c0.1,0.1,0.1,0.1,0.2,0.2c0.4,0.3,0.7,0.6,1.1,0.9c0.4,0.3,0.8,0.6,1.2,0.9c0.9,0.8,1.7,1.5,2.3,2.1
		s1.1,1.2,1.5,1.8c0.4,0.6,0.7,1.1,0.9,1.6s0.3,1,0.3,1.4c0.3,1.5,0.3,2.8-0.2,3.8c-0.4,1-1,1.9-1.7,2.4h0c0,0.1,0,0.1-0.1,0.1
		c-0.1,0.1-0.1,0.1-0.2,0.1c-0.1,0.1-0.2,0.1-0.3,0.2c-0.1,0.1-0.2,0.1-0.3,0.1v0C-6.9,485.1-7,485.1-7.1,485.1
		C-7,485.1-7.1,485.1-7.1,485.1z"/>
	<path class="st0" d="M5.5,460.9c0.8,0,1.5,0.1,2.3,0.4s1.5,0.7,2.1,1.2c0.6,0.6,1.1,1.3,1.5,2.1c0.4,0.9,0.6,1.9,0.6,3.1v5v0.1v1.1
		H2.1v5.1c0,2,0.4,3.5,1.1,4.4c0.7,0.9,1.6,1.3,2.6,1.3c0.6,0,1.2-0.1,1.9-0.3c0.6-0.2,1.1-0.5,1.6-0.9c0.4-0.4,0.8-1,1.1-1.8
		c0.3-0.8,0.4-1.8,0.4-3.1H12v0.7c0,0.9-0.1,1.7-0.3,2.5c-0.2,0.8-0.5,1.5-1,2.1c-0.5,0.6-1.1,1.1-1.9,1.4c-0.8,0.3-1.7,0.5-2.8,0.6
		c-0.8,0-1.6-0.1-2.4-0.4s-1.6-0.7-2.2-1.3S0,482.8-0.4,482c-0.4-0.8-0.6-1.7-0.6-2.7c0-0.2,0-0.6,0-1.2c0-0.5,0-1.2,0-1.9
		c0-0.7,0-1.5,0-2.3s0-1.7,0-2.4c0-0.8,0-1.5,0-2.1s0-1.1,0-1.5c0-1.2,0.2-2.2,0.6-3.1c0.4-0.9,0.9-1.6,1.5-2.1
		c0.6-0.5,1.3-1,2.1-1.2C3.9,461,4.7,460.9,5.5,460.9z M8.7,472.7v-3.9c0-1.3-0.1-2.3-0.2-3.1c-0.2-0.8-0.4-1.5-0.7-2
		c-0.3-0.5-0.6-0.9-1-1.1c-0.4-0.2-0.8-0.3-1.3-0.3c-1.1,0-1.9,0.5-2.4,1.4c-0.5,0.9-0.8,2.6-0.8,5.1v3.9H8.7z"/>
	<path class="st0" d="M23.7,460.9c1.7,0.1,3.1,0.6,4.2,1.7c1,1.1,1.6,2.8,1.6,5.2v7.2v7.7c0,0.7,0.1,1.1,0.3,1.2s0.4,0.2,0.6,0.2
		h0.2c0,0,0.1,0,0.1,0v1.3h-5.9v-1.3c0,0,0.1,0,0.1,0h0.2c0.2,0,0.3-0.1,0.5-0.2c0.2-0.1,0.3-0.5,0.4-1v-14c0-0.5,0-0.9,0-1.2
		c0-0.4,0-0.7,0-1v0c-0.1-1.6-0.3-2.8-0.6-3.5s-0.9-1.1-1.7-1.1h-0.2c-1.1,0-2,0.4-2.7,1.2c-0.7,0.8-1.2,2.1-1.4,4v15.5
		c0,0.7,0.1,1.1,0.3,1.2c0.2,0.1,0.4,0.2,0.6,0.2h0.2c0,0,0.1,0,0.1,0v1.3h-5.9v-1.3c0,0,0.1,0,0.1,0h0.2c0.2,0,0.4-0.1,0.6-0.2
		s0.4-0.6,0.4-1.2v-18.9c0-0.6-0.1-1-0.4-1.2c-0.2-0.2-0.5-0.2-0.6-0.2c-0.1,0-0.1,0-0.1,0c0,0-0.1,0-0.1,0h-0.1v-1.1h4.7v1.9
		c0.1-0.2,0.2-0.4,0.3-0.5c0.1-0.2,0.2-0.3,0.4-0.4c0.5-0.5,1.1-0.9,1.8-1.1h0.1c0,0,0,0,0,0c0.2-0.1,0.5-0.1,0.7-0.1
		C23.1,460.9,23.3,460.9,23.7,460.9L23.7,460.9z"/>
</g>
<g id="walls_light">
	<polygon class="st1" points="-176.6,362.5 -139.5,348.6 -139.5,336.1 -176.6,350 	"/>
	<polygon class="st1" points="-75.8,373.2 -46.9,362.4 -46.9,349.8 -82.7,363.2 	"/>
	<polygon class="st1" points="0.2,302.2 -98.9,339.3 -98.9,352.4 0.2,315.3 	"/>
	<polygon class="st1" points="-88,287 -192.7,326.3 -185.6,336.7 -88,300.2 	"/>
	<polygon class="st1" points="1.5,431.2 14.8,426.2 14.8,420.2 18.9,418.7 18.9,424.8 30.7,420.3 30.7,407.8 1.5,418.7 	"/>
	<polygon class="st1" points="-91.1,417.6 -77.9,412.6 -77.9,406.6 -73.7,405.1 -73.7,411.1 -63.5,407.3 -63.5,394.6 -91.1,405.1 	
		"/>
</g>
<g id="walls_dark">
	<polygon class="st2" points="-193,339.4 -177.9,361.7 -177.9,349.2 -193,326.9 	"/>
	<polygon class="st2" points="-110.1,337.1 -100.3,351.5 -100.3,338.4 -110.1,324 	"/>
	<polygon class="st2" points="17.8,324.3 1.5,300.4 1.5,313.4 10.7,327 	"/>
	<polygon class="st2" points="-71.8,309.4 -87.1,287 -87.1,299.5 -78.7,311.9 	"/>
	<polygon class="st2" points="-138.2,346.9 -92.4,414.2 -92.4,401.7 -138.2,334.3 	"/>
	<polygon class="st2" points="-45.5,360.6 0.2,427.9 0.2,415.4 -45.5,348 	"/>
	<polygon class="st2" points="-16.4,349.6 23.2,407.9 29.9,405.3 -16.4,337.1 	"/>
	<polygon class="st2" points="-84,375.5 -70.9,394.8 -63.8,392.1 -84,362.4 	"/>
</g>
<g id="text-sub">
	<path class="st0" d="M-142.5,507.5v-11.8h4.8c0.5,0,0.9,0.1,1.3,0.3c0.4,0.2,0.8,0.5,1.1,0.8c0.3,0.3,0.5,0.7,0.7,1.1
		c0.2,0.4,0.2,0.9,0.2,1.3c0,0.5-0.1,0.9-0.2,1.3c-0.1,0.4-0.3,0.8-0.6,1.1c-0.3,0.3-0.6,0.6-1,0.8c-0.4,0.2-0.8,0.3-1.2,0.4l3,4.6
		h-0.4l-3-4.6h-4.4v4.6H-142.5z M-142.1,502.6h4.6c0.4,0,0.8-0.1,1.2-0.3c0.4-0.2,0.7-0.4,0.9-0.7c0.2-0.3,0.4-0.7,0.6-1
		c0.1-0.4,0.2-0.8,0.2-1.2c0-0.4-0.1-0.8-0.2-1.2c-0.2-0.4-0.4-0.7-0.6-1c-0.3-0.3-0.6-0.5-1-0.7c-0.4-0.2-0.8-0.3-1.2-0.3h-4.5
		V502.6z"/>
	<path class="st0" d="M-120.5,507.2v0.3h-7.8v-11.8h7.6v0.3h-7.3v5.3h6.4v0.3h-6.4v5.5H-120.5z"/>
	<path class="st0" d="M-110.5,495.7h0.3l5.1,11.8h-0.4l-1.8-4.2h-6.2l-1.8,4.2h-0.4L-110.5,495.7z M-107.5,503l-2.9-6.8l-3,6.8
		H-107.5z"/>
	<path class="st0" d="M-100.3,507.5v-11.8h0.3v11.5h7.4v0.3H-100.3z"/>
	<path class="st0" d="M-79,507.2v0.3h-7.8v-11.8h7.6v0.3h-7.3v5.3h6.4v0.3h-6.4v5.5H-79z"/>
	<path class="st0" d="M-67.7,497.3c-0.5-0.5-1-0.9-1.5-1c-0.5-0.2-1.1-0.3-1.8-0.3c-0.7,0-1.3,0.1-1.7,0.2c-0.5,0.1-0.9,0.3-1.2,0.6
		c-0.3,0.2-0.5,0.5-0.7,0.9c-0.1,0.3-0.2,0.7-0.2,1.2c0,0.4,0.1,0.8,0.2,1.1c0.1,0.3,0.4,0.5,0.7,0.7c0.3,0.2,0.7,0.4,1.2,0.5
		c0.5,0.1,1,0.3,1.7,0.4c0.7,0.1,1.2,0.3,1.8,0.4c0.5,0.2,1,0.3,1.4,0.6c0.4,0.2,0.7,0.5,0.9,0.9c0.2,0.3,0.3,0.8,0.3,1.3
		c0,1-0.4,1.7-1.1,2.2c-0.7,0.5-1.8,0.8-3.1,0.8c-1,0-1.8-0.1-2.5-0.4c-0.7-0.3-1.4-0.8-2.1-1.4l0.2-0.2c0.6,0.6,1.3,1.1,2,1.3
		c0.7,0.3,1.5,0.4,2.4,0.4c1.2,0,2.1-0.2,2.8-0.7c0.7-0.4,1-1.1,1-2c0-0.4-0.1-0.8-0.2-1.1c-0.2-0.3-0.4-0.6-0.7-0.8
		c-0.3-0.2-0.7-0.4-1.2-0.6c-0.5-0.2-1.1-0.3-1.8-0.4c-0.7-0.1-1.2-0.3-1.7-0.4c-0.5-0.1-0.9-0.3-1.3-0.5c-0.3-0.2-0.6-0.5-0.8-0.8
		c-0.2-0.3-0.3-0.7-0.3-1.2c0-0.5,0.1-1,0.3-1.4c0.2-0.4,0.5-0.7,0.8-1c0.4-0.3,0.8-0.5,1.3-0.6c0.5-0.1,1.1-0.2,1.7-0.2
		c0.8,0,1.4,0.1,2,0.3c0.6,0.2,1.1,0.6,1.5,1.1L-67.7,497.3z"/>
	<path class="st0" d="M-54.7,496.1h-4.5v11.5h-0.3v-11.5H-64v-0.3h9.4V496.1z"/>
	<path class="st0" d="M-47.7,495.7h0.3l5.1,11.8h-0.4l-1.8-4.2h-6.2l-1.8,4.2h-0.4L-47.7,495.7z M-44.6,503l-2.9-6.8l-3,6.8H-44.6z"
		/>
	<path class="st0" d="M-31.1,496.1h-4.5v11.5H-36v-11.5h-4.5v-0.3h9.4V496.1z"/>
	<path class="st0" d="M-20.2,507.2v0.3h-7.8v-11.8h7.6v0.3h-7.3v5.3h6.4v0.3h-6.4v5.5H-20.2z"/>
</g>
</svg>
