<svg xmlns="http://www.w3.org/2000/svg" style="display:none"><symbol id="icons_brainstorm" viewBox="0 0 16 16"><title>icons</title><path d="M14.38 12.44c-.06-.08-.36-.4-.79-.88a1 1 0 0 0 .21-.43 1 1 0 0 0-.31-.92 1.13 1.13 0 0 0 .34-.91 1.43 1.43 0 0 0-1.21-1.16c.21-1-1-2.15-2.77-2.55a4.86 4.86 0 0 0-2.29 0 2 2 0 0 0-1.12.69A2.27 2.27 0 0 0 4 6.13a2.76 2.76 0 0 0-1.25 1.09 1.63 1.63 0 0 0-.22 1.1 1.64 1.64 0 0 0-.76.51 2.16 2.16 0 0 0-.48 1.37 1.86 1.86 0 0 0 1.62 2 1.53 1.53 0 0 0 .4.61 2.28 2.28 0 0 0 1.27.56h.3A2.2 2.2 0 0 0 6 13.11a1.66 1.66 0 0 0 .26-.18 1.47 1.47 0 0 0 .51.47 2.14 2.14 0 0 0 1 .21h.38a4.38 4.38 0 0 0 2.39-1.15 11.41 11.41 0 0 1 2.86 1.25.79.79 0 0 0 1-.09.8.8 0 0 0-.02-1.18zm-.85.73a11.64 11.64 0 0 0-2-1.12A2.51 2.51 0 0 1 12 12a.36.36 0 1 0 0-.71c-1.36.07-2.57 1.6-3.82 1.6a2.38 2.38 0 0 1-1-.11.7.7 0 0 1-.39-.63 1.7 1.7 0 0 0-.45-1.06 2.29 2.29 0 0 0-1.18-.53.36.36 0 0 0-.11.7 1.63 1.63 0 0 1 .82.36A.51.51 0 0 1 6 12a.73.73 0 0 1-.36.42 1.58 1.58 0 0 1-.94.16 1.73 1.73 0 0 1-.87-.38.91.91 0 0 1-.14-1.45.94.94 0 0 1 .55-.32.36.36 0 0 0-.14-.7 1.64 1.64 0 0 0-1 .57 2 2 0 0 0-.29 1.06A1.19 1.19 0 0 1 2 10.21a1.44 1.44 0 0 1 .32-.92A.87.87 0 0 1 3 9a.36.36 0 0 0 .35-.4 1 1 0 0 1 0-1 2.19 2.19 0 0 1 .9-.8 1.9 1.9 0 0 1 1.33-.15h-.13a1.26 1.26 0 0 0-.67.85.36.36 0 0 0 .27.42h.1a.36.36 0 0 0 .35-.26.56.56 0 0 1 .3-.37.92.92 0 0 1 .63-.07.35.35 0 0 0 .4-.22 1.18 1.18 0 0 1 .9-.76 4.4 4.4 0 0 1 1.94 0C11.15 6.61 12 7.46 11.92 8h-.18a.36.36 0 0 0-.33.38.35.35 0 0 0 .38.33 1.16 1.16 0 0 1 1.32.59.43.43 0 0 1-.31.49.42.42 0 0 0-.29.32.36.36 0 0 0 .27.43.37.37 0 0 1 .33.38.36.36 0 0 0-.53.48l.3.27 1.09 1c.28.33.03.8-.45.5z"/><path d="M8.93 8.9A1.54 1.54 0 0 0 7.71 10a2.41 2.41 0 0 0-.94 0 .36.36 0 0 0 .14.7 1.62 1.62 0 0 1 .89.05.5.5 0 0 1 .34.32.35.35 0 0 0 .35.29h.08a.36.36 0 0 0 .28-.42 1.08 1.08 0 0 0-.44-.65.77.77 0 0 1 .67-.66.36.36 0 0 0-.15-.73zM9.82 6.86a2.33 2.33 0 0 0-1.29-.09.36.36 0 0 0 .14.7 1.62 1.62 0 0 1 .89.05.5.5 0 0 1 .34.32.35.35 0 0 0 .35.29h.07a.36.36 0 0 0 .28-.43 1.19 1.19 0 0 0-.78-.84zM10 5.2a.35.35 0 0 0 .17 0 .36.36 0 0 0 .31-.19l1-1.83a.36.36 0 1 0-.63-.34l-1 1.83a.36.36 0 0 0 .15.53zM4.85 5.36A.36.36 0 1 0 5.43 5L4.24 3.25a.36.36 0 1 0-.58.41zM7.32 4.92a.36.36 0 0 0 .36-.36V2.21a.36.36 0 0 0-.71 0v2.36a.36.36 0 0 0 .35.35z"/></symbol><symbol id="icons_camera" viewBox="0 0 16 16"><title>icons</title><path d="M8 10.69a2.1 2.1 0 1 1 2.1-2.1 2.1 2.1 0 0 1-2.1 2.1zm0-3.56a1.48 1.48 0 1 0 1.5 1.48A1.48 1.48 0 0 0 8 7.13z"/><path d="M12.77 13.07H3.26a1.51 1.51 0 0 1-1.5-1.5V6.22a1.51 1.51 0 0 1 1.5-1.5h1.42a.2.2 0 0 0 .17-.12l.37-1.11A.85.85 0 0 1 6 2.93h4a.81.81 0 0 1 .76.56l.39 1.11a.2.2 0 0 0 .17.12h1.42a1.51 1.51 0 0 1 1.5 1.5v5.35a1.45 1.45 0 0 1-1.47 1.5zM3.26 5.34a.89.89 0 0 0-.88.88v5.35a.89.89 0 0 0 .88.88h9.5a.89.89 0 0 0 .88-.88V6.22a.89.89 0 0 0-.88-.88h-1.41a.81.81 0 0 1-.76-.56l-.37-1.11a.2.2 0 0 0-.17-.12H6a.2.2 0 0 0-.17.12L5.45 4.8a.85.85 0 0 1-.76.56H3.26z"/><path d="M8 11.88a3.29 3.29 0 1 1 3.27-3.29A3.29 3.29 0 0 1 8 11.88zm0-5.94a2.66 2.66 0 1 0 2.67 2.65A2.67 2.67 0 0 0 8 5.94zM12.35 6.22a.42.42 0 1 1-.42.42.41.41 0 0 1 .42-.42m0-.46a.88.88 0 1 0 .88.88.89.89 0 0 0-.88-.88z"/></symbol><symbol id="icons_develop" viewBox="0 0 16 16"><title>icons</title><path d="M9.4 3.83L7.66 9.21a.16.16 0 0 1-.15.11h-.76c-.08 0-.13-.05-.1-.16l1.73-5.35a.23.23 0 0 1 .22-.16h.7c.1 0 .13.06.1.18zM9.61 8.52v-.64a.24.24 0 0 1 .1-.2l1.57-1.13a.1.1 0 0 0 0-.16L9.7 5.25a.2.2 0 0 1-.08-.16v-.66c0-.14.11-.17.24-.07l2.81 2a.14.14 0 0 1 0 .23l-2.85 2c-.09.1-.21.08-.21-.07zM6.3 4.44v.64a.24.24 0 0 1-.1.2L4.62 6.41a.1.1 0 0 0 0 .16l1.59 1.14a.2.2 0 0 1 .08.16v.66c0 .14-.11.17-.24.07l-2.81-2a.14.14 0 0 1 0-.23l2.85-2c.1-.1.21-.08.21.07z"/><path d="M13.45 2.28h-11a1.08 1.08 0 0 0-1.06 1.08v7.39a1.08 1.08 0 0 0 1.07 1.08h3.69v1.44H5a.26.26 0 0 0 0 .51h6a.26.26 0 0 0 0-.51H9.64v-1.44h3.84a1.08 1.08 0 0 0 1.07-1.08V3.36a1.08 1.08 0 0 0-1.1-1.08zM8 11.45a.48.48 0 1 1 .43-.45.48.48 0 0 1-.43.45zm5.91-2.21a.86.86 0 0 1-.86.86H2.9a.86.86 0 0 1-.9-.85V3.71a.86.86 0 0 1 .9-.86H13a.86.86 0 0 1 .86.86v5.54z"/></symbol><symbol id="icons_jersey" viewBox="0 0 16 16"><title>icons</title><path d="M9.82 14H6.09a1.8 1.8 0 0 1-1.82-1.82V7.55a1.84 1.84 0 0 1-2-.31l-.42-.46a1.72 1.72 0 0 1-.55-1.26 1.79 1.79 0 0 1 .49-1.29A19.52 19.52 0 0 1 4 2.38 3.65 3.65 0 0 1 5.63 2h.43a.35.35 0 0 1 .25.09.38.38 0 0 1 .12.25 1.48 1.48 0 0 0 3 0 .28.28 0 0 1 .12-.25.35.35 0 0 1 .24-.09h.06a2.33 2.33 0 0 0 .46 0 3.65 3.65 0 0 1 1.6.34 19.55 19.55 0 0 1 2.21 1.86 1.81 1.81 0 0 1-.06 2.58l-.4.43a1.77 1.77 0 0 1-1.26.49 2.14 2.14 0 0 1-.77-.15v4.62A1.82 1.82 0 0 1 9.82 14zM4.59 5.92a.34.34 0 0 1 .34.34v5.94a1.14 1.14 0 0 0 1.14 1.14h3.72a1.14 1.14 0 0 0 1.14-1.14v-6a.34.34 0 0 1 .34-.34.34.34 0 0 1 .34.34v.58a1.17 1.17 0 0 0 1.54 0l.4-.43a1.14 1.14 0 0 0 .06-1.63A20.44 20.44 0 0 0 11.54 3a3.34 3.34 0 0 0-1.29-.25h-.19A2.12 2.12 0 0 1 8 4.51a2.14 2.14 0 0 1-2.12-1.76h-.19A3.71 3.71 0 0 0 4.31 3a21.26 21.26 0 0 0-2.09 1.72 1.07 1.07 0 0 0-.28.8 1.15 1.15 0 0 0 .37.8l.43.46a1.09 1.09 0 0 0 .77.31 1.18 1.18 0 0 0 .77-.28v-.55a.3.3 0 0 1 .31-.34z"/><path d="M7.19 5.33a.21.21 0 0 1 .15.06.21.21 0 0 1 .06.15v3a.21.21 0 0 1-.06.15.22.22 0 0 1-.3 0A.21.21 0 0 1 7 8.51V6.06l-.32.32a.21.21 0 0 1-.15.06.21.21 0 0 1-.22-.21.21.21 0 0 1 .06-.15L7 5.39a.21.21 0 0 1 .19-.06zM9.65 7.54v.31a.87.87 0 0 1-.87.87.87.87 0 0 1-.87-.87V6.2a.87.87 0 0 1 .87-.87.87.87 0 0 1 .82.59.2.2 0 0 1 0 .19.21.21 0 0 1-.18.09.2.2 0 0 1-.2-.14.43.43 0 0 0-.22-.22.43.43 0 0 0-.26-.08.43.43 0 0 0-.31.13.42.42 0 0 0-.13.31v.6a.86.86 0 0 1 .44-.12.84.84 0 0 1 .6.24.83.83 0 0 1 .27.58.27.27 0 0 1 .04.04zm-.43 0a.44.44 0 0 0-.44-.44.43.43 0 0 0-.31.13.42.42 0 0 0-.13.31v.3a.44.44 0 0 0 .44.44.44.44 0 0 0 .44-.44v-.29z"/></symbol><symbol id="icons_mobile" viewBox="0 0 16 16"><title>icons</title><path d="M11.9 2.7c-.1-.1-.3-.1-.4-.1h-.2c-.3.1-.5.2-.7.5L6.9 9 5.2 7.1c-.2-.2-.4-.3-.7-.3-.2 0-.5.1-.6.2-.4.4-.4 1-.1 1.3L6.4 11c.2.2.4.3.7.3.2 0 .4-.1.6-.2l.2-.2L12.4 4c.1-.5 0-1.1-.5-1.3z"/><path d="M4.9 6.4V3.1c0-.6.4-1 1-1h4.3c.3 0 .6.2.8.4.2-.2.4-.3.7-.3h.2c-.2-.4-.6-.7-1.2-.7H5.4c-.7-.1-1.3.5-1.3 1.2v4c.2-.2.5-.3.8-.3zM11.2 7.3v4.4c0 .6-.4 1-1 1H5.8c-.6 0-1-.4-1-1v-2L4 8.8v4.6c0 .7.6 1.3 1.3 1.3h5.4c.7 0 1.3-.6 1.3-1.3V6l-.8 1.3zm-1.8 6.5c0 .1-.1.2-.2.2H6.8c-.1 0-.2-.1-.2-.2v-.3c0-.1.1-.2.2-.2h2.4c.1 0 .2.1.2.2v.3z"/></symbol><symbol id="icons_promoprod" viewBox="0 0 16 16"><title>icons</title><path d="M6.91 3.55V2.7H1.78v3h.81v.85h5.12v-3h-.8zM2.28 5.2v-2h4.13v2H2.28zm4.93.85H3.09V5.7h3.82V4.05h.3v2z"/><path d="M3.09 3.79h2.44v.25H3.09zM3.48 4.32h1.67v.25H3.48zM14.65 12.31V2.86h-5v.86h-.87v9.45h5v-.86h.87zm-5.37.36V4.22h4v8.45h-4zm.86-9.31h4v8.45h-.36V3.72h-3.64v-.35z"/><circle cx="10.28" cy="5.28" r=".66"/><path d="M11.43 4.93h1.44v.25h-1.44zM11.43 5.39h1.44v.25h-1.44zM9.56 6.81H11v.25H9.56zM9.56 7.26H11v.25H9.56zM9.56 7.71H11v.25H9.56zM9.56 8.16H11v.25H9.56zM9.56 10.67h3.37v.25H9.56zM9.56 11.12h3.37v.25H9.56zM9.56 11.57h3.37v.25H9.56zM9.56 12.02h3.37v.25H9.56zM12.93 10.24h-1.57V8.68h1.56v1.56zM11.61 10h1.06V8.93h-1.06V10zM12.93 8.37h-1.57V6.81h1.56v1.56zm-1.31-.25h1.06V7.06h-1.07v1.06zM11.06 10.24H9.5V8.68h1.56v1.56zM9.75 10h1.06V8.93H9.75V10z"/><circle cx="4.74" cy="8.9" r=".7"/><path d="M3.34 9.89h2.94v.24H3.34zM2.1 10.44h2.4v.24H2.1zM5.03 10.44h2.5v.24h-2.5z"/><path d="M1.27 7.43v4.08H2.7v3.09h.49v-1.53h3.29v1.53H7v-3.08h1.36V7.43H1.27zm5.21 5.15H3.19v-1.06h3.29v1.07zM7.87 11H1.76V7.92h6.11V11z"/></symbol><symbol id="icons_sketch" viewBox="0 0 16 16"><title>icons</title><path d="M12.12 1.38c-.49 0-2.2 1.71-2.2 1.71l-7.2 7.2a.35.35 0 0 0-.06.09L1.4 14.15a.35.35 0 0 0 .33.46h.11l3.72-1.24.09-.06 7.2-7.2.74-.74a2.74 2.74 0 0 0 1-1.57 5.18 5.18 0 0 0-2.47-2.42zm-1.45 1.91l.51.51L4 10.94l-.51-.51zM4.29 11.2l7.14-7.14.51.51-7.14 7.14zM2.54 13l.46.46-.67.23zm.83.32l-.7-.7.51-1.52 1.72 1.72zm2.2-.86L5.06 12l7.14-7.18.51.51zm7.33-7.38l-2-2a3.75 3.75 0 0 1 1.24-1 3.89 3.89 0 0 1 1.76 1.67 4 4 0 0 1-1 1.33z"/></symbol><symbol id="icons_tee" viewBox="0 0 16 16"><title>icons</title><path d="M9.82 14H6.09a1.8 1.8 0 0 1-1.82-1.82V7.55a1.84 1.84 0 0 1-2-.31l-.42-.46a1.72 1.72 0 0 1-.55-1.26 1.79 1.79 0 0 1 .49-1.29A19.52 19.52 0 0 1 4 2.38 3.65 3.65 0 0 1 5.63 2h.43a.35.35 0 0 1 .25.09.38.38 0 0 1 .12.25 1.48 1.48 0 0 0 3 0 .28.28 0 0 1 .12-.25.35.35 0 0 1 .24-.09h.06a2.33 2.33 0 0 0 .46 0 3.65 3.65 0 0 1 1.6.34 19.55 19.55 0 0 1 2.21 1.86 1.81 1.81 0 0 1-.06 2.58l-.4.43a1.77 1.77 0 0 1-1.26.49 2.14 2.14 0 0 1-.77-.15v4.62A1.82 1.82 0 0 1 9.82 14zM4.59 5.92a.34.34 0 0 1 .34.34v5.94a1.14 1.14 0 0 0 1.14 1.14h3.72a1.14 1.14 0 0 0 1.14-1.14v-6a.34.34 0 0 1 .34-.34.34.34 0 0 1 .34.34v.58a1.17 1.17 0 0 0 1.54 0l.4-.43a1.14 1.14 0 0 0 .06-1.63A20.44 20.44 0 0 0 11.54 3a3.34 3.34 0 0 0-1.29-.25h-.19A2.12 2.12 0 0 1 8 4.51a2.14 2.14 0 0 1-2.12-1.76h-.19A3.71 3.71 0 0 0 4.31 3a21.26 21.26 0 0 0-2.09 1.72 1.07 1.07 0 0 0-.28.8 1.15 1.15 0 0 0 .37.8l.43.46a1.09 1.09 0 0 0 .77.31 1.18 1.18 0 0 0 .77-.28v-.55a.3.3 0 0 1 .31-.34z"/><circle cx="9.22" cy="6.48" r=".91"/></symbol><symbol id="icons_vector" viewBox="0 0 16 16"><title>icons</title><path d="M13.6 10.12s-.3-3.42-3.06-4.83h2.31a.77.77 0 0 0 .72.47.78.78 0 0 0 0-1.57.77.77 0 0 0-.72.47H9.49V3.42H6.42v1.24H3a.77.77 0 0 0-.72-.47.78.78 0 1 0 0 1.57.77.77 0 0 0 .72-.49h2.09c-2.7 1.42-2.86 4.8-2.87 4.84h-.93v2.45h2.45v-2.44h-.89c0-.25.22-3.89 3.57-4.69v1.08h3.07v-1c3.1.92 3.45 4.32 3.48 4.62h-.8v2.45h2.45v-2.46h-1zM8.87 5.88H7V4h1.87v1.88z"/></symbol></svg>