<svg xmlns="http://www.w3.org/2000/svg" width="147.121" height="150" viewBox="1.368 -5.697 147.121 150"><path d="M122.994 49.765c-1.36-2.082-2.79-2.415-5.21-1.796-4.712 1.2-15.85 3.006-17.91 3.35.216-3.83-.727-5.62-4.028-4.713-3.3.903-4.578 3.136-4.894 6.728-2.706.98-7.907 1.937-11.062 2.81.798-3.16 1.86-31.497.042-38.19-.3-3.146-9.3-1.397-11.022.74-2.524 3.144-19.19 29.89-25.083 41.58C41.64 64.62 28.31 90.913 26.98 93.128c-1.59 2.647-1.17 3.162 1.43 4 5.172 1.765 7.87-1.796 15.157-11.22 3.538-4.575 6.37-7.527 9.557-10.865 0 0 15.886-4.27 15.947-3.716.31 2.643-.152 7.44-.19 10.088-.07 4.876-.4 10.71-1.496 17.644-.64 4.013-.75 8.106-1.098 12.163-.153 1.8-.32 3.177 2.238 4.41 1.37.752 2.572-3.34 4.205-6.002 1.78-2.91 4.107-6.165 4.89-19.52.45-7.67.715-14.255 1.116-21.9 1.806-1.042 9.978-3.562 12.06-4.46-.025 3.895.103 7.176-.106 10.438-.58 9.09-1.318 18.17-1.94 27.26-.42 6.095-.61 12.21-1.19 18.295-.21 2.18.38 3.618 2.066 5.17 5.732-4.83 23.356-37.94 25.416-41.833 3.333-6.306 11.01-22.095 13.14-26.46-1.82-2.377-3.66-4.514-5.19-6.858zM98.928 89.97c-.104-1.04-.548-26.848.403-28.882l14.11-4.998c-.86 6.854-11.65 28.396-14.51 33.88z"/><path d="M85.925-4.833l1.276.163 1.27.218c.84.152 1.687.277 2.523.454 1.668.38 3.34.722 4.984 1.214C82.03-6.902 66.527-6.68 52.34-1.94a77.094 77.094 0 0 0-10.353 4.328 79.462 79.462 0 0 0-9.6 5.864 80.03 80.03 0 0 0-8.603 7.265c-2.68 2.633-5.122 5.493-7.393 8.47-2.24 3.006-4.233 6.17-6.032 9.44-1.735 3.302-3.28 6.7-4.552 10.194A79.6 79.6 0 0 0 2.83 54.33c-.696 3.628-1.18 7.285-1.36 10.947-.766 14.66 2.887 29.167 9.787 41.348.384.79.954 1.728 1.552 2.775.582 1.058 1.31 2.156 2.026 3.265 1.442 2.21 3.027 4.332 4.148 5.695 1.112 1.37 2.377 2.64 3.614 3.966 1.312 1.25 2.6 2.565 4.033 3.753 1.384 1.24 2.88 2.38 4.38 3.536.757.57 1.55 1.094 2.33 1.645l1.18.814 1.224.76c3.237 2.076 6.714 3.866 10.316 5.425 3.597 1.576 7.362 2.83 11.192 3.787 7.654 1.966 15.604 2.592 23.218 2.108a79.674 79.674 0 0 0 11.123-1.566 80.55 80.55 0 0 0 10.28-3.018c6.514-2.45 11.674-5.756 15.046-8.41.864-.638 1.585-1.29 2.23-1.84.633-.558 1.19-1.015 1.606-1.437l1.29-1.285a23.268 23.268 0 0 0 2.923-3.104c.51-.695.376-.835-.98.153a73.49 73.49 0 0 1-5.14 3.94c-1.04.7-2.098 1.464-3.225 2.125l-1.662 1.018c-.554.33-1.124.622-1.67.926-4.4 2.397-8.335 3.81-8.427 3.564-.02-.052.728-.404 1.852-.927.56-.267 1.227-.54 1.92-.89.693-.35 1.433-.72 2.173-1.09-.114-.226 1.9-1.722 4.154-3.502.564-.445 1.148-.902 1.724-1.354a952.74 952.74 0 0 1 1.65-1.377c1.077-.847 1.973-1.67 2.62-2.158.617-.525 1.95-1.774 3.62-3.383.797-.845 1.716-1.742 2.61-2.746.876-1.023 1.842-2.045 2.688-3.167l1.302-1.646c.402-.563.802-1.12 1.192-1.664.796-1.074 1.47-2.156 2.082-3.128a36.067 36.067 0 0 0 1.53-2.583c.398-.73.71-1.294.9-1.646 1.15-2.116.986-2.215-.018-1.004-1.016 1.207-2.833 3.645-5.285 6.433-2.436 2.797-5.58 5.84-8.84 8.466-3.25 2.637-6.624 4.83-9.246 6.38-2.655 1.51-2.765 1.307-2.187.797.55-.556 1.73-1.513 1.62-1.68-.633.404-1.228.78-1.79 1.14-.58.335-1.14.63-1.676.92-1.062.598-2.096 1.05-3.12 1.513-2.05.926-4.147 1.724-6.942 2.79-.006-.016-.28.053-.768.193-.488.142-1.19.35-2.064.606l-3.103.775c-.59.12-1.21.25-1.854.38l-.98.205-1.02.16c-2.75.505-5.815.74-8.73.867-1.46.025-2.89.062-4.227-.01-1.34-.017-2.585-.14-3.694-.224 0 0-.746.006-2.586-.215-.458-.054-.99-.097-1.593-.185-.6-.1-1.272-.212-2.026-.335-.756-.108-1.578-.307-2.487-.512-.455-.102-.93-.21-1.427-.32-.49-.14-1-.283-1.536-.435l-1.655-.444c-.4-.118-.67-.186-.855-.218-.37-.067-.39.003-.413.072l.09-.28c-1.46-.31-3.55-1.095-5.576-2.01-2.036-.897-3.983-1.974-5.325-2.61l.145-.266c-5.3-2.636-9.93-6.416-14.17-10.462.11-.112.11-.112.22-.227-2.1-2.05-3.955-4.305-3.824-4.414l.244-.21c-.885-1.15-2.228-2.86-3.282-4.33a66.816 66.816 0 0 1-1.29-1.91c-.296-.51-.442-.847-.375-.89l-.275.176-1.112-1.832-.986-1.833c-.16-.3-.322-.597-.48-.894l-.432-.906-.845-1.773c-1.01-2.375-1.906-4.652-2.562-6.91A61.483 61.483 0 0 1 15.05 75.41c-.172-2.87-.25-5.83-.053-8.847.21-3.014.565-6.084 1.18-9.164a72.007 72.007 0 0 1 2.565-9.2c1.093-3.04 2.45-6.02 4.004-8.926 1.544-2.916 3.388-5.692 5.377-8.35.52-.65.992-1.336 1.54-1.962l1.615-1.9c1.137-1.21 2.25-2.45 3.466-3.58 4.773-4.623 10.3-8.4 16.104-11.24 2.588-1.222 5.2-2.517 2.37-1.798 2.683-1.114 5.46-2.02 8.26-2.793 1.415-.332 2.293-.573 2.903-.77.62-.163.966-.29 1.314-.42.694-.26 1.388-.555 4.3-.935 11.65-1.618 23.804.172 34.605 5.15 10.833 4.953 20.23 13.03 26.772 23.048 6.57 10.002 10.27 21.917 10.51 33.937.3 12.027-2.89 24.075-8.982 34.5 3.1-5.183 5.265-10.05 6.825-15.105.722-2.543 1.395-5.11 1.798-7.823.47-2.7.7-5.536.757-8.556.12.003.424.013.4-3.03a63.994 63.994 0 0 0-1.756-13.88 65.986 65.986 0 0 0-4.544-12.92c-3.727-7.924-8.582-13.85-11.528-17.314a67.75 67.75 0 0 0-3.594-3.956c-1.648-1.588-3.91-3.69-7.764-6.22 2.55 1.713 5.054 3.498 7.343 5.546.1-.11.294-.333.294-.333-4.592-4.13-10.44-8.057-16.776-10.95C98.024 4.7 91.228 2.86 85.08 2.082l.06-.483-.97-.106c-.583-.067-1.357-.16-2.138-.19-.777-.05-1.556-.097-2.14-.132-.585-.027-.976-.022-.976-.022-.77-.15-.917-.275-.54-.376.372-.096 1.274-.202 2.58-.174 2.613-.04 6.87.32 11.705 1.38 4.84 1.045 10.2 2.95 15.04 5.356a70.51 70.51 0 0 1 12.27 7.753l.373-.466-.787-.62c-.48-.363-1.09-.884-1.758-1.33-.655-.463-1.31-.926-1.803-1.272-.487-.354-.83-.563-.83-.563l.167-.254c8.055 5.344 14.358 11.813 19.305 19.143 4.923 7.347 8.538 15.615 10.5 25.08-.178-.787-.4-1.77-.646-2.848-.27-1.075-.61-2.233-.927-3.4-.377-1.147-.753-2.294-1.1-3.346-.394-1.034-.754-1.974-1.042-2.725.13-.05.284-.113-1.025-3.067 1.358 2.935 2.54 6.166 3.547 9.553 1.016 3.386 1.717 6.964 2.207 10.56.263 1.8.385 3.612.526 5.41.065 1.803.146 3.593.092 5.36-.064 3.53-.332 6.964-.845 10.158-.197 1.606-.07 1.635.32.054.19-.794.493-1.98.71-3.598.266-1.61.477-3.64.598-6.086a71.96 71.96 0 0 0-.79-13.028c-.62-4.038-1.567-8.032-3.164-12.672l.258-.09c1.083 3.1 2.148 7.073 2.84 11.11.7 4.04 1.068 8.127 1.15 11.408.114 1.64.166 0 .217-1.65.04-.827.034-1.652.04-2.067.014-.417.055-.42.15.4.074.824.063 1.653.1 2.48.03.825.063 1.652.04 2.48l-.01 2.48c-.03.83-.06 1.656-.092 2.485.395-4.954.245-10.782-.65-16.505-.903-5.724-2.514-11.314-4.3-15.955-.266-.787-.586-1.55-.855-2.282-.276-.728-.52-1.415-.77-1.988-.474-1.157-.75-1.954-.627-2.017a81.954 81.954 0 0 0-13.064-18.33A93.533 93.533 0 0 0 114.646 5.46c-.35-.244-.885-.59-1.575-1.016-.695-.42-1.522-.96-2.522-1.462a64.316 64.316 0 0 0-7.258-3.366l-2.128-.82-2.21-.73c-1.477-.525-3.018-.875-4.51-1.305-1.51-.343-2.993-.704-4.428-.96-1.444-.234-2.81-.51-4.087-.64z"/></svg>