<?xml version="1.0" encoding="utf-8"?>
<!-- Generator: Adobe Illustrator 16.0.0, SVG Export Plug-In . SVG Version: 6.00 Build 0)  -->
<!DOCTYPE svg PUBLIC "-//W3C//DTD SVG 1.1//EN" "http://www.w3.org/Graphics/SVG/1.1/DTD/svg11.dtd">
<svg version="1.1" id="Layer_1" xmlns="http://www.w3.org/2000/svg" xmlns:xlink="http://www.w3.org/1999/xlink" x="0px" y="0px"
	 width="150px" height="150px" viewBox="0 0 150 150" enable-background="new 0 0 150 150" xml:space="preserve">
<path fill-rule="evenodd" clip-rule="evenodd" d="M138.33,46.271c-1.877-2.874-3.849-3.333-7.193-2.479
	c-6.502,1.656-21.877,4.154-24.72,4.63c0.297-5.289-1.004-7.758-5.562-6.507c-4.555,1.249-6.319,4.331-6.755,9.289
	c-3.735,1.352-10.915,2.674-15.269,3.877c1.101-4.362,2.565-43.476,0.055-52.716C78.471-1.975,66.05,0.438,63.674,3.389
	C60.188,7.727,37.181,44.648,29.05,60.782c-3.018,5.994-21.415,42.288-23.254,45.347c-2.195,3.651-1.614,4.364,1.974,5.519
	c7.14,2.435,10.862-2.48,20.922-15.487c4.884-6.317,8.793-10.392,13.193-14.999c0,0,21.927-5.896,22.011-5.129
	c0.427,3.649-0.214,10.269-0.264,13.925c-0.095,6.731-0.551,14.785-2.066,24.356c-0.884,5.543-1.035,11.194-1.516,16.794
	c-0.211,2.485-0.442,4.384,3.088,6.088c1.891,1.039,3.551-4.61,5.805-8.287c2.459-4.017,5.67-8.509,6.753-26.942
	c0.624-10.59,0.988-19.68,1.54-30.233c2.493-1.44,13.773-4.917,16.649-6.156c-0.038,5.375,0.138,9.904-0.148,14.406
	c-0.797,12.55-1.818,25.081-2.677,37.627c-0.579,8.417-0.841,16.859-1.644,25.256c-0.288,3.01,0.527,4.995,2.853,7.134
	c7.914-6.665,32.242-52.369,35.084-57.742c4.602-8.705,15.2-30.498,18.139-36.524C142.983,52.457,140.442,49.507,138.33,46.271z
	 M105.111,101.77c-0.142-1.439-0.756-37.061,0.558-39.868c6.123-2.17,12.5-4.428,19.472-6.899
	C123.952,64.464,109.059,94.199,105.111,101.77z"/>
</svg>
