<?xml version="1.0" encoding="utf-8"?>
<!-- Generator: Adobe Illustrator 16.0.0, SVG Export Plug-In . SVG Version: 6.00 Build 0)  -->
<!DOCTYPE svg PUBLIC "-//W3C//DTD SVG 1.1//EN" "http://www.w3.org/Graphics/SVG/1.1/DTD/svg11.dtd">
<svg version="1.1" id="Layer_1" xmlns="http://www.w3.org/2000/svg" xmlns:xlink="http://www.w3.org/1999/xlink" x="0px" y="0px"
	 width="147.121px" height="150px" viewBox="1.368 -5.697 147.121 150" enable-background="new 1.368 -5.697 147.121 150"
	 xml:space="preserve">
<g>
	<path d="M122.994,49.765c-1.36-2.082-2.789-2.415-5.211-1.796c-4.711,1.2-15.849,3.009-17.909,3.354
		c0.216-3.832-0.727-5.62-4.028-4.714c-3.301,0.904-4.578,3.137-4.894,6.729c-2.706,0.98-7.907,1.937-11.062,2.809
		c0.798-3.16,1.859-31.496,0.042-38.19c-0.301-3.145-9.301-1.396-11.022,0.742c-2.524,3.143-19.191,29.89-25.083,41.579
		C41.639,64.62,28.311,90.913,26.98,93.129c-1.59,2.646-1.169,3.161,1.43,4c5.172,1.764,7.869-1.797,15.157-11.22
		c3.538-4.576,6.37-7.528,9.557-10.866c0,0,15.886-4.271,15.947-3.716c0.309,2.643-0.155,7.439-0.192,10.088
		c-0.069,4.876-0.399,10.711-1.497,17.644c-0.64,4.016-0.75,8.109-1.098,12.166c-0.153,1.8-0.32,3.177,2.238,4.41
		c1.37,0.752,2.572-3.34,4.205-6.002c1.782-2.911,4.108-6.166,4.892-19.519c0.452-7.672,0.715-14.257,1.116-21.902
		c1.806-1.042,9.978-3.562,12.061-4.459c-0.026,3.894,0.102,7.175-0.107,10.437c-0.577,9.092-1.316,18.169-1.938,27.259
		c-0.42,6.097-0.61,12.213-1.192,18.297c-0.208,2.18,0.382,3.618,2.068,5.169c5.732-4.83,23.356-37.939,25.416-41.832
		c3.333-6.306,11.01-22.095,13.141-26.46C126.364,54.246,124.523,52.109,122.994,49.765z M98.928,89.971
		c-0.104-1.042-0.548-26.849,0.403-28.883c4.437-1.572,9.056-3.208,14.107-4.998C112.577,62.944,101.789,84.486,98.928,89.971z"/>
	<g>
		<g>
			<path d="M85.925-4.833l1.276,0.163l1.266,0.218c0.842,0.152,1.688,0.277,2.524,0.454c1.667,0.379,3.34,0.722,4.983,1.214
				c-13.945-4.118-29.45-3.897-43.637,0.844c-3.541,1.192-7.009,2.628-10.352,4.328c-3.329,1.725-6.542,3.681-9.601,5.864
				c-3.038,2.211-5.905,4.65-8.602,7.265c-2.68,2.633-5.122,5.493-7.393,8.471c-2.238,3.005-4.234,6.17-6.033,9.438
				c-1.735,3.303-3.28,6.7-4.552,10.195c-1.234,3.507-2.246,7.083-2.976,10.705c-0.695,3.628-1.178,7.285-1.361,10.947
				c-0.764,14.661,2.889,29.167,9.789,41.348c0.384,0.79,0.954,1.727,1.552,2.774c0.584,1.058,1.311,2.156,2.028,3.265
				c1.442,2.21,3.027,4.332,4.148,5.695c1.112,1.37,2.377,2.639,3.614,3.966c1.313,1.249,2.602,2.564,4.034,3.752
				c1.383,1.241,2.878,2.38,4.379,3.536c0.757,0.57,1.55,1.095,2.331,1.646l1.181,0.814l1.222,0.762
				c3.237,2.074,6.714,3.864,10.316,5.423c3.596,1.576,7.361,2.829,11.191,3.787c7.654,1.965,15.604,2.591,23.218,2.107
				c3.808-0.267,7.533-0.796,11.123-1.566c3.58-0.805,7.024-1.813,10.279-3.018c6.515-2.45,11.675-5.756,15.047-8.41
				c0.865-0.638,1.586-1.291,2.229-1.839c0.635-0.559,1.192-1.016,1.608-1.438c0.831-0.828,1.29-1.285,1.29-1.285
				c1.287-1.117,2.399-2.426,2.923-3.104c0.511-0.696,0.378-0.836-0.978,0.152c-1.276,1.082-3.089,2.5-5.141,3.939
				c-1.038,0.702-2.097,1.465-3.224,2.126c-0.556,0.34-1.112,0.681-1.662,1.018c-0.554,0.33-1.124,0.622-1.671,0.926
				c-4.4,2.397-8.334,3.812-8.426,3.564c-0.021-0.052,0.728-0.404,1.852-0.927c0.561-0.266,1.229-0.54,1.923-0.888
				c0.692-0.348,1.432-0.719,2.172-1.09c-0.115-0.226,1.899-1.722,4.153-3.502c0.564-0.445,1.148-0.902,1.724-1.354
				c0.564-0.472,1.122-0.938,1.649-1.377c1.077-0.847,1.973-1.671,2.619-2.158c0.618-0.524,1.951-1.773,3.621-3.382
				c0.797-0.845,1.716-1.742,2.61-2.746c0.876-1.023,1.842-2.045,2.688-3.167c0.435-0.55,0.869-1.101,1.302-1.646
				c0.402-0.563,0.802-1.12,1.192-1.664c0.796-1.074,1.47-2.156,2.082-3.128c0.632-0.957,1.127-1.852,1.529-2.583
				c0.399-0.73,0.71-1.296,0.901-1.648c1.151-2.116,0.986-2.215-0.018-1.004c-1.016,1.208-2.833,3.646-5.285,6.434
				c-2.437,2.797-5.583,5.84-8.841,8.466c-3.252,2.638-6.624,4.833-9.246,6.382c-2.655,1.51-2.765,1.306-2.187,0.796
				c0.551-0.556,1.729-1.513,1.62-1.679c-0.633,0.403-1.228,0.78-1.791,1.139c-0.578,0.335-1.14,0.629-1.675,0.921
				c-1.064,0.597-2.098,1.049-3.122,1.512c-2.05,0.927-4.147,1.725-6.942,2.791c-0.005-0.016-0.278,0.053-0.767,0.193
				c-0.488,0.142-1.191,0.351-2.064,0.606c-0.882,0.222-1.933,0.484-3.103,0.777c-0.589,0.121-1.21,0.249-1.854,0.38
				c-0.321,0.067-0.648,0.136-0.98,0.205c-0.335,0.053-0.676,0.107-1.021,0.161c-2.748,0.503-5.813,0.738-8.73,0.865
				c-1.461,0.025-2.887,0.062-4.225-0.011c-1.339-0.016-2.585-0.139-3.694-0.223c0-0.001-0.744,0.006-2.584-0.215
				c-0.458-0.053-0.991-0.096-1.593-0.184c-0.599-0.1-1.273-0.212-2.027-0.335c-0.756-0.108-1.578-0.307-2.487-0.512
				c-0.455-0.102-0.93-0.21-1.427-0.321c-0.491-0.139-1.003-0.282-1.538-0.434c-0.715-0.192-1.251-0.337-1.655-0.446
				c-0.399-0.118-0.669-0.186-0.853-0.218c-0.369-0.066-0.391,0.004-0.413,0.073c0.044-0.14,0.044-0.14,0.089-0.28
				c-1.458-0.31-3.548-1.094-5.575-2.009c-2.036-0.897-3.983-1.974-5.325-2.611c0.071-0.132,0.071-0.132,0.143-0.265
				c-5.301-2.636-9.93-6.416-14.169-10.462c0.109-0.112,0.109-0.112,0.219-0.227c-2.099-2.051-3.955-4.305-3.824-4.414
				c0.122-0.105,0.122-0.105,0.243-0.209c-0.885-1.153-2.228-2.861-3.282-4.334c-0.514-0.744-0.975-1.416-1.29-1.912
				c-0.297-0.509-0.443-0.845-0.376-0.889c-0.138,0.09-0.138,0.09-0.275,0.177c-0.377-0.621-0.747-1.231-1.112-1.832
				c-0.333-0.621-0.663-1.231-0.987-1.833c-0.162-0.3-0.323-0.598-0.482-0.895c-0.145-0.304-0.288-0.606-0.431-0.906
				c-0.285-0.599-0.566-1.189-0.845-1.773c-1.011-2.375-1.906-4.652-2.562-6.91c-1.369-4.498-2.143-8.781-2.493-13.078
				c-0.172-2.869-0.25-5.829-0.053-8.847c0.209-3.014,0.565-6.084,1.179-9.164c0.637-3.074,1.498-6.149,2.566-9.196
				c1.093-3.04,2.451-6.021,4.004-8.927c1.544-2.916,3.388-5.692,5.377-8.35c0.518-0.649,0.991-1.336,1.538-1.962l1.616-1.901
				c1.137-1.21,2.25-2.448,3.466-3.58c4.772-4.622,10.298-8.4,16.103-11.24c2.588-1.221,5.199-2.516,2.369-1.797
				c2.684-1.114,5.46-2.021,8.261-2.793c1.415-0.333,2.293-0.574,2.903-0.769c0.617-0.165,0.964-0.292,1.312-0.422
				c0.695-0.259,1.389-0.555,4.302-0.935c11.649-1.618,23.803,0.172,34.604,5.151c10.834,4.952,20.231,13.028,26.773,23.047
				c6.57,10.002,10.27,21.917,10.51,33.937c0.3,12.026-2.889,24.074-8.983,34.499c3.1-5.183,5.265-10.049,6.825-15.105
				c0.722-2.543,1.395-5.11,1.798-7.823c0.469-2.701,0.701-5.536,0.756-8.556c0.119,0.003,0.424,0.013,0.401-3.031
				c-0.064-4.562-0.661-9.306-1.757-13.879c-1.085-4.578-2.677-8.977-4.545-12.919c-3.727-7.925-8.582-13.852-11.528-17.315
				c-0.982-1.166-1.99-2.312-3.594-3.956c-1.649-1.588-3.912-3.689-7.765-6.219c2.549,1.712,5.054,3.497,7.343,5.545
				c0.1-0.111,0.295-0.333,0.295-0.333c-4.593-4.129-10.439-8.055-16.777-10.949c-6.329-2.917-13.126-4.76-19.275-5.536
				c0,0,0.04-0.322,0.059-0.483c0,0-0.388-0.043-0.969-0.107c-0.582-0.067-1.356-0.159-2.137-0.191
				c-0.777-0.048-1.556-0.096-2.141-0.131c-0.584-0.027-0.975-0.022-0.975-0.022C78.141,1,77.993,0.875,78.37,0.774
				c0.376-0.096,1.277-0.202,2.583-0.173c2.614-0.04,6.87,0.318,11.706,1.38c4.839,1.043,10.199,2.947,15.039,5.354
				c4.853,2.391,9.159,5.288,12.27,7.753c0.094-0.115,0.28-0.348,0.373-0.464c0,0-0.315-0.248-0.788-0.619
				c-0.48-0.364-1.091-0.885-1.758-1.332c-0.655-0.462-1.311-0.925-1.803-1.271c-0.487-0.354-0.829-0.563-0.829-0.563l0.166-0.252
				c8.055,5.344,14.358,11.813,19.305,19.143c4.923,7.348,8.538,15.616,10.5,25.081c-0.178-0.787-0.401-1.769-0.646-2.848
				c-0.268-1.075-0.61-2.233-0.927-3.399c-0.378-1.148-0.754-2.295-1.1-3.347c-0.395-1.034-0.755-1.974-1.043-2.725
				c0.128-0.052,0.283-0.114-1.026-3.068c1.358,2.935,2.54,6.166,3.547,9.553c1.016,3.386,1.717,6.964,2.207,10.561
				c0.264,1.798,0.386,3.611,0.527,5.41c0.065,1.802,0.146,3.592,0.092,5.359c-0.064,3.53-0.332,6.964-0.845,10.158
				c-0.198,1.606-0.071,1.635,0.321,0.054c0.189-0.792,0.491-1.98,0.709-3.596c0.265-1.609,0.476-3.64,0.597-6.086
				c0.137-4.902-0.189-8.991-0.79-13.028c-0.621-4.037-1.568-8.031-3.165-12.671l0.258-0.091c1.082,3.101,2.147,7.074,2.841,11.112
				c0.697,4.038,1.066,8.126,1.148,11.407c0.114,1.639,0.166,0,0.217-1.651c0.038-0.826,0.033-1.651,0.039-2.066
				c0.014-0.416,0.055-0.42,0.151,0.401c0.073,0.824,0.062,1.653,0.1,2.479c0.028,0.826,0.062,1.653,0.04,2.481l-0.01,2.481
				c-0.031,0.828-0.062,1.655-0.093,2.484c0.395-4.954,0.245-10.782-0.649-16.505c-0.904-5.724-2.515-11.314-4.301-15.955
				c-0.266-0.787-0.586-1.55-0.855-2.282c-0.275-0.728-0.521-1.415-0.771-1.988c-0.472-1.157-0.748-1.954-0.625-2.017
				c-3.868-7.405-8.459-13.448-13.064-18.33c-4.629-4.87-9.218-8.653-13.375-11.632c-0.349-0.245-0.885-0.591-1.575-1.017
				c-0.695-0.418-1.522-0.959-2.522-1.461c-1.969-1.063-4.467-2.286-7.258-3.366c-0.698-0.269-1.408-0.543-2.127-0.819
				c-0.731-0.243-1.47-0.487-2.212-0.732c-1.476-0.524-3.017-0.874-4.508-1.304c-1.511-0.344-2.994-0.705-4.429-0.959
				C88.568-4.428,87.203-4.704,85.925-4.833z"/>
		</g>
	</g>
</g>
</svg>
