<?xml version="1.0" encoding="utf-8"?>
<!-- Generator: Adobe Illustrator 16.0.0, SVG Export Plug-In . SVG Version: 6.00 Build 0)  -->
<!DOCTYPE svg PUBLIC "-//W3C//DTD SVG 1.1//EN" "http://www.w3.org/Graphics/SVG/1.1/DTD/svg11.dtd">
<svg version="1.1" id="Layer_1" xmlns="http://www.w3.org/2000/svg" xmlns:xlink="http://www.w3.org/1999/xlink" x="0px" y="0px"
	 width="348.691px" height="128.48px" viewBox="0 0 348.691 128.48" enable-background="new 0 0 348.691 128.48"
	 xml:space="preserve">
<g>
	<path d="M41.358,111.147c-0.921,0.048-2.8,0.896-3.457-0.143C39.024,111.656,40.312,110.612,41.358,111.147z"/>
	<path d="M38.89,90.138c-1.15,1.291-3.206-0.158-4.672,0.686c-0.211-1.074,2.15-0.13,2.572-0.988c0.35,0.084,0.614,0.287,0.891,0.47
		C38.089,90.231,38.468,89.517,38.89,90.138z"/>
	<path d="M24.819,86.919c0.034,0.578-0.071,0.938-0.467,0.858c-0.112-0.199-0.151-0.5-0.129-0.889L24.819,86.919z"/>
	<path d="M18.973,94.378c-0.924,0.984-3.042,1.044-4.209,0.264c-0.156,0.136-0.169,0.504-0.461,0.419
		c-0.699,0.119-2.259-0.287-0.746-0.246C15.433,94.129,16.917,94.825,18.973,94.378z"/>
	<path d="M18.273,83.344c-0.227,0.331-0.594,0.438-1.057,0.396C17.329,83.205,18.1,83.104,18.273,83.344z"/>
	<path d="M17.154,87.037c-0.368,0.56-1.204,0.396-1.67,0.812C15.076,86.979,16.578,87.142,17.154,87.037z"/>
	<path d="M16.462,83.932c-0.296,0.673-1.169,0.456-1.818,0.583C15.033,83.979,15.871,84.147,16.462,83.932z"/>
	<path d="M14.346,84.504c-0.773,1.005-1.903,0.208-2.558,0.112C12.501,84.031,13.535,85.109,14.346,84.504z"/>
	<path d="M12.354,94.765c-0.293,0.373-0.792,0.435-1.214,0.61C11.056,94.416,11.849,94.812,12.354,94.765z"/>
	<path d="M14.292,87.36c-0.17,0.034-0.09,0.219,0,0.223c-0.048,0.514-0.665,0.099-0.753-0.033
		C13.72,86.932,15.706,87.288,14.292,87.36z"/>
	<path d="M3.13,89.763l0.014-0.882C2.181,88.924,0.645,89.123,0,88.309c1.139-0.616,3.552,0.917,4.365-0.475
		c0.195,0.229,0.55,0.233,0.743,0.469c2.652-1.378,5.526,0.114,8.28-0.761c-1.233,2.338-4.035-0.872-5.438,1.54
		c-0.232-0.128-0.005-0.231,0.155-0.214C6.887,88.894,4.698,88.359,3.13,89.763z"/>
	<path d="M303.723,124.62c0.178,0.074,0.301,0.212,0.363,0.438 M50.869,113.365c20.518-3.123,230.4-2.907,234.58,2.591
		c4.191,5.497,52.172,17.794,61.645-22.212c0.043-5.471,1.219-7.766,1.599-11.998c-1.066-2.503-0.832-5.402-1.658-7.77
		c-0.515-1.473-1.521-2.86-2.178-4.272c-0.748-1.611-1.546-2.854-2.173-4.49c0.011-1.652-0.95-1.963-1.139-3.349
		c-1.168-1.025-2.055-2.439-3.24-3.436c-0.117-0.555-0.397-0.884-0.426-1.558c-2.496-2.821-5.016-6.298-8.432-7.394
		c-0.308-0.096-0.965-0.282-1.347-0.273c-2.534,0.049-6.438-0.533-7.766-2.74c-0.459-0.18-0.449,0.36-0.904,0.181
		c-0.289-1.054-1.635-3.036-2.801-2.977c-0.402,0.02-1.104,1.428-1.986,1.677c-1.312,0.375-2.553-1.537-3.735-1.254
		c-0.541,0.131-1.113,1.403-1.685,1.689c-1.477,0.753-4.467,0.214-5.7-0.232c-0.978-0.355-3.26,0.147-3.193,1.849
		c-1.92,3.718-6.857,0.828-9.812,2.451c-2.17-1.336-4.246,0.871-6.321,0.621c-0.419-0.05-0.916-0.508-1.345-0.496
		c-0.709,0.021-1.658,0.731-2.571,0.996c-1.566,0.452-2.938,0.347-4.224,0.925c-1.992-2.195-3.449,0.328-5.117,0.227
		c-0.625-0.039-1.237-0.741-1.938-0.741c-0.594,0.003-1.16,0.636-1.813,0.585c-0.644-0.044-1.316-0.75-1.941-0.738
		c-0.463,0.008-0.832,0.438-1.207,0.391c-0.502-0.062-0.814-0.592-1.344-0.495c-0.555,0.1-1.113,0.935-1.672,1.031
		c-2.047,0.345-4.254-0.565-6.185,1.062c-3.485-1.382-16.334,7.179-10.055,17.311c-4.379,0.347-10.437-1.877-12.836-0.609
		c-1.861-1.107-4.025,0.151-6.316,0.178c-1.075,0.015-2.139-0.588-3.151-0.352c-1.976,0.474-4.56-0.11-6.461,0.174
		c-0.564,0.089-1.117,0.715-1.67,0.812c-1.004,0.186-2.078-0.45-3.152-0.131c-4.125,1.237-8.865,0.365-12.48,0.366
		c-1.115,0-2.072,0.709-3.32,0.96c-29.004-1.004-31.27-3.932-35.767-3.706c-1.008,1.196-1.97,0.163-3.008,0.311
		c-3.212,0.471-7.389,3.59-10.753,2.652c-14.147,2.093-27.905-2.299-41.903,0.075c-1.098-0.909-2.796-0.334-3.762,0.286
		c0.955,1.709-0.851-0.54-1.338-0.716c-1.757,1.458-3.685,1.609-5.897,1.96c-0.56,1.428-1.895,0.35-2.73,1.43
		c-0.356-0.784,0.481-0.672-0.131-1.106c-1.434,2.589-6.617-1.342-8.788-0.644c1.208,1.888-1.67-0.67-1.86-0.622
		c-0.714,3.243-2.072,1.195-5.448,0.975c-3.949,0.282-3.879,1.188-7.25,2.119c-0.42-0.368-1.55-1.471-1.942-0.52
		c0.609,0.153,1.379,0.082,1.33,1.157c-1.011-0.356-2.341,0.12-3.022,0.975c-1.251,0.092-1.303-3.021-2.418-2.229
		c-0.277-0.018,0.264,1.118-0.323,1.087c-1.754-0.568-8.888,1.077-10.457,0.528c-0.454,1.017-1.806,4.021-2.373,3.476
		c-0.512,0.438,0.565,0.853,0.129,1.105c-1.425,0.315-8.417-4.251-9.728-4.941c-0.328,0.479-0.542,1.125-1.077,1.275
		c-0.363,0.076,0.103-0.995-0.44-0.674c-0.502,0.572,0.395,1.012,0.271,1.766c-0.714,0.361-0.572,0.896-0.928,1.509
		c-0.995-0.608-1.674,0.625-2.577,0.993c-0.928,0.377-1.963-0.004-2.861,0.322c-0.768,0.271-1.098,1.031-1.972,1.016
		c-0.708-0.016-1.302-0.806-2.09-0.742c-0.416,0.178,0.278,0.815-0.317,0.863c-2.758,0.258-5.511,0.516-7.549,1.888
		c3.129-1.713,5.408,0.127,8.144-1.421c0.413,0.989,1.23-0.61,1.641,0.725c0.184-0.564-0.446-0.965,0.167-0.871
		c0.201,0.077,0.279,0.326,0.592,0.245c-0.384,1.178,0.194,1.177,0.419,1.998c2.325-0.062,4.154-0.605,6.17-0.627
		c0.374-0.274-0.26-0.671,0.166-0.871c0.77-0.193,1.354-0.024,2.262-0.345c0.27,0.871,0.88,1.304,0.553,2.44
		c-2.718-0.086-6.415,1.624-9.646,1.804c-0.986,0.053-1.999-0.841-2.568,0.552c1.451-0.423,2.625,1.118,3.885,1.258
		c1.633,0.188,3.379-1.195,4.977-0.891c0.448,0.086,0.637,0.484,1.039,0.48c0.318,0.003,0.855-0.651,1.215-0.604
		c0.393,0.04,0.412,0.516,0.746,0.468c0.681-0.099,1.208-0.826,1.965-0.8c1.265,0.047,2.506,0.875,3.899,0.602
		c0.252,0.395,0.141,1.368-0.177,1.532c-1.65-0.058-1.929-0.006-3.612,0.071c0.19,0.096,0.307,0.298,0.291,0.673
		c-0.521-0.065-0.703-0.34-1.056,0.178c1.25-0.042,1.136,1.662,0.708,2.451c-3.105-0.303-6.912,0.468-9.466-0.176
		c-0.281,0.469-0.464,1.092-0.923,1.287c-2.877,0.544-6.096-0.025-9.177,0.494c3.516,1.318,7.188,0.548,11.27,0.032
		c0.155,0.21,0.031,0.812,0.437,0.676c1.744-0.615,3.77-0.448,5.12-0.671l1.754,2.937c4.281-0.791,7.411,3.1,11.514,3.116
		c-0.021,0.674,0.299,0.863,0.42,1.339c-0.325,0.544-0.546,1.256-0.928,1.723c-0.67,0.042-1.361,0.396-1.955-0.081
		c-3.455,1.957-8.358,0.552-12.654,1.678c-0.525,1.091-0.114,1.935,0.248,2.872c2.072,0.639,3.96-0.896,6.151,0.475
		c0.787,2.6-0.036,4.403-1.733,4.552c-2.808,0.23-7.645-0.038-9.46-0.396c-8.232,1.521-16.397,0.869-24.833,2.054
		c4.686,0.508,9.023-0.866,13.22,0.107c-0.013-0.479,0.14-0.692,0.464-0.643c4.13,0.271,8.709,0.248,12.332-0.591
		c1.517,1.593,4.451-0.267,5.989,1.352C33.995,116.5,30.354,116.49,50.869,113.365z M41.781,79.915
		c0.028-0.253-0.026-0.389-0.141-0.442C41.961,78.414,42.668,79.963,41.781,79.915z M41.471,80.343
		c-1.249,0.091-3.006,1.075-3.912,0.28c-0.244-0.006,0.219,1.253-0.178,1.529c-0.536-0.546-1.166-0.954-2.084-0.968
		c-0.059-1.823,1.764-0.729,1.841-2.347c0.706,0.156,1.053,0.24,1.368-0.598c1.443,0.611,1.764-0.509,2.854,0.116
		C41.07,79.406,41.556,79.159,41.471,80.343z"/>
</g>
<g>
	<path fill="#FFFFFF" d="M75.462,82.204c1.102,0.269,1.659,1.259,1.58,2.441c0.154,0.123,0.215,0.278,0.218,0.436
		c0.008,0.652-1.02,1.534-2.176,1.795c-0.648-0.835,0.357-0.876,0.05-1.215c-3.078,0.028-4.625,0.667-7.254,2.622l0.005,0.467
		l1.288,0.921c1.319,0.921,2.604,1.345,3.528,2.363l0.334-0.223c0.894,0.957,1.424,2.134,1.372,2.943l-0.158,2.491l-0.518-0.119
		c-0.872,1.253-2.627,2.391-4.417,3.217c-0.948-0.396-1.463-0.234-1.426,0.605c-1.456,0.573-2.761,0.866-3.31,0.871
		c-0.426,0.005-1.161-0.485-1.901-1.194c-1.221-0.238-1.503-0.982-1.357-1.544c-0.401-0.557-0.681-1.082-0.684-1.425
		c-0.01-0.777,0.505-1.249,0.988-1.629c0.522,0.432,1.324,1.514,1.874,1.508c1.431-0.015,4.253-0.881,6.187-2.644l-0.005-0.312
		c-0.768-0.739-1.391-2.103-1.936-1.725c-0.834-1.111-1.206-1.574-1.748-1.166c-0.428-0.369-1.26-1.106-1.421-1.978
		c-0.193-0.994-0.572-2.145-0.547-2.797c0.156-2.555,5.063-5.152,8.933-5.189c0.763-0.008,1.768,0.016,2.53,0.102L75.462,82.204z
		 M67.515,100.393l-1.06,0.479l0.154,0.217l0.911-0.32L67.515,100.393z M70.115,86.395c-1.094,0.354-2.216,0.829-2.241,1.328
		l2.241-1.298V86.395z M76.059,86.835l0.758-0.536c0.002,0.372-0.089,0.404-0.48,0.751L76.059,86.835z"/>
	<path fill="#FFFFFF" d="M89.575,94.984c-0.208,0.459-0.117,1.646-0.666,2.189c0.374,0.213,0.168,0.889-0.171,1.216
		c0.163,0.402,0.27,0.698-0.277,1.458c-0.025,0.108,0.238-0.028,0.292-0.084c-0.044,0.919-0.25,1.647-0.505,2.46
		c-0.817,0.008-1.565-0.795-1.986-0.629c0.02-0.538-0.062-0.754-0.431-0.75l0.022-0.379c0.131-0.001,0.238-0.083,0.263-0.271
		c-0.134,0.002-0.24-0.078-0.24-0.268c0.047-0.621,0.354-1.406,0.502-2.216c0.186-0.002,0.191,0.349,0.168,0.753
		c0.186-0.001,0.463-1.109,0.51-1.73l-0.319-0.131c-0.02,0.432-0.015,1.023-0.332,0.894c0.074-0.378,0.144-1.322,0.22-1.648
		l0.453,0.563c-0.029-0.324,0.102-0.406,0.045-0.811c-1.505-0.04-5.469,2.184-6.648,3.029l-0.131,0.352l0.112,0.323
		c-0.441,0.948-0.825,2.058-1.241,2.628l-1.671-0.713c-0.089-0.835-1.228-1.174-0.943-1.878l-0.423,0.004
		c0.54-4.077,4.904-8.486,7.351-11.908c1.223-1.684,2.451-2.827,3.474-3.674c0.183-0.164,0.926,0.099,0.973-0.414
		c0.344,0.104,1.087,0.421,1.485,0.742l-0.473,0.166c-0.022,0.458,0.631-0.062,0.765,0.045c0.985,0.854,0.445,2.315,0.958,3.093
		c0.027,0.136-0.002,2.454-0.396,2.7c0.054,0.055,0.079,0.053,0.158,0.106c-0.151,0.596-0.354,1.379-0.398,2.134
		c-0.022,0.324,0.988,1.231,0.921,2.418C90.523,94.812,90.021,94.926,89.575,94.984z M81.227,97.221
		c-0.131,0.189-0.184,0.299-0.285,0.488l1.996-1.1C82.59,96.345,81.727,96.946,81.227,97.221z M82.351,96.077
		c-0.21,0.083-0.369,0.11-0.552,0.193l-0.312,0.462C81.59,96.679,82.197,96.456,82.351,96.077z M88.699,86.795
		c-0.503,0.031-1.704,1.554-2.823,3.102l-0.131-0.134c0.077-0.217,0.154-0.379,0.047-0.486c-0.418,0.49-0.599,0.733-0.356,1.244
		c-0.392,0.543-0.755,1.032-1.095,1.467c-0.468,0.625-1.171,1.791-1.768,2.688c0.525-0.33,0.914-0.899,1.966-1.367
		c0.921-0.413,1.473-0.526,2.421-0.806c0.072-0.701,0.332-1.217,0.433-1.595l0.453,0.399c0.307-0.84,0.654-3.026,0.934-4.243
		L88.699,86.795z M84.17,95.952v-0.027c-0.579,0.033-0.817,0.089-0.918,0.521C83.487,96.309,83.883,96.145,84.17,95.952z
		 M86.522,98.653l-0.102,0.353l0.158-0.001l0.102-0.435L86.522,98.653z M87.272,92.148c-0.102,0.324,0.084,0.322,0.27,0.293
		l0.022-0.297L87.272,92.148z M87.508,91.714l-0.106-0.025L87.3,91.985l0.237-0.002L87.508,91.714z M88.238,88.39L88,88.393
		l0.203-0.729l0.238-0.11L88.238,88.39z"/>
	<path fill="#FFFFFF" d="M111.481,84.176c0.159-0.109,0.342-0.084,0.372,0.051c-1.31,1.118-2.211,3.393-3.6,4.321
		c-1.084-0.124-0.78,1.222-1.255,1.253c-0.369,0.004-0.547,0.545-0.81,0.925c-2.028,2.986-5.793,6.661-8.663,9.926l-1.644-0.551
		c-0.458-0.805-1.23-1.553-1.268-2.658c-0.069-1.535,0.314-10.384,0.404-11.976c0.022-0.621-0.572-1.667,0.032-2.157
		c2.04,0.815,2.907,2.802,3.035,5.067c-0.307,0.92,0.255,1.614,0.183,2.397l-0.29,0.058c-0.124,0.837-0.299,1.675-0.53,2.459
		l0.436,1.182c2.587-2.452,4.699-5.115,6.782-8.021c1.112,0.043,0.81-1.005,2.156-0.884l1.018-1.143
		c0.208-0.245,0.607-0.195,0.716,0.047c-0.287,0.407-1.409,1.687-2.456,2.666c-0.104,0.109,0.054,0.188,0.265,0.106
		c0.996-0.847,2.64-2.644,2.979-3.13c0.344,0.022,0.654-0.708,1.131-0.31c-0.287,0.245-0.785,0.708-0.7,1.167
		c0.26-0.326,0.653-0.762,0.918-0.683l0.079,0.025c-0.391,0.461-1.042,1.357-1.458,2.062l0.186,0.053
		C109.966,85.836,110.697,84.857,111.481,84.176z M96.993,92.566c-0.025,0.218,0.057,0.432,0.243,0.431l0.047-0.434L96.993,92.566z
		 M97.144,91.784l-0.102,0.484l0.292,0.105C97.332,92.132,97.54,91.781,97.144,91.784z M105.007,91.222l0.161,0.322
		c0.443-0.489,0.414-0.812,0.228-0.919L105.007,91.222z M106.201,89.323c0.161,0.134,0.319,0.157,0.423,0.157
		c0.265-0.028,0.421-0.328,0.443-0.679L106.201,89.323z M107.996,89.306l-0.24-0.213c0.104-0.271,0.287-0.354,0.448-0.248
		L107.996,89.306z M109,86.762l-0.549,0.572c-0.314,0.164-0.206,0.567,0.136,0.294c0.366-0.299,0.599-0.68,0.676-0.842
		C109.107,86.868,109.025,86.707,109,86.762z M110.947,83.643c0.079-0.108,0.21-0.19,0.317-0.191
		c0.079-0.001,0.158,0.023,0.238,0.159c-0.129,0.081-0.26,0.19-0.522,0.49c-0.055-0.081-0.159-0.08-0.265-0.08
		C110.766,83.913,110.843,83.777,110.947,83.643z"/>
	<path fill="#FFFFFF" d="M120.568,94.686c-0.208,0.461-0.116,1.646-0.666,2.191c0.374,0.212,0.168,0.888-0.171,1.216
		c0.164,0.402,0.27,0.698-0.277,1.458c-0.025,0.107,0.237-0.028,0.292-0.084c-0.044,0.918-0.25,1.647-0.505,2.46
		c-0.817,0.007-1.564-0.795-1.985-0.629c0.02-0.54-0.062-0.754-0.431-0.752l0.022-0.377c0.131-0.002,0.238-0.083,0.263-0.271
		c-0.134,0.001-0.24-0.079-0.24-0.269c0.047-0.62,0.354-1.405,0.502-2.216c0.186-0.001,0.191,0.349,0.168,0.754
		c0.186-0.001,0.463-1.11,0.51-1.73l-0.319-0.132c-0.02,0.431-0.015,1.024-0.332,0.894c0.074-0.378,0.144-1.323,0.22-1.647
		l0.453,0.562c-0.03-0.322,0.102-0.404,0.044-0.81c-1.505-0.039-5.466,2.184-6.647,3.03l-0.129,0.352l0.109,0.323
		c-0.438,0.948-0.824,2.057-1.24,2.628l-1.671-0.713c-0.086-0.835-1.226-1.174-0.943-1.878l-0.421,0.003
		c0.538-4.076,4.902-8.487,7.349-11.907c1.226-1.684,2.451-2.829,3.474-3.674c0.183-0.164,0.926,0.099,0.973-0.414
		c0.344,0.104,1.087,0.421,1.485,0.74l-0.473,0.167c-0.022,0.458,0.631-0.062,0.765,0.046c0.985,0.854,0.446,2.314,0.958,3.093
		c0.027,0.135-0.002,2.453-0.396,2.7c0.055,0.053,0.08,0.053,0.159,0.105c-0.151,0.596-0.354,1.38-0.398,2.135
		c-0.022,0.323,0.988,1.23,0.921,2.418C121.516,94.515,121.014,94.628,120.568,94.686z M112.222,96.924
		c-0.131,0.189-0.183,0.299-0.287,0.488l1.996-1.1C113.586,96.048,112.72,96.649,112.222,96.924z M113.343,95.781
		c-0.21,0.082-0.369,0.11-0.552,0.193l-0.312,0.462C112.583,96.381,113.19,96.159,113.343,95.781z M119.691,86.498
		c-0.502,0.03-1.703,1.553-2.822,3.101l-0.131-0.133c0.077-0.217,0.153-0.381,0.047-0.487c-0.416,0.49-0.599,0.734-0.356,1.244
		c-0.389,0.544-0.755,1.033-1.092,1.468c-0.47,0.623-1.171,1.79-1.768,2.687c0.522-0.329,0.914-0.898,1.966-1.366
		c0.918-0.414,1.471-0.527,2.419-0.806c0.072-0.702,0.332-1.219,0.433-1.597l0.453,0.4c0.307-0.839,0.654-3.026,0.934-4.243
		L119.691,86.498z M115.166,95.656l-0.002-0.027c-0.579,0.032-0.817,0.089-0.916,0.521
		C114.482,96.012,114.876,95.847,115.166,95.656z M117.515,98.356l-0.102,0.353l0.159-0.003l0.102-0.433L117.515,98.356z
		 M118.266,91.851c-0.102,0.324,0.084,0.322,0.27,0.294l0.022-0.297L118.266,91.851z M118.5,91.416l-0.106-0.025l-0.102,0.298
		l0.238-0.002L118.5,91.416z M119.231,88.093l-0.238,0.002l0.203-0.729l0.238-0.108L119.231,88.093z"/>
	<path fill="#FFFFFF" d="M124.21,92.09c0.471-0.463,1.934-4.548,5.242-6.306c0.29-0.139,0.128-0.406,0.443-0.626
		c1.547-1.014,2.441-1.398,4.818-1.422c1.693,0.442,1.361,1.605,2.505,2.296c0.002,0.378-0.233,0.623-0.493,0.896
		c0.238,0.078,0.426,0.292,0.532,0.453c-0.025,0.135-0.129,0.271-0.235,0.298c-0.24-0.24-0.799-0.666-1.379-0.661
		c-2.904,0.029-9.166,4.916-8.678,8.739c1.879,0.306,4.724-0.287,5.382-0.617c0.339-0.165,0.706-0.6,0.914-0.953
		c0.676-1.11,1.667-2.389,2.501-3.286c0.106,0.107,0.24,0.188,0.374,0.267c-0.21,0.245-0.495,0.761-0.44,0.948l0.651-0.815
		c0.557,0.265,1.114,0.448,1.23,1.525c0.661-0.008-0.119,1.269,0.124,1.562c-1.857,1.958-2.511,2.451-2.904,2.805
		c-0.23,0.73-0.537,1.679-0.921,2.652l0.106,0.188c0.414-0.812,0.668-1.65,0.953-2.409l0.287-0.139
		c-0.668,1.732-1.305,3.925-2.186,5.55c-0.233,0.435,0.111,0.619-0.122,1.105c-0.208,0.462-0.436,1.191-0.963,1.197l-0.451,0.004
		l-0.002-0.351c-1.134,0.254-1.721-0.415-1.941-1.17l0.648-1.19c-0.421,0.112-0.602,0.464-0.73,0.87l-0.448,0.004
		c0.671-1.489,1.161-2.681,1.648-3.818c0.414-0.948,0.711-0.274,0.696-1.759l-0.473,0.166c-0.376-0.456-1.27-0.15-1.899,0.369
		c-2.243,0.048-3.409-0.399-4.407-2.331l-0.317,0.003c-0.515-1.343-0.238-2.505,0.148-3.695L124.21,92.09z M126.691,94.628
		c-0.208,0.245-0.312,0.487-0.31,0.677c0.002,0.161,0.109,0.296,0.268,0.348L126.691,94.628z M136.3,91.812l-0.52,0.732
		c0.369-0.058,0.683-0.356,0.918-0.548C136.564,91.729,136.431,91.622,136.3,91.812z"/>
	<path fill="#FFFFFF" d="M152.935,86.825c-2.389,1.129-4.845,1.232-7.16,1.93c-0.285,0.487-0.649,1.111-1.092,1.845
		c1.057-0.118,3.238-1.057,4.003-1.062c0.765-0.009,1.008,0.26,1.572,1.226c-0.104,0.297,0.03,0.565,0.294,0.698l-0.178,0.595
		c-1.607,0.285-5.534,0.97-6.848,1.575c-0.684,0.303-1.26,3.273-1.28,3.896c0.825,0.611,2.062,0.331,2.828,0.136l0.161,0.268
		c0.186-0.001,0.421-0.166,0.418-0.326c0.396-0.059,0.535,0.588,0.903,0.478c1.711-0.502,3.736-1.225,5.053-1.667
		c0.08-0.028,0.184-0.057,0.21,0.024c0.055,0.135-0.339,0.326-0.549,0.438l-1.79,0.69c0.161,0.106,0.453,0.292,0.639,0.398
		c0.079,0.025,0.027,0.08-0.052,0.107c-1.314,0.472-2.946,0.944-4.422,1.337c0.399,0.185,0.978,0.18,1.481,0.04
		c1.052-0.309,2.498-0.832,3.788-1.305c0.079-0.027,0.262-0.109,0.133,0.161c-0.156,0.271-0.366,0.461-0.735,0.601
		c-1.708,0.69-3.917,1.521-5.528,1.536c-3.087,0.029-5.293-1.38-5.229-5.316c0.032-1.995,1.619-4.464,3.503-8.608
		c-0.141-0.673-0.122-1.319,0.346-2.053c1.322,0.149,2.067-1.935,2.991-1.943c0.502-0.005,1.904,0.389,2.25,0.491
		c0.032,0.593-0.094,1.215-0.456,1.946c0.448,0.104,1.718,0.225,2.297,0.22l0.243,0.511c0.134-0.002,0.369-0.165,0.659-0.169
		c0.292-0.002,0.929,0.263,1.3,0.312c0.052,0,0.104,0.055,0.052,0.107c-1.045,0.981-1.79,0.396-1.597,1.202
		c0.788-0.331,1.446-0.525,2.181-0.884c0.106-0.055,0.263-0.245,0.29-0.083C153.673,86.441,153.198,86.607,152.935,86.825z
		 M141.866,96.344c-0.102,0.485-0.124,0.837,0.089,0.995l0.124-0.729L141.866,96.344z M142.271,94.802l-0.28,1.001l0.188,0.24
		l0.354-1.271L142.271,94.802z M142.324,94.612h0.024c0.156-0.218,0.367-0.436,0.468-0.705c-0.342-0.023-0.448,0.14-0.495,0.408
		L142.324,94.612z M143.787,90.688l0.344-0.057l0.257-0.623C144.203,90.01,143.863,90.392,143.787,90.688z M144.982,88.87
		l-0.44,0.76l0.342-0.084l0.443-0.759L144.982,88.87z M148.499,96.927c-0.733,0.573-1.654,0.959-1.976,0.45
		c1.213-0.282,2.424-0.698,3.395-1.111c0.106-0.056,0.134,0.025,0.082,0.107C149.684,96.753,149.001,96.948,148.499,96.927z
		 M150.868,86.009l0.084,0.323l0.473-0.222C151.395,85.977,151.026,85.955,150.868,86.009z"/>
	<path fill="#FFFFFF" d="M158.067,85.27c0.562-1.653,1.572-4.06,2.412-5.376l0.55-0.005c1.218-0.013,1.653,1.012,1.842,1.444
		l-0.426,0.004c0.002,0.374,0.161,0.87,0.374,0.868c0.852-0.01,1.545-0.793,2.518-1.146c0.574-0.19,1.488-0.355,1.793-0.357
		c0.668-0.009,1.448,1.82,1.732,2.658c-0.304,0.034-0.544,0.256-0.299,0.563c-0.448,0.751-0.892,2.062-1.471,2.005
		c-0.396-0.027-1.39,1.134-1.726,1.106c-0.58-0.058-0.969,0.601-1.572,1.104l-0.216-0.153c-0.332,0.254-1.027,0.727-1.297,1.103
		l0.121,0.092c0.976-0.07,2.374-0.24,3.471-0.251c1.493-0.014,2.689,0.847,3.643,1.554c0.463,0.741,1.06,2.417,1.374,3.409
		c-0.213,0.127-0.396-0.026-0.609,0.067c-0.418,0.657-3.048,2.769-3.199,2.771c-0.671-0.023-1.46,0.201-2.126,0.551l0.126,0.466
		c-0.695,0.66-1.819,0.92-2.251,0.486c-0.15,0.157-0.237,0.502-0.326,0.751c-3.241,1.837-5.611,2.45-5.269,3.133
		c-0.213,0.188-0.423,0.254-0.636,0.255c-0.671,0.007-1.199-0.921-2.085-1.039c0.06-0.343,0.055-0.715-0.31-0.524
		c0.087-0.438-0.012-1.12-0.168-1.555c0.517-0.256,1.092-0.509,1.606-0.794c-0.549-0.151-0.921-0.707-1.349-0.891l0.27-0.47
		c-0.307-0.246-0.401-0.463-0.525-0.742l3.018-8.523c-0.49-0.245-0.587-0.711-0.53-1.271L158.067,85.27z M156.968,96.983
		l0.215,0.121l0.24-0.344C157.241,96.669,157.119,96.795,156.968,96.983z M159.202,91.92c-0.335,0.003-0.394,0.222-0.545,0.223
		l0.307,0.247c-0.151,0.28-0.359,0.594-0.572,0.597c0.307,0.433,0.099,0.933-0.139,1.557c-0.24,0.221-0.575,0.38-0.693,0.661
		c0.396-0.004,0.277,0.185,0.156,0.31c-0.302,0.253-0.482,0.44-0.144,1.028l0.513-0.658l-0.02,0.966l-0.213,0.001
		c-0.059,0.157-0.119,0.344-0.116,0.562c1.333-0.637,2.426-1.053,2.734-0.743c0.148-0.406,0.693-0.69,1.361-1.071
		c0.31,0.559,0.424-0.065,0.729-0.068c0.245-0.003,0.581,0.088,0.697-0.441c1.303-0.635,2.759-1.396,3.897-2.964
		c-2.721-1.031-3.865,0.192-6.363,0.218C160.183,92.346,159.568,91.916,159.202,91.92z M157.791,93.801
		c0,0.186-0.089,0.437-0.208,0.562l0.124,0.218c0.24-0.221,0.421-0.533,0.418-0.782L157.791,93.801z M158.293,95.383
		c-0.092-0.062-0.122-0.123-0.062-0.248c0.027-0.25,0.356-0.626,0.54-0.783L158.293,95.383z M158.736,99.924
		c0.062,0.062,0.124,0.122,0.153,0.153c0.062,0.03,0.121,0.028,0.153,0.028c0.06,0,0.151-0.062,0.243-0.157L158.736,99.924z
		 M158.828,94.07c-0.153-0.061,0.111-0.935,0.322-1.341l0.184,0.154L158.828,94.07z M159.494,99.48c0,0.156,0.186,0.402,0.522,0.399
		c0.334-0.004,0.391-0.408,0.237-0.407C159.952,99.601,159.645,99.51,159.494,99.48z M164.775,97.5
		c-0.275-0.029-0.73,0.131-0.882,0.257c0.153,0.092,0.307,0.121,0.458,0.12C164.505,97.876,164.656,97.75,164.775,97.5z
		 M164.312,91.124l-0.027,0.249c0.304,0.06,0.608,0.025,0.639-0.162L164.312,91.124z M165.384,97.649
		c-0.002-0.312,0.211-0.5,0.574-0.504c0.122-0.001,0.214,0.029,0.308,0.091L165.384,97.649z M166.895,96.234l-0.485,0.16
		c-0.027,0.22,0.426,0.152,0.547,0.12L166.895,96.234z M169.192,94.531l0.571-0.504c-0.153-0.217-0.576,0.131-0.79,0.258
		L169.192,94.531z"/>
	<path fill="#FFFFFF" d="M184.111,94.077c-0.209,0.46-0.116,1.646-0.666,2.188c0.373,0.213,0.168,0.89-0.172,1.216
		c0.164,0.403,0.271,0.698-0.276,1.459c-0.024,0.108,0.237-0.028,0.292-0.084c-0.044,0.918-0.25,1.647-0.505,2.459
		c-0.817,0.01-1.563-0.794-1.985-0.628c0.02-0.54-0.062-0.755-0.431-0.751l0.021-0.378c0.133-0.001,0.238-0.083,0.264-0.271
		c-0.135,0.001-0.24-0.078-0.24-0.269c0.047-0.62,0.354-1.404,0.503-2.216c0.187-0.001,0.19,0.35,0.168,0.754
		c0.187-0.002,0.463-1.109,0.511-1.729l-0.318-0.134c-0.021,0.434-0.017,1.025-0.332,0.896c0.074-0.379,0.144-1.324,0.22-1.648
		l0.453,0.562c-0.029-0.323,0.102-0.405,0.045-0.811c-1.505-0.04-5.47,2.185-6.647,3.03l-0.132,0.353l0.112,0.322
		c-0.441,0.948-0.825,2.059-1.241,2.627l-1.671-0.712c-0.089-0.836-1.228-1.175-0.943-1.879l-0.423,0.005
		c0.539-4.078,4.904-8.486,7.351-11.909c1.224-1.684,2.451-2.826,3.475-3.673c0.184-0.163,0.926,0.099,0.973-0.415
		c0.346,0.105,1.088,0.423,1.485,0.741l-0.474,0.166c-0.021,0.458,0.633-0.059,0.767,0.048c0.985,0.854,0.444,2.314,0.958,3.093
		c0.027,0.134-0.003,2.453-0.396,2.699c0.056,0.054,0.08,0.054,0.158,0.106c-0.15,0.594-0.354,1.379-0.398,2.134
		c-0.021,0.323,0.988,1.23,0.922,2.417C185.061,93.906,184.557,94.019,184.111,94.077z M175.764,96.313
		c-0.132,0.19-0.185,0.299-0.285,0.489l1.996-1.098C177.127,95.438,176.264,96.039,175.764,96.313z M176.887,95.171
		c-0.21,0.083-0.369,0.11-0.552,0.193l-0.312,0.462C176.127,95.771,176.732,95.55,176.887,95.171z M183.234,85.888
		c-0.502,0.032-1.703,1.554-2.822,3.102l-0.131-0.134c0.076-0.216,0.152-0.379,0.047-0.484c-0.418,0.487-0.6,0.732-0.355,1.244
		c-0.393,0.542-0.756,1.03-1.096,1.466c-0.468,0.625-1.171,1.791-1.768,2.686c0.524-0.328,0.914-0.896,1.966-1.366
		c0.921-0.414,1.474-0.525,2.422-0.805c0.071-0.702,0.331-1.217,0.433-1.596l0.453,0.4c0.309-0.84,0.654-3.026,0.934-4.243
		L183.234,85.888z M178.706,95.045v-0.027c-0.579,0.033-0.815,0.089-0.918,0.522C178.023,95.402,178.419,95.236,178.706,95.045z
		 M181.059,97.746l-0.102,0.352l0.158-0.001l0.102-0.433L181.059,97.746z M181.809,91.24c-0.102,0.323,0.084,0.322,0.271,0.295
		l0.021-0.298L181.809,91.24z M182.044,90.808l-0.106-0.025l-0.102,0.297l0.237-0.001L182.044,90.808z M182.773,87.483l-0.236,0.003
		l0.201-0.729l0.238-0.11L182.773,87.483z"/>
	<path fill="#FFFFFF" d="M204.387,83.771c0.289-0.19,0.814-0.331,1.369-0.362c0.95-0.036,1.689,0.091,2.145,0.41l-0.524,0.382
		l0.054,0.108c0.184-0.003,0.684-0.17,0.842-0.278l0.748,0.803c-1.365,0.659-3.803,2.544-5.129,4.443
		c-0.156,0.219-0.266-0.104-0.422,0.006c-0.045,0.971-0.594,1.486-1.216,2.519c-0.131,0.244-0.073,0.594-0.228,0.974
		c0.002,0.162-0.395,0.326-0.471,0.569c-0.637,2.082-1.516,4.248-2.336,6.467l-1.195-0.554l-0.152,0.379
		c-1.693-0.443-1.859-1.115-2.117-2.919c-0.087-0.7,0.114-1.916-0.077-2.508c-0.653-1.881-0.057-2.695-0.228-4.069l-0.145-1.05
		c-0.813,0.277-1.729,1.096-2.404,2.369l0.082,0.432c-1.289,2.546-2.442,6.063-3.614,7.692l-0.74,0.006
		c-0.765,0.008-1.205-1.795-1.522-1.953l-0.17-1.185c-0.142-0.836,0.092-1.136,0.271-1.648c1.827-4.654,4.807-7.488,6.871-9.691
		c0.794,0.288,2.973,1.644,3.352,2.638c0.327,0.806,0.661,2.502,0.938,3.604c1.763-3.199,4.361-7.188,4.941-7.41l0.553-0.085
		c-1.621,1.66-2.762,3.612-3.385,4.562c-0.236,0.406-0.338,0.569-0.285,0.596l0.158,0.106
		C201.104,87.9,202.848,85.323,204.387,83.771z M193.95,85.758l-0.574,0.626c0.319,0.267,0.604-0.275,0.787-0.467L193.95,85.758z
		 M201.908,94.256l-0.24-0.159c0.021-0.378,0.044-0.891,0.361-0.758L201.908,94.256z M203.93,87.981
		c-0.209,0.325-0.625,0.896-0.359,1.028l0.545-0.868C204.166,88.061,203.98,87.9,203.93,87.981z M203.768,85.125l0.443-0.599
		l-0.213-0.105c-0.132,0.11-0.288,0.3-0.443,0.57C203.582,85.045,203.661,85.152,203.768,85.125z M204.604,87.031l-0.521,0.705
		c0.159-0.027,0.211,0.024,0.24,0.134l0.468-0.706C204.846,87.109,204.734,86.868,204.604,87.031z M206.587,84.773l0.058,0.243
		c0.264-0.191,0.498-0.221,0.443-0.626L206.587,84.773z"/>
	<path fill="#FFFFFF" d="M219.012,93.742c-0.205,0.46-0.113,1.646-0.664,2.189c0.371,0.213,0.17,0.889-0.173,1.216
		c0.163,0.402,0.272,0.698-0.274,1.458c-0.024,0.107,0.238-0.027,0.289-0.084c-0.045,0.918-0.248,1.647-0.502,2.459
		c-0.816,0.009-1.564-0.794-1.985-0.628c0.021-0.539-0.062-0.754-0.431-0.751l0.021-0.379c0.131-0.001,0.236-0.083,0.262-0.271
		c-0.134,0.001-0.24-0.079-0.24-0.269c0.049-0.621,0.354-1.406,0.506-2.216c0.184-0.003,0.188,0.348,0.166,0.753
		c0.187-0.002,0.464-1.109,0.511-1.73l-0.319-0.132c-0.021,0.432-0.016,1.023-0.332,0.894c0.074-0.378,0.145-1.322,0.221-1.647
		l0.453,0.563c-0.029-0.325,0.102-0.406,0.045-0.811c-1.506-0.04-5.47,2.183-6.647,3.029l-0.131,0.353l0.11,0.321
		c-0.44,0.948-0.824,2.059-1.24,2.629l-1.672-0.714c-0.088-0.834-1.228-1.173-0.942-1.878l-0.423,0.004
		c0.539-4.076,4.904-8.485,7.351-11.907c1.224-1.684,2.451-2.827,3.474-3.675c0.185-0.163,0.925,0.101,0.972-0.413
		c0.344,0.104,1.087,0.421,1.487,0.741l-0.474,0.166c-0.024,0.458,0.632-0.061,0.767,0.046c0.984,0.854,0.445,2.315,0.955,3.093
		c0.026,0.136-0.002,2.453-0.396,2.699c0.055,0.056,0.081,0.055,0.16,0.106c-0.153,0.596-0.354,1.38-0.4,2.135
		c-0.021,0.324,0.99,1.231,0.924,2.417C219.96,93.57,219.459,93.685,219.012,93.742z M210.665,95.979
		c-0.131,0.189-0.185,0.298-0.284,0.487l1.995-1.098C212.029,95.103,211.165,95.705,210.665,95.979z M211.789,94.836
		c-0.21,0.083-0.369,0.111-0.553,0.194l-0.312,0.461C211.029,95.438,211.637,95.215,211.789,94.836z M218.135,85.554
		c-0.503,0.03-1.701,1.554-2.82,3.102l-0.131-0.135c0.077-0.217,0.153-0.379,0.047-0.485c-0.418,0.489-0.599,0.733-0.355,1.243
		c-0.391,0.545-0.755,1.032-1.094,1.468c-0.469,0.625-1.172,1.792-1.77,2.687c0.525-0.329,0.914-0.897,1.967-1.366
		c0.92-0.414,1.474-0.526,2.422-0.807c0.07-0.7,0.332-1.217,0.434-1.594l0.45,0.398c0.307-0.839,0.655-3.025,0.934-4.241
		L218.135,85.554z M213.609,94.711v-0.027c-0.58,0.033-0.817,0.089-0.92,0.521C212.926,95.067,213.32,94.902,213.609,94.711z
		 M215.961,97.412l-0.102,0.352l0.158-0.002l0.102-0.433L215.961,97.412z M216.711,90.906c-0.102,0.323,0.084,0.322,0.271,0.294
		l0.021-0.299L216.711,90.906z M216.945,90.472l-0.105-0.023l-0.102,0.297l0.238-0.003L216.945,90.472z M217.677,87.148
		l-0.237,0.002l0.203-0.729l0.234-0.109L217.677,87.148z"/>
	<path fill="#FFFFFF" d="M239.289,83.436c0.289-0.191,0.814-0.332,1.369-0.362c0.949-0.037,1.689,0.091,2.142,0.409l-0.522,0.384
		l0.053,0.106c0.186-0.001,0.686-0.168,0.842-0.277l0.75,0.802c-1.365,0.66-3.803,2.545-5.13,4.444
		c-0.156,0.218-0.265-0.104-0.421,0.004c-0.045,0.973-0.594,1.489-1.217,2.521c-0.131,0.244-0.073,0.594-0.228,0.973
		c0.003,0.162-0.394,0.328-0.471,0.571c-0.636,2.082-1.515,4.247-2.334,6.467l-1.196-0.555l-0.152,0.379
		c-1.693-0.442-1.859-1.114-2.117-2.919c-0.088-0.7,0.113-1.915-0.077-2.507c-0.653-1.882-0.058-2.695-0.228-4.069l-0.145-1.051
		c-0.814,0.278-1.73,1.096-2.404,2.369l0.082,0.431c-1.292,2.547-2.443,6.063-3.617,7.692l-0.736,0.008
		c-0.766,0.007-1.206-1.795-1.525-1.954l-0.171-1.186c-0.142-0.834,0.095-1.134,0.272-1.646c1.828-4.656,4.808-7.489,6.873-9.693
		c0.795,0.29,2.974,1.646,3.352,2.639c0.327,0.806,0.661,2.501,0.938,3.604c1.763-3.199,4.361-7.188,4.94-7.409l0.554-0.085
		c-1.619,1.659-2.762,3.612-3.386,4.562c-0.235,0.407-0.337,0.57-0.285,0.597l0.159,0.106
		C236.006,87.565,237.749,84.987,239.289,83.436z M228.854,85.424l-0.574,0.625c0.318,0.268,0.604-0.275,0.787-0.466L228.854,85.424
		z M236.811,93.922l-0.24-0.159c0.022-0.378,0.046-0.891,0.361-0.76L236.811,93.922z M238.831,87.646
		c-0.208,0.326-0.624,0.896-0.358,1.028l0.545-0.868C239.068,87.725,238.883,87.565,238.831,87.646z M238.67,84.79l0.443-0.598
		l-0.213-0.105c-0.133,0.107-0.289,0.299-0.443,0.57C238.484,84.711,238.562,84.818,238.67,84.79z M239.507,86.696l-0.521,0.707
		c0.158-0.028,0.213,0.024,0.24,0.132l0.467-0.704C239.747,86.775,239.639,86.534,239.507,86.696z M241.49,84.439l0.057,0.241
		c0.264-0.189,0.497-0.221,0.443-0.624L241.49,84.439z"/>
	<path fill="#FFFFFF" d="M253.914,93.407c-0.206,0.46-0.114,1.646-0.664,2.188c0.371,0.213,0.169,0.889-0.173,1.216
		c0.163,0.403,0.272,0.698-0.275,1.46c-0.024,0.107,0.238-0.029,0.29-0.085c-0.045,0.918-0.248,1.648-0.503,2.459
		c-0.819,0.01-1.567-0.794-1.985-0.628c0.021-0.539-0.062-0.755-0.434-0.751l0.025-0.378c0.131-0.001,0.236-0.083,0.26-0.271
		c-0.133,0.002-0.238-0.078-0.24-0.269c0.047-0.62,0.355-1.404,0.505-2.216c0.187-0.001,0.188,0.35,0.166,0.754
		c0.187-0.002,0.464-1.11,0.511-1.729l-0.316-0.133c-0.021,0.433-0.016,1.024-0.335,0.895c0.075-0.379,0.146-1.323,0.221-1.647
		l0.456,0.562c-0.029-0.323,0.102-0.404,0.044-0.811c-1.508-0.04-5.469,2.185-6.649,3.03l-0.129,0.353l0.108,0.322
		c-0.438,0.948-0.823,2.059-1.239,2.627l-1.67-0.712c-0.089-0.836-1.228-1.175-0.943-1.879l-0.422,0.005
		c0.539-4.078,4.901-8.486,7.348-11.909c1.226-1.684,2.453-2.826,3.474-3.673c0.185-0.163,0.927,0.1,0.974-0.413
		c0.345,0.104,1.088,0.421,1.488,0.74l-0.474,0.166c-0.024,0.459,0.632-0.06,0.767,0.047c0.984,0.854,0.444,2.314,0.954,3.092
		c0.027,0.137-0.002,2.454-0.396,2.7c0.054,0.055,0.08,0.055,0.16,0.106c-0.153,0.596-0.354,1.379-0.4,2.134
		c-0.021,0.323,0.99,1.231,0.923,2.418C254.861,93.236,254.361,93.349,253.914,93.407z M245.566,95.644
		c-0.131,0.191-0.183,0.299-0.287,0.489l1.996-1.098C246.932,94.769,246.064,95.37,245.566,95.644z M246.689,94.501
		c-0.211,0.083-0.369,0.11-0.553,0.192l-0.312,0.463C245.93,95.102,246.535,94.88,246.689,94.501z M253.037,85.218
		c-0.503,0.032-1.701,1.554-2.82,3.102l-0.133-0.134c0.076-0.216,0.154-0.379,0.047-0.484c-0.416,0.488-0.6,0.733-0.355,1.243
		c-0.39,0.542-0.756,1.031-1.092,1.467c-0.472,0.625-1.172,1.791-1.77,2.687c0.521-0.328,0.914-0.896,1.966-1.366
		c0.919-0.414,1.474-0.526,2.419-0.806c0.072-0.702,0.332-1.217,0.434-1.596l0.453,0.4c0.308-0.84,0.656-3.026,0.935-4.244
		L253.037,85.218z M248.512,94.376l-0.003-0.027c-0.579,0.032-0.817,0.088-0.916,0.521
		C247.828,94.732,248.223,94.567,248.512,94.376z M250.861,97.077l-0.103,0.351l0.158-0.001l0.103-0.433L250.861,97.077z
		 M251.613,90.571c-0.102,0.325,0.082,0.322,0.268,0.295l0.021-0.298L251.613,90.571z M251.848,90.138l-0.106-0.026l-0.103,0.3
		l0.237-0.003L251.848,90.138z M252.579,86.813l-0.237,0.003l0.203-0.729l0.234-0.11L252.579,86.813z"/>
</g>
<g>
	<path fill="#FFFFFF" d="M310.74,61.999c-0.347,0.099-2.391,0.244-2.391,0.244c-0.535,0.32-1.531,2.072-1.531,2.146
		c0,0.072,0.361-0.098,0.361,0.146c0,0.247-0.046,1.365,0.393,1.267c0.437-0.097,1.359,0.245,1.56,0
		c0.193-0.242,1.461-2.727,1.559-3.117S311.079,61.902,310.74,61.999z"/>
	<path fill="#FFFFFF" d="M299.239,68.557c0.364-1.024,3.112-2.155,2.118-2.122c-1.021,0.036-0.362,0.073-0.731-0.364
		c-0.511,0.218-2.34-1.097-2.776-1.023c0,0-1.384,1.68-0.879,1.753C297.482,66.875,299.239,68.557,299.239,68.557z"/>
	<path fill="#FFFFFF" d="M311.226,70.087c0.195,0.1,0.148,0.73,0.289,0.638c0.147-0.097,0.831-0.828,0.737-0.978
		c-0.1-0.146-0.186-0.683-0.821-0.34c-0.246,0.136-1.422,0.39-1.181,0.585c0.244,0.193,0,0.533,0.145,0.636
		c0.15,0.097,0.734,0.291,0.686,0.097C311.029,70.526,311.029,69.992,311.226,70.087z"/>
	<path fill="#FFFFFF" d="M302.507,71.798c0.247-0.128,0.492,0.264,0.751-0.612c0.294-0.982,1.29-1.913,1.461-2.269
		c0.147-0.3-0.045-1.076-0.947-1.275c-0.551-0.124-0.256-0.438-0.768-0.551c-2.919-0.623-3.039,1.879-3.039,1.879
		C300.455,69.164,302.507,71.798,302.507,71.798z"/>
	<path fill="#FFFFFF" d="M304.079,73.016c2.389,1.323,4.787,0.63,4.787,0.63s0.536-0.129,0.556-0.561
		c0.019-0.429,0.117-1.204-0.701-1.387c-0.829-0.182-0.995-0.715-1.297-0.536c-0.296,0.173-0.596,0.258-0.286,0.663
		c-0.276,0.058-0.454-0.541-1.027-0.715c-0.575-0.165-0.673-0.261-0.804-0.145c-0.133,0.12-0.177,0.337-0.149,0.463
		c0.03,0.13-0.478-0.332-0.593-0.445c-0.114-0.109,2.354-0.744-0.017-1.161C304.548,69.823,302.458,72.108,304.079,73.016z"/>
	<path fill="#FFFFFF" d="M297.027,64.479c-0.034-0.164-0.875-0.764-1.135-0.733c-0.271,0.04-1.207,1.647-1.734,1.757
		c0.77-0.164,1.626,0.77,2.025,0.953c0.402-0.147,1.209-1.812,1.152-1.83C297.282,64.606,297.064,64.644,297.027,64.479z"/>
	<path fill="#FFFFFF" d="M297.266,63.037c0.031,0.22,1.021,1.241,1.422,1.461c0.408,0.22,1.463,0.624,1.649,0.327
		c0.183-0.291,1.242-1.423,2.08-2.188c0.841-0.771,1.571-2.013,1.388-2.233c-1.57-1.17-4.128,0.514-3.725,0.33
		C300.08,60.733,297.229,62.816,297.266,63.037z"/>
	<path fill="#FFFFFF" d="M299.239,56.566c0,0-0.876,1.316-1.21,1.827c-0.327,0.514-2.883,2.705-2.738,3.106s0.367,0.882,0.949,1.025
		c1.047,0.256,2.814-1.937,3.363-2.377c0,0-0.922-1.144-0.318-2.142C299.895,57.004,299.239,56.566,299.239,56.566z"/>
	<path fill="#FFFFFF" d="M316.44,2.306c-1.304-0.141-3.025,2.727-1.561,5.556c1.461,2.824,2.337,3.117,2.729,3.02
		C317.998,10.786,321.803,2.891,316.44,2.306z"/>
	<path fill="#FFFFFF" d="M305.547,70.799c0.355-0.026,1.281,0.646,1.37,0.485c0.082-0.161,0-0.95,0.945-0.185
		c0.95,0.771,1.245,0.547,1.168,0.161c-0.071-0.391-0.164-0.685-0.438-0.537c-0.1-0.275-1.484-0.81-1.517-0.342
		c-0.036-0.414-0.968-0.342-0.968-0.342c-0.039-0.036-0.841-0.313-0.45,0.037C306.047,70.431,305.195,70.818,305.547,70.799z"/>
	<path fill="#FFFFFF" d="M320.289,9.004c0.584-0.682,1.684-7.042-1.607-7.405c-1.111-0.125-2.047,0.146-0.878,0.585
		c1.173,0.438,2.78,2.19,2.05,4.604c-0.731,2.412-1.172,3.287-1.172,3.287S319.274,10.187,320.289,9.004z"/>
	<path fill="#FFFFFF" d="M320.682,59.179c0.164-0.227,0.15-1.159-0.208-1.825c-0.171-0.318-3.398,1.405-3.582,1.661
		c-0.184,0.255-0.214,2.301-0.104,2.467c0.109,0.163,0.387,0.2,0.541-0.057c0.065-0.11,0.227,0.347,0.797-0.036
		c0.566-0.383,0.724-0.418,0.683-0.693c0,0-0.36-0.363-0.259-0.512c0.019,0.086,0.215,0.382,0.573,0.354
		c0.181-0.016,0.181-0.17,0.639-0.628c0.457-0.458,0.604-0.658,0.083-0.831C320.171,58.952,320.479,59.464,320.682,59.179z"/>
	<path fill="#FFFFFF" d="M291.684,45.481c-1.461,1.17,2.105,9.569,1.172,15.495c0.779-1.95,4.188-5.216,4.188-5.216
		s-0.419-0.829-0.679-1.458c-0.416-1,1.591-2.098,2.762-1.769c0.3,0.087,2.484-2.374,2.484-2.374
		c-0.729-10.965-8.771-11.809-12.174-10.771c-2.334,0.714-7.014,3.801-6.133,5.457c0.877,1.659,2.186,2.395,5.555,2.146
		C290.855,46.843,290.902,45.576,291.684,45.481z"/>
	<path fill="#FFFFFF" d="M297.85,53.093c-0.553,0.184-1.435,0.478-0.904,1.5c0.412,0.777,1.012,1.488,2.623,1.241
		c0.475-0.073,0.646,0.853,0.548,1.245c-0.097,0.39-0.732,2.483,0,2.777c0.731,0.292,2.192-1.024,3.022-0.776
		c0.827,0.239,4.042,3.649,8.428,2.188c4.39-1.464,4.775-4.237,10.768-4.626c0.98,0,0.637-0.537,0.101-0.636
		c-0.535-0.098-5.88-0.148-9.403,0.927c-6.237,1.899-7.6-1.509-9.735-0.367c-1.021,0.551-0.85-0.081-0.618-0.874
		C303.258,53.64,298.4,52.912,297.85,53.093z"/>
	<path fill="#FFFFFF" d="M293.611,61.753c0-0.417-0.57-0.364-0.57-0.364l-0.656,1.427l0.457,0.838c0,0,0.512-0.581,0.771-0.946
		C293.866,62.343,293.825,61.445,293.611,61.753z"/>
	<path fill="#FFFFFF" d="M298.504,97.72c-1.824-0.074-3.577,3.584-14.104,6.65c-0.805,0.234,3.802,11.966,13.608,9.523
		c6.034-2.212,8.881-5.277,8.881-6.479C300.115,103.419,299.46,98.159,298.504,97.72z"/>
	<path fill="#FFFFFF" d="M330.888,58.959c-2.34-2.34-4.192-0.783-4.099,1.752c0.102,2.536,4.243,8.773,4.41,8.555
		c0.75-0.96,0.854-0.632,3.999-2.24c2.435,2.24-4.416,1.752-3.752,4.334c2.119,8.262,2.915,20.439,1.39,23.905
		c-3.461,7.843-18.226,6.288-17.789-3.463c0.227-5.062-3.265-5.066-4.048-5.654c-0.774-0.583-2.042-2.433,0.49-2.729
		c2.534-0.291,4.51,4.896,4.898,8.117c0.388,3.218,0.731,5.262,5.557,6.873c9.938,3.312,11.253-8.918,11.253-8.918
		s-4.945,1.419-6.26,2.542c-0.135,0.111,0.246,0.948,0.156,1.075c-0.174,0.229-0.956-0.639-1.312-0.955
		c-0.804-0.722-1.947-2.298-2.893-2.298c-1.365,0-2.144-0.102-1.755-0.684c0.39-0.583,1.854-0.686,1.854-0.686
		c-1.465-8.378-4.996-8.356-7.334-8.204c-1.07,0.062-1.242-1.149-0.17-1.344c1.071-0.196,1.947-0.298,1.947-0.298
		c-0.973-0.679-2.924,0-3.116-1.558c-0.1-0.873,3.826,0.125,3.826,0.125c0.191-0.391,1.312-1.026,2.775-2.487
		c3.974-3.975,5.555-7.892,5.555-7.892c-0.49-1.172-3.777-8.557,0.023-10.119c3.799-1.558,4.685,1.178,5.532,0.175
		c7.893-9.354-0.073-27.555-1.733-28.531c-1.559-1.363-2.726-7.31-3.212-9.064c-0.492-1.755-4.513-13.655-5.263-13.449
		c-1.074,0.293-0.095,2.877-1.125,3.85c-1.021,0.977-2.627,1.17-0.729,1.609c8.864,9.746,2.34,19.831,2.34,19.831
		c-4.334,11.015-11.791,13.45-11.747,14.034c0.342,2.193-1.021,2.88-1.458,2.292c-0.264-0.349-0.236-1.374-0.176-2.153
		c-0.637,0.282-1.202,0.663-1.736,1.113c0.282,0.511,0.645,1.267,0.694,1.867c0.057,0.721-0.784,1.415-1.173,0.828
		c-0.39-0.584-0.729-2.046-1.269-1.461c-0.115,0.127-2.533,2.68-3.36,3.411c-0.829,0.732-2.222,1.805-2.222,1.805
		s1.567,0.356,1.975,0.438c1.865,0.365,1.357,2.814,1.357,2.814s1.278-0.867,3.324,0.109c2.047,0.975,5.359,0.874,7.896-0.296
		c2.532-1.167,10.233-0.486,10.135-0.192c-0.095,0.292-5.872,7.017-5.094,8.452c2.015,3.709-2.823,4.483-3.412,6.435
		c-0.583,1.951-5.627,7.335-5.627,7.335c-9.024,5.422-12.765-3.316-13.058-4.094c-0.295-0.78-2.516-3.081-2.731-3.117
		c-1.459-0.243,0.067,7.932-1.481,12.243c-0.223,0.609-0.128-0.448-0.367-0.998c-0.514-1.172,1.364-5.104-1.27-15.046
		c-2.628-9.943-16.854-19.701-22.709-21.833c-8.285-3.021-19.561-2.607-26.021,10.43c-5.848,11.792,2.338,19.004,12.668,19.686
		c3.826,0.254,6.748-4.85,2.655-6.895c-0.352-0.175-2.157-1.771-2.919-3.314c-1.023-2.116-2.428-0.608-2.757-2.473
		c-0.453-2.546,0.582-4.026,0.972-4.86c0.879-1.853,9.748-10.477,21.738-4.483c15.205,7.602,15.721,28.151,15.301,30.412
		c-1.68,9.012,0.659,16.054,7.432,11.424c0.15-0.102-1.248-2.291-0.875-2.483c0.277-0.146,1.787,2.91,2.07,2.814
		c0.465-0.171,2.221-2.079,2.303-1.868c0.154,0.409-1.863,2.396-1.598,3.177c1.355,3.907,6.544,12.891,27.081,14.452
		c13.599,0.658,16.144-11.05,16.511-18.455c-0.149-14.62-7.066-27.535-7.066-27.535C334.444,62.37,333.223,61.295,330.888,58.959z
		 M322.016,45.512c-4.021-1.074-8.187,3.482-9.137,3.192c-0.949-0.293-0.344-1.394,0.46-1.831c0.204-0.11,7.021-5.82,9.697-3.168
		C323.567,44.231,322.84,45.729,322.016,45.512z"/>
	<path fill="#FFFFFF" d="M295.875,97.792c-0.568-2.35-3.682,3.704-7.309-4.166c-0.705-1.519-0.109-14.547-0.123-15.325
		c-0.1-6.431-6.52-25.845-21.051-25.73c-12.381,0.099-13.843,8.187-13.938,9.162c-0.099,0.976,0.851,2.104,1.56,0.392
		c4.68-11.307,23.194-4.875,19.496,10.919c-1.889,8.032-15.474,13.357-12.404,24.091c0.289,1.026,7.642,13.369,16.959,8.045
		c1.535-0.879,0.074-3.655,1.83-1.975C283.587,105.787,296.064,98.562,295.875,97.792z"/>
	<path fill="#FFFFFF" d="M290.902,46.894c-0.754-0.17,0.199,3.557-1.168,11.355c0,0,1.561,1.656,2.436,3.262
		C292.562,55.667,290.902,53.863,290.902,46.894z"/>
	<path fill="#FFFFFF" d="M297.702,55.98c-0.365,0.185-2.118,1.389-3.177,3.513c-1.062,2.116,1.164,0.618,1.939-0.073
		c0.764-0.695,2.773-3.072,2.408-3.108C298.504,56.274,297.702,55.98,297.702,55.98z"/>
	<path fill="#FFFFFF" d="M316.495,60.976c0.07-0.344,0.227-1.975-0.26-1.684c-0.48,0.292-1.15,1.515-2.507,1.77
		c-1.354,0.259-2.268,0.897-2.354,0.897c-0.083,0-0.223,0.233-0.135,1.889c0.084,1.649,0.618,1.527,1.083,1.04
		c0.778,0,0.904-0.793,0.851-0.953c-0.051-0.154-0.182-0.623-0.182-0.623s0.113,0.036,0.231,0.14
		c0.119,0.104,0.004,0.737,0.49,0.583c0.479-0.155,0.551-0.562,0.607-0.751c0.03-0.131,0.232-0.238,0.333-0.285
		c-0.092,0.088-0.128,0.381-0.188,0.502c-0.299,0.594-0.213,0.609,0.854,0.56C316.198,64.77,316.43,61.32,316.495,60.976z"/>
	<path fill="#FFFFFF" d="M291.505,62.878c-1.089,0.35,0.134,1.63,0.474,2.847c0.317,1.144,0.846,4.902,1.071,4.584
		c0.369-0.513,1.607-1.173,2.263-0.73c0.515,0.73,3.654,5.846,5.047,7.379c2.557,2.196,4.83,1.938,7.75,0.882
		c3.168-1.149,10.259-9.148,5.676-5.676c-4.507,3.406-10.573,2.604-12.184,0.048c-2.341-3.729-5.115-4.777-5.651-5.312
		c-0.302-0.305-2.612-2.492-3.068,0.19c-0.139-0.046-0.118-1.88-0.039-2.28C292.868,64.685,292.598,62.525,291.505,62.878z"/>
	<path fill="#FFFFFF" d="M294.029,62.358c-0.057,0.44-0.748,1.313-0.948,1.481c-0.2,0.165,0.142,1.114,0.092,1.299
		c-0.056,0.183,0.693,0.254,0.693,0.254s1.755-1.479,1.718-1.917c-0.036-0.438-0.582-0.477-0.582-0.477s0.068-0.807-0.298-1.026
		C294.607,61.917,294.085,61.922,294.029,62.358z"/>
	<path fill="#FFFFFF" d="M304.355,60.782c-0.071,0.014-1.998,2.728-2.194,3.118c-0.193,0.391-0.485,1.464,0.438,1.464
		c0.926,0,1.756,0.048,1.853,0.339c0.096,0.291,2.729-3.214,3.068-3.511C307.862,61.902,304.648,60.733,304.355,60.782z"/>
	<path fill="#FFFFFF" d="M315.403,69.747c-0.291-0.192-0.728,0.196-0.728,0.196s0.288-0.39-0.299-0.681
		c-0.169-0.088-0.333-0.134-0.498-0.271c-0.289-0.241-2.095-0.119-1.283,0.458c0.475,0.337,0.323,0.031,0.65,0.284
		c-0.755,0.271-0.74,0.376-1.462,1.026c-0.24,0.214-0.483,0.07-0.461,0.839c-0.326-0.269-0.146-0.673-0.146-0.673
		c-0.195,0.343-0.975,0.138-0.975-0.155s0.071-1.229-0.551-0.485c-0.73,1.267-0.083,2.825,0.354,1.438
		c0.071,0.119-0.179,0.707-0.211,0.898c-0.145,0.977,1.271,0.681,1.612,0.438c0.339-0.24,1.805-1.17,2.63-1.659
		C314.868,70.919,315.697,69.944,315.403,69.747z"/>
	<path d="M334.435,59.826c0,0,6.506-10.528,0.731-24.563c-4.022-10.012-4.469-7.688-4.982-9.729
		c-0.511-2.05-1.633-13.72-7.408-22.931c-1.389-2.264-4.521-3.077-6.53-2.337c-2.799,1.028-3.874,3.225-3.529,6.503
		c0.604,5.773,3.279,5.932,5.283,6.359c2.008,0.429,7.506,7.213,5.037,13.564c-3.241,8.312-5.991,13.557-12.295,17.278
		c-0.221-1.368-0.123-0.925-0.66-2.383c-0.536-1.463-2.744-0.328-1.827,0.532c0.812,0.765,0.805,2.36,0.781,2.518
		c-0.494,0.109-0.865,0.51-1.31,0.734c0,0,0.151-1.987-0.591-2.336c-0.743-0.349-1.945,1.029-2.124,2.409
		c-0.083,0.649,0.468,1.453,0.468,1.453s-2.252,1.862-2.334,2.142c-0.065-0.604-1.031-8.308-6.646-10.413
		c-5.851-2.192-11.916-0.148-14.181,4.02c-2.27,4.167,3.059,7.614,5.031,6.079c1.971-1.533,2.998-0.341,2.559,2.485
		c-0.365,2.338-1.024,6.067-1.024,6.067s-15.118-20.16-32.092-17.471c-14.047,2.229-26.705,20.979-12.668,34.623
		c7.224,7.128,21.905,4.653,16.858-6.239c-2.312-3.7-6.504-1.8-4.387-5.749c0,0,4.524-7.152,10.148-4.083
		c5.631,3.072,9.64,10.126,5.059,17.24c-1.275,1.983-13.918,10.567-12.283,19.2c3.317,17.496,18.185,14.742,22.42,10.938
		c0,0,3.803,18.224,20.754,10.817c5.122-3.435,5.708-7.747,5.708-7.747s20.172,12.132,33.034-0.73
		c2.798-2.794,6.887-8.489,3.814-24.062C341.726,67.755,335.532,60.187,334.435,59.826z M317.608,10.88
		c-0.392,0.098-1.268-0.195-2.729-3.02c-1.466-2.829,0.257-5.696,1.561-5.556C321.803,2.891,317.998,10.786,317.608,10.88z
		 M318.682,10.076c0,0,0.439-0.875,1.171-3.287c0.731-2.414-0.876-4.166-2.049-4.604c-1.169-0.439-0.233-0.71,0.878-0.585
		c3.291,0.363,2.191,6.724,1.607,7.405C319.274,10.187,318.682,10.076,318.682,10.076z M288.859,46.991
		c-3.369,0.246-4.678-0.487-5.555-2.146c-0.881-1.656,3.799-4.743,6.133-5.457c3.403-1.036,11.444-0.193,12.174,10.771
		c0,0-2.186,2.461-2.484,2.374c-1.171-0.329-3.178,0.769-2.762,1.769c0.26,0.63,0.679,1.458,0.679,1.458s-3.409,3.266-4.188,5.216
		c0.935-5.926-2.633-14.325-1.172-15.495C290.902,45.576,290.855,46.843,288.859,46.991z M303.294,56.566
		c2.136-1.142,3.498,2.267,9.735,0.367c3.523-1.075,8.868-1.024,9.403-0.927c0.536,0.1,0.88,0.636-0.101,0.636
		c-5.991,0.389-6.378,3.162-10.768,4.626c-4.386,1.462-7.601-1.948-8.428-2.188c-0.83-0.248-2.292,1.067-3.023,0.776
		c-0.731-0.293-0.096-2.388,0-2.777c0.099-0.393-0.072-1.318-0.547-1.245c-1.611,0.248-2.211-0.463-2.623-1.241
		c-0.529-1.022,0.353-1.316,0.904-1.5c0.551-0.181,5.408,0.547,4.825,2.599C302.443,56.485,302.271,57.116,303.294,56.566z
		 M319.76,59.911c-0.458,0.458-0.458,0.612-0.639,0.628c-0.358,0.027-0.556-0.269-0.573-0.354c-0.103,0.148,0.259,0.513,0.259,0.513
		c0.041,0.274-0.115,0.31-0.683,0.692c-0.57,0.383-0.73-0.074-0.797,0.036c-0.154,0.257-0.433,0.22-0.541,0.057
		c-0.108-0.167-0.078-2.212,0.104-2.467c0.184-0.256,3.411-1.979,3.582-1.661c0.358,0.667,0.372,1.6,0.208,1.825
		c-0.202,0.286-0.511-0.227-0.839-0.099C320.364,59.253,320.217,59.453,319.76,59.911z M299.604,60.148
		c-0.549,0.441-2.316,2.633-3.363,2.377c-0.582-0.144-0.805-0.624-0.949-1.025s2.411-2.595,2.738-3.106
		c0.334-0.511,1.209-1.827,1.209-1.827s0.656,0.438,0.047,1.44C298.682,59.004,299.604,60.148,299.604,60.148z M303.805,60.403
		c0.186,0.221-0.547,1.462-1.388,2.233c-0.838,0.766-1.897,1.897-2.08,2.188c-0.187,0.297-1.241-0.106-1.649-0.327
		c-0.4-0.22-1.391-1.241-1.422-1.461c-0.035-0.221,2.814-2.305,2.814-2.305C299.677,60.916,302.234,59.233,303.805,60.403z
		 M311.079,70.725c0.05,0.194-0.534,0-0.686-0.097c-0.145-0.103,0.101-0.441-0.145-0.636c-0.241-0.195,0.935-0.449,1.181-0.585
		c0.637-0.343,0.723,0.192,0.821,0.34c0.094,0.148-0.59,0.881-0.737,0.978c-0.141,0.094-0.094-0.538-0.289-0.638
		C311.029,69.992,311.029,70.526,311.079,70.725z M310.689,62.683c-0.098,0.391-1.364,2.875-1.559,3.117
		c-0.199,0.245-1.123-0.097-1.56,0c-0.438,0.099-0.393-1.02-0.393-1.267c0-0.243-0.361-0.073-0.361-0.146
		c0-0.073,0.995-1.825,1.531-2.146c0,0,2.044-0.146,2.391-0.244C311.079,61.902,310.788,62.293,310.689,62.683z M297.85,65.047
		c0.438-0.073,2.267,1.241,2.776,1.023c0.369,0.438-0.289,0.4,0.731,0.364c0.994-0.033-1.754,1.098-2.119,2.122
		c0,0-1.756-1.681-2.269-1.757C296.466,66.727,297.85,65.047,297.85,65.047z M296.186,66.455c-0.4-0.184-1.259-1.117-2.026-0.953
		c0.526-0.109,1.463-1.717,1.735-1.757c0.26-0.03,1.1,0.57,1.135,0.733c0.035,0.165,0.254,0.127,0.309,0.146
		C297.395,64.644,296.587,66.307,296.186,66.455z M303.004,67.091c0.512,0.111,0.217,0.427,0.768,0.551
		c0.902,0.199,1.096,0.977,0.947,1.275c-0.171,0.354-1.167,1.285-1.461,2.269c-0.259,0.876-0.504,0.484-0.751,0.612
		c0,0-2.052-2.634-2.542-2.828C299.965,68.97,300.085,66.468,303.004,67.091z M304.548,69.823c2.369,0.417-0.099,1.052,0.017,1.161
		c0.115,0.113,0.623,0.575,0.593,0.445c-0.026-0.126,0.018-0.343,0.149-0.463c0.131-0.116,0.229-0.021,0.804,0.145
		c0.573,0.174,0.751,0.771,1.027,0.715c-0.31-0.405-0.01-0.49,0.286-0.663c0.302-0.179,0.468,0.354,1.297,0.536
		c0.818,0.183,0.72,0.958,0.701,1.387c-0.02,0.432-0.556,0.561-0.556,0.561s-2.398,0.693-4.787-0.63
		C302.458,72.108,304.548,69.823,304.548,69.823z M305.659,70.078c-0.392-0.352,0.411-0.073,0.45-0.037c0,0,0.932-0.072,0.968,0.342
		c0.031-0.468,1.417,0.065,1.517,0.342c0.272-0.146,0.365,0.146,0.438,0.537c0.077,0.386-0.218,0.608-1.168-0.161
		c-0.945-0.767-0.863,0.022-0.945,0.185c-0.089,0.159-1.016-0.513-1.37-0.485C305.195,70.818,306.047,70.431,305.659,70.078z
		 M307.521,62.193c-0.342,0.297-2.975,3.802-3.069,3.511s-0.927-0.339-1.853-0.339c-0.925,0-0.633-1.073-0.438-1.464
		c0.196-0.391,2.123-3.104,2.194-3.118C304.648,60.733,307.862,61.902,307.521,62.193z M296.466,59.419
		c-0.776,0.691-3.002,2.189-1.94,0.073c1.06-2.124,2.812-3.328,3.178-3.513c0,0,0.802,0.294,1.172,0.33
		C299.239,56.347,297.229,58.724,296.466,59.419z M294.704,61.973c0.366,0.22,0.298,1.026,0.298,1.026s0.546,0.037,0.582,0.477
		c0.037,0.437-1.718,1.917-1.718,1.917s-0.749-0.07-0.693-0.254c0.05-0.185-0.292-1.134-0.092-1.299
		c0.2-0.168,0.892-1.041,0.949-1.481C294.085,61.922,294.607,61.917,294.704,61.973z M293.611,62.708
		c-0.258,0.365-0.771,0.947-0.771,0.947l-0.457-0.839l0.656-1.427c0,0,0.571-0.053,0.571,0.364
		C293.825,61.445,293.866,62.343,293.611,62.708z M292.842,64.811c-0.078,0.4-0.1,2.234,0.039,2.28
		c0.456-2.684,2.768-0.495,3.068-0.19c0.535,0.533,3.312,1.583,5.65,5.312c1.61,2.557,7.678,3.358,12.185-0.048
		c4.583-3.474-2.508,4.525-5.676,5.676c-2.919,1.057-5.193,1.315-7.751-0.882c-1.392-1.533-4.531-6.647-5.045-7.379
		c-0.655-0.441-1.895,0.219-2.264,0.73c-0.227,0.318-0.754-3.44-1.072-4.584c-0.34-1.217-1.562-2.497-0.473-2.847
		C292.598,62.525,292.868,64.685,292.842,64.811z M314.04,71.402c-0.825,0.489-2.291,1.419-2.63,1.659
		c-0.341,0.242-1.757,0.538-1.612-0.438c0.032-0.191,0.282-0.779,0.211-0.898c-0.438,1.388-1.086-0.172-0.354-1.438
		c0.622-0.743,0.551,0.192,0.551,0.485s0.778,0.498,0.975,0.155c0,0-0.181,0.404,0.146,0.673c-0.022-0.769,0.221-0.625,0.461-0.839
		c0.722-0.65,0.707-0.757,1.462-1.026c-0.327-0.253-0.177,0.053-0.65-0.284c-0.812-0.577,0.994-0.699,1.283-0.458
		c0.165,0.138,0.329,0.184,0.498,0.271c0.587,0.291,0.299,0.681,0.299,0.681s0.437-0.39,0.728-0.196
		C315.697,69.944,314.868,70.919,314.04,71.402z M315.321,64.059c-1.066,0.051-1.152,0.035-0.854-0.56
		c0.061-0.121,0.098-0.415,0.188-0.502c-0.101,0.047-0.303,0.154-0.333,0.285c-0.058,0.188-0.13,0.597-0.607,0.751
		c-0.486,0.154-0.371-0.479-0.49-0.583c-0.118-0.104-0.231-0.14-0.231-0.14s0.131,0.468,0.182,0.623
		c0.056,0.16-0.071,0.953-0.851,0.953c-0.465,0.488-0.999,0.609-1.083-1.04c-0.088-1.654,0.052-1.889,0.135-1.889
		c0.087,0,0.999-0.64,2.354-0.897c1.354-0.255,2.024-1.478,2.506-1.77c0.485-0.291,0.33,1.34,0.26,1.684
		C316.43,61.32,316.198,64.77,315.321,64.059z M290.902,46.894c0,6.971,1.66,8.773,1.268,14.617
		c-0.875-1.604-2.436-3.262-2.436-3.262C291.102,50.45,290.148,46.723,290.902,46.894z M280.895,103.203
		c-1.756-1.682-0.295,1.096-1.83,1.975c-9.317,5.324-16.67-7.019-16.959-8.045c-3.068-10.732,10.517-16.059,12.404-24.091
		c3.698-15.793-14.816-22.226-19.496-10.919c-0.709,1.712-1.658,0.584-1.56-0.392c0.097-0.977,1.56-9.063,13.938-9.162
		c14.531-0.113,20.951,19.301,21.051,25.73c0.014,0.778-0.582,13.808,0.123,15.325c3.627,7.87,6.74,1.816,7.309,4.166
		C296.064,98.562,283.587,105.787,280.895,103.203z M298.009,113.895c-9.808,2.441-14.413-9.289-13.608-9.523
		c10.526-3.066,12.279-6.726,14.104-6.65c0.956,0.439,1.611,5.699,8.386,9.695C306.89,108.616,304.043,111.683,298.009,113.895z
		 M326.809,111.182c-20.545-1.562-25.732-10.545-27.08-14.451c-0.269-0.782,1.748-2.769,1.595-3.178
		c-0.078-0.213-1.837,1.696-2.302,1.864c-0.285,0.1-1.797-2.958-2.076-2.813c-0.369,0.192,1.031,2.382,0.879,2.484
		c-6.772,4.63-9.112-2.411-7.428-11.425c0.416-2.259-0.1-22.811-15.304-30.411c-11.991-5.994-20.86,2.633-21.737,4.483
		c-0.392,0.833-1.313,2.184-0.863,4.728c0.33,1.867,2.144,1.227,2.646,2.607c0.762,1.541,2.568,3.139,2.922,3.314
		c4.09,2.046,1.17,7.146-2.658,6.896c-10.33-0.683-18.516-7.896-12.666-19.688c6.463-13.037,17.738-13.45,26.022-10.43
		c5.851,2.132,20.077,11.892,22.705,21.833c2.636,9.941,0.759,13.874,1.272,15.045c0.236,0.552,0.146,1.607,0.363,0.997
		c1.553-4.309,0.023-12.483,1.485-12.239c0.213,0.033,2.435,2.337,2.729,3.115c0.291,0.779,4.03,9.513,13.056,4.096
		c0,0,5.048-5.387,5.629-7.336c0.591-1.947,5.425-2.727,3.413-6.435c-0.781-1.436,4.996-8.16,5.092-8.453
		c0.099-0.291-7.601-0.973-10.136,0.194c-2.535,1.172-5.845,1.269-7.892,0.294c-2.05-0.973-3.328-0.109-3.328-0.109
		s0.512-2.448-1.354-2.813c-0.406-0.08-1.975-0.438-1.975-0.438s1.393-1.072,2.219-1.805c0.828-0.729,3.24-3.281,3.361-3.411
		c0.535-0.583,0.878,0.877,1.269,1.461c0.391,0.586,1.167-0.105,1.172-0.829c0.004-0.97-0.059-1.562-0.085-2.394
		c0.535-0.446,0.492-0.302,1.129-0.585c-0.065,0.777-0.087,1.807,0.173,2.153c0.44,0.583,1.846-0.145,1.504-2.337
		c-0.044-0.584,7.363-2.976,11.701-13.99c0,0,6.529-10.086-2.34-19.831c-1.897-0.438-0.293-0.634,0.731-1.608
		c1.025-0.974,0.051-3.558,1.124-3.852c0.749-0.204,4.771,11.697,5.261,13.45c0.484,1.754,1.658,7.701,3.216,9.064
		c1.656,0.976,9.622,19.177,1.73,28.532c-0.849,1.002-1.73-1.732-5.528-0.175c-3.807,1.563-0.517,8.946-0.026,10.118
		c0,0-1.581,3.916-5.558,7.892c-1.461,1.461-2.583,2.096-2.773,2.485c0,0-3.927-0.996-3.828-0.12
		c0.196,1.555,2.143,0.877,3.121,1.555c0,0-0.88,0.102-1.951,0.3c-1.072,0.19-0.897,1.401,0.172,1.341
		c2.338-0.15,5.869-0.174,7.333,8.207c0,0-1.464,0.101-1.854,0.685c-0.388,0.578,0.39,0.679,1.757,0.679
		c0.942,0,2.087,1.585,2.889,2.303c0.354,0.316,1.142,1.183,1.312,0.95c0.092-0.125-0.293-0.959-0.16-1.073
		c1.319-1.12,6.264-2.544,6.264-2.544s-1.313,12.229-11.257,8.919c-4.822-1.609-5.167-3.654-5.556-6.87
		c-0.387-3.219-2.363-8.409-4.897-8.118c-2.535,0.296-1.265,2.148-0.486,2.731c0.782,0.586,4.271,0.587,4.047,5.654
		c-0.438,9.749,14.329,11.305,17.786,3.461c1.526-3.463,0.729-15.646-1.39-23.907c-0.664-2.582,6.188-2.094,3.752-4.335
		c-3.146,1.608-3.252,1.28-3.995,2.241c-0.171,0.22-4.314-6.019-4.414-8.554c-0.096-2.533,1.759-4.091,4.099-1.752
		c2.34,2.337,3.553,3.413,5.406,6.186c0,0,6.917,12.915,7.064,27.538C342.949,100.132,340.403,111.84,326.809,111.182z
		 M319.34,79.27c-0.55-0.037-0.107-0.292,0.109-0.439c0.218-0.146,8.197-6.711,8.43-8.894c0.059-0.556,0.196-1.266,1.172,0.294
		c0.974,1.559,4.544,16.701,2.596,17.868c0,0-3.364,2.461-5.471,2.354c-0.615-0.029-1.062-1.354-1.901-1.278
		C324.382,89.207,323.944,80.879,319.34,79.27z"/>
	<path d="M313.843,49.48c-0.778,0.407-1.302,1.428-0.69,1.671c0.608,0.248,2.848,1.547,6.052,0.567
		c3.555-1.085,4.344-2.517,4.669-4.359C324.362,44.59,314.236,49.277,313.843,49.48z"/>
	<path d="M313.297,46.916c-0.805,0.438-1.413,1.537-0.46,1.831c0.947,0.293,5.113-4.265,9.136-3.191
		c0.822,0.219,1.554-1.282,1.021-1.808C320.314,41.097,313.497,46.806,313.297,46.916z"/>
</g>
<path fill="#FFFFFF" d="M138.874,110.467c-0.123-0.154-0.438-0.106-0.709,0.107c-0.049,0.039-0.522,0.19-0.522,0.502
	c0,0.208,0.171,0.38,0.378,0.38c0.135,0,0.235-0.085,0.302-0.189c0.095-0.033,0.192-0.06,0.286-0.136
	C138.876,110.92,138.996,110.618,138.874,110.467z"/>
<g enable-background="new    ">
	<path fill="#231F20" d="M74.956,122.729c0,0.79-0.2,1.396-0.599,1.815s-0.974,0.63-1.726,0.63c-0.736,0-1.363-0.145-1.879-0.434
		v-1.556c0.632,0.413,1.212,0.619,1.741,0.619c0.301,0,0.527-0.083,0.679-0.249c0.152-0.165,0.229-0.391,0.229-0.676
		c0-0.281-0.09-0.539-0.271-0.772c-0.182-0.233-0.48-0.492-0.896-0.777c-0.362-0.251-0.637-0.491-0.824-0.72
		c-0.187-0.229-0.332-0.487-0.434-0.772s-0.153-0.616-0.153-0.994c0-0.726,0.202-1.3,0.604-1.724s0.943-0.636,1.622-0.636
		c0.647,0,1.27,0.181,1.868,0.543l-0.521,1.261c-0.185-0.107-0.379-0.204-0.581-0.289c-0.203-0.085-0.419-0.127-0.65-0.127
		c-0.254,0-0.45,0.084-0.587,0.251c-0.137,0.168-0.206,0.396-0.206,0.686c0,0.285,0.082,0.534,0.246,0.746
		c0.164,0.212,0.45,0.453,0.858,0.723c0.551,0.37,0.936,0.748,1.154,1.134C74.847,121.795,74.956,122.235,74.956,122.729z"/>
	<path fill="#231F20" d="M78.801,117.86c-0.451,0-0.807,0.264-1.067,0.792s-0.39,1.263-0.39,2.203c0,1.959,0.511,2.938,1.532,2.938
		c0.447,0,0.916-0.143,1.405-0.428v1.399c-0.413,0.273-0.94,0.41-1.584,0.41c-0.952,0-1.684-0.378-2.194-1.136
		s-0.766-1.822-0.766-3.195c0-1.372,0.263-2.441,0.789-3.209c0.526-0.767,1.258-1.15,2.195-1.15c0.308,0,0.604,0.042,0.887,0.127
		c0.284,0.085,0.587,0.233,0.911,0.445l-0.521,1.278c-0.174-0.12-0.358-0.229-0.555-0.327S79.032,117.86,78.801,117.86z"/>
	<path fill="#231F20" d="M83.051,121.769v3.29h-1.573v-8.454h2.059c0.871,0,1.514,0.206,1.928,0.619
		c0.415,0.412,0.622,1.043,0.622,1.891c0,1.067-0.36,1.813-1.081,2.237l1.625,3.707h-1.683l-1.335-3.29H83.051z M83.051,120.415
		h0.405c0.37,0,0.636-0.104,0.798-0.315c0.162-0.21,0.243-0.522,0.243-0.939c0-0.432-0.086-0.739-0.257-0.922
		c-0.172-0.184-0.437-0.274-0.795-0.274h-0.393V120.415z"/>
	<path fill="#231F20" d="M91.21,125.059h-3.811v-8.454h3.811v1.359h-2.238v2.012h2.076v1.365h-2.076v2.342h2.238V125.059z"/>
	<path fill="#231F20" d="M96.252,125.059h-3.811v-8.454h3.811v1.359h-2.238v2.012h2.076v1.365h-2.076v2.342h2.238V125.059z"/>
	<path fill="#231F20" d="M103.406,125.059h-1.92l-2.614-6.124h-0.075c0.096,0.467,0.145,0.968,0.145,1.504v4.62h-1.457v-8.454h1.931
		l2.591,6.061h0.063c-0.073-0.405-0.11-0.887-0.11-1.446v-4.614h1.446V125.059z"/>
	<path fill="#231F20" d="M112.432,119.207c0,0.897-0.227,1.587-0.679,2.067c-0.453,0.479-1.107,0.72-1.963,0.72h-0.393v3.064h-1.573
		v-8.454h2.145C111.611,116.605,112.432,117.472,112.432,119.207z M109.396,120.629h0.301c0.385,0,0.672-0.105,0.861-0.317
		s0.284-0.56,0.284-1.041c0-0.443-0.087-0.772-0.26-0.986c-0.174-0.214-0.441-0.32-0.804-0.32h-0.381V120.629z"/>
	<path fill="#231F20" d="M115.069,121.769v3.29h-1.573v-8.454h2.059c0.871,0,1.514,0.206,1.928,0.619
		c0.415,0.412,0.622,1.043,0.622,1.891c0,1.067-0.36,1.813-1.081,2.237l1.625,3.707h-1.683l-1.335-3.29H115.069z M115.069,120.415
		h0.405c0.37,0,0.636-0.104,0.798-0.315c0.162-0.21,0.243-0.522,0.243-0.939c0-0.432-0.086-0.739-0.257-0.922
		c-0.172-0.184-0.437-0.274-0.795-0.274h-0.393V120.415z"/>
	<path fill="#231F20" d="M119.701,125.059v-8.454h1.48v8.454H119.701z"/>
	<path fill="#231F20" d="M128.889,125.059h-1.92l-2.614-6.124h-0.075c0.096,0.467,0.145,0.968,0.145,1.504v4.62h-1.457v-8.454h1.931
		l2.591,6.061h0.063c-0.073-0.405-0.11-0.887-0.11-1.446v-4.614h1.446V125.059z"/>
	<path fill="#231F20" d="M132.977,125.059h-1.567v-7.072h-1.619v-1.382h4.805v1.382h-1.619V125.059z"/>
	<path fill="#231F20" d="M135.782,125.059v-8.454h1.48v8.454H135.782z"/>
	<path fill="#231F20" d="M144.97,125.059h-1.92l-2.614-6.124h-0.075c0.096,0.467,0.145,0.968,0.145,1.504v4.62h-1.457v-8.454h1.931
		l2.591,6.061h0.063c-0.073-0.405-0.11-0.887-0.11-1.446v-4.614h1.446V125.059z"/>
	<path fill="#231F20" d="M149.018,120.369h2.585v4.337c-0.732,0.312-1.511,0.468-2.336,0.468c-0.983,0-1.739-0.373-2.27-1.121
		c-0.53-0.748-0.795-1.825-0.795-3.232c0-1.357,0.304-2.419,0.911-3.187c0.607-0.767,1.456-1.15,2.547-1.15
		c0.674,0,1.318,0.173,1.931,0.521l-0.497,1.283c-0.478-0.277-0.925-0.416-1.342-0.416c-0.598,0-1.071,0.267-1.419,0.801
		c-0.349,0.534-0.523,1.262-0.523,2.183c0,0.948,0.126,1.675,0.379,2.181c0.252,0.505,0.62,0.757,1.102,0.757
		c0.254,0,0.513-0.032,0.775-0.098v-1.938h-1.047V120.369z"/>
	<path fill="#231F20" d="M160.115,125.059l-0.411-0.59c-0.524,0.471-1.176,0.705-1.955,0.705c-0.74,0-1.314-0.21-1.723-0.63
		s-0.613-1.002-0.613-1.746c0-0.956,0.47-1.758,1.411-2.405c-0.297-0.459-0.493-0.821-0.59-1.088
		c-0.096-0.266-0.145-0.547-0.145-0.844c0-0.602,0.187-1.081,0.561-1.44c0.374-0.358,0.865-0.537,1.475-0.537
		c0.586,0,1.052,0.167,1.399,0.5c0.347,0.333,0.521,0.795,0.521,1.385c0,0.405-0.106,0.789-0.318,1.153s-0.566,0.733-1.064,1.107
		l1.18,1.66c0.131-0.239,0.233-0.505,0.307-0.798s0.137-0.584,0.191-0.874h1.341c-0.146,1.08-0.466,2.04-0.96,2.88l1.122,1.562
		H160.115z M156.969,122.654c0,0.358,0.085,0.64,0.254,0.844c0.17,0.205,0.401,0.307,0.694,0.307c0.385,0,0.725-0.143,1.018-0.428
		l-1.388-2.001C157.162,121.722,156.969,122.149,156.969,122.654z M158.623,118.507c0-0.25-0.051-0.433-0.153-0.546
		c-0.103-0.114-0.225-0.171-0.367-0.171c-0.178,0-0.318,0.062-0.422,0.188c-0.104,0.126-0.156,0.308-0.156,0.547
		c0,0.212,0.045,0.407,0.136,0.587c0.09,0.18,0.203,0.361,0.338,0.547c0.235-0.182,0.398-0.357,0.489-0.526
		C158.577,118.962,158.623,118.754,158.623,118.507z"/>
	<path fill="#231F20" d="M168.43,117.86c-0.451,0-0.807,0.264-1.067,0.792s-0.39,1.263-0.39,2.203c0,1.959,0.511,2.938,1.532,2.938
		c0.447,0,0.916-0.143,1.405-0.428v1.399c-0.413,0.273-0.94,0.41-1.584,0.41c-0.952,0-1.684-0.378-2.194-1.136
		s-0.766-1.822-0.766-3.195c0-1.372,0.263-2.441,0.789-3.209c0.526-0.767,1.258-1.15,2.195-1.15c0.308,0,0.604,0.042,0.887,0.127
		c0.284,0.085,0.587,0.233,0.911,0.445l-0.521,1.278c-0.174-0.12-0.358-0.229-0.555-0.327S168.661,117.86,168.43,117.86z"/>
	<path fill="#231F20" d="M176.306,116.605v5.471c0,1.006-0.228,1.774-0.683,2.304c-0.455,0.53-1.112,0.795-1.972,0.795
		c-0.84,0-1.48-0.263-1.919-0.789s-0.659-1.304-0.659-2.333v-5.447h1.561v5.562c0,1.076,0.356,1.613,1.07,1.613
		c0.332,0,0.588-0.137,0.769-0.41s0.272-0.663,0.272-1.168v-5.598H176.306z"/>
	<path fill="#231F20" d="M181.614,122.729c0,0.79-0.2,1.396-0.599,1.815s-0.975,0.63-1.727,0.63c-0.736,0-1.362-0.145-1.879-0.434
		v-1.556c0.633,0.413,1.213,0.619,1.74,0.619c0.301,0,0.527-0.083,0.68-0.249c0.152-0.165,0.229-0.391,0.229-0.676
		c0-0.281-0.09-0.539-0.271-0.772s-0.48-0.492-0.896-0.777c-0.362-0.251-0.637-0.491-0.824-0.72
		c-0.188-0.229-0.332-0.487-0.434-0.772s-0.153-0.616-0.153-0.994c0-0.726,0.202-1.3,0.604-1.724s0.943-0.636,1.622-0.636
		c0.647,0,1.271,0.181,1.868,0.543l-0.521,1.261c-0.185-0.107-0.379-0.204-0.58-0.289c-0.203-0.085-0.42-0.127-0.65-0.127
		c-0.255,0-0.451,0.084-0.588,0.251c-0.137,0.168-0.205,0.396-0.205,0.686c0,0.285,0.082,0.534,0.246,0.746s0.449,0.453,0.858,0.723
		c0.552,0.37,0.937,0.748,1.153,1.134C181.506,121.795,181.614,122.235,181.614,122.729z"/>
	<path fill="#231F20" d="M185.252,125.059h-1.567v-7.072h-1.619v-1.382h4.806v1.382h-1.619V125.059z"/>
	<path fill="#231F20" d="M193.434,120.821c0,1.399-0.263,2.475-0.787,3.227c-0.523,0.752-1.273,1.127-2.249,1.127
		c-0.979,0-1.731-0.374-2.255-1.124c-0.524-0.75-0.787-1.83-0.787-3.241c0-1.399,0.263-2.473,0.787-3.218
		c0.523-0.746,1.279-1.119,2.267-1.119c0.976,0,1.724,0.375,2.243,1.125C193.173,118.346,193.434,119.421,193.434,120.821z
		 M188.963,120.821c0,0.964,0.122,1.698,0.365,2.203c0.242,0.505,0.6,0.757,1.069,0.757c0.948,0,1.423-0.986,1.423-2.96
		s-0.471-2.961-1.411-2.961c-0.478,0-0.839,0.252-1.081,0.755C189.085,119.117,188.963,119.853,188.963,120.821z"/>
	<path fill="#231F20" d="M197.684,125.059l-1.607-7.199h-0.063c0.073,0.555,0.11,1.064,0.11,1.526v5.673h-1.457v-8.454h2.416
		l1.446,6.645h0.046l1.434-6.645h2.453v8.454h-1.492v-5.73c0-0.475,0.026-0.96,0.08-1.457h-0.046l-1.602,7.188H197.684z"/>
	<path fill="#231F20" d="M210.879,125.059l-0.485-2.134h-2.203l-0.485,2.134h-1.573l2.093-8.488h2.135l2.099,8.488H210.879z
		 M210.099,121.531l-0.451-1.966c-0.026-0.12-0.087-0.42-0.183-0.899c-0.094-0.479-0.15-0.801-0.17-0.963
		c-0.051,0.332-0.113,0.697-0.191,1.096c-0.076,0.399-0.277,1.31-0.602,2.732H210.099z"/>
	<path fill="#231F20" d="M217.812,119.207c0,0.897-0.227,1.587-0.68,2.067c-0.453,0.479-1.107,0.72-1.963,0.72h-0.393v3.064h-1.573
		v-8.454h2.146C216.992,116.605,217.812,117.472,217.812,119.207z M214.777,120.629h0.301c0.385,0,0.672-0.105,0.861-0.317
		c0.188-0.212,0.283-0.56,0.283-1.041c0-0.443-0.087-0.772-0.26-0.986c-0.174-0.214-0.441-0.32-0.805-0.32h-0.381V120.629z"/>
	<path fill="#231F20" d="M223.485,119.207c0,0.897-0.227,1.587-0.679,2.067c-0.453,0.479-1.107,0.72-1.964,0.72h-0.394v3.064h-1.572
		v-8.454h2.145C222.664,116.605,223.485,117.472,223.485,119.207z M220.449,120.629h0.301c0.386,0,0.673-0.105,0.861-0.317
		c0.189-0.212,0.284-0.56,0.284-1.041c0-0.443-0.087-0.772-0.261-0.986s-0.441-0.32-0.804-0.32h-0.382V120.629z"/>
	<path fill="#231F20" d="M228.314,125.059l-0.486-2.134h-2.203l-0.486,2.134h-1.572l2.094-8.488h2.133l2.1,8.488H228.314z
		 M227.533,121.531l-0.451-1.966c-0.027-0.12-0.088-0.42-0.182-0.899c-0.095-0.479-0.152-0.801-0.171-0.963
		c-0.05,0.332-0.114,0.697-0.19,1.096c-0.078,0.399-0.277,1.31-0.602,2.732H227.533z"/>
	<path fill="#231F20" d="M232.211,121.769v3.29h-1.572v-8.454h2.059c0.871,0,1.514,0.206,1.928,0.619
		c0.414,0.412,0.621,1.043,0.621,1.891c0,1.067-0.359,1.813-1.08,2.237l1.624,3.707h-1.683l-1.336-3.29H232.211z M232.211,120.415
		h0.404c0.371,0,0.637-0.104,0.799-0.315c0.162-0.21,0.242-0.522,0.242-0.939c0-0.432-0.086-0.739-0.257-0.922
		c-0.172-0.184-0.437-0.274-0.796-0.274h-0.393V120.415z"/>
	<path fill="#231F20" d="M240.37,125.059h-3.811v-8.454h3.811v1.359h-2.237v2.012h2.075v1.365h-2.075v2.342h2.237V125.059z"/>
	<path fill="#231F20" d="M241.602,125.059v-8.454h1.573v7.078h2.181v1.376H241.602z"/>
</g>
</svg>
