<?xml version="1.0" encoding="utf-8"?>
<!-- Generator: Adobe Illustrator 16.0.0, SVG Export Plug-In . SVG Version: 6.00 Build 0)  -->
<!DOCTYPE svg PUBLIC "-//W3C//DTD SVG 1.1//EN" "http://www.w3.org/Graphics/SVG/1.1/DTD/svg11.dtd">
<svg version="1.1" id="Layer_1" xmlns="http://www.w3.org/2000/svg" xmlns:xlink="http://www.w3.org/1999/xlink" x="0px" y="0px"
	 width="50px" height="50px" viewBox="0 0 50 50" enable-background="new 0 0 50 50" xml:space="preserve">
<path display="none" fill="#231F20" d="M50,18.132l-3.503-3.502c0.869-1.228,0.756-2.939-0.344-4.04l-7.5-7.501
	c0.363-1.008,0.394-1.732,0.032-2.093c-1.72-1.721-3.671-2.559-22.038,15.807C-1.718,35.169-0.88,37.12,0.841,38.841
	c0.36,0.36,1.084,0.33,2.093-0.033l7.501,7.501c1.206,1.207,3.146,1.228,4.379,0.064l3.472,3.472L50,18.132z M18.287,48.509
	l-2.801-2.8l30.378-30.378l2.799,2.801L18.287,48.509z M28.532,27.844c0.48-0.069,0.953,0.216,1.099,0.697
	c0.146,0.479-0.089,0.979-0.528,1.188L28.532,27.844z M28.817,29.814c-0.48,0.071-0.954-0.216-1.1-0.694
	c-0.146-0.48,0.09-0.982,0.529-1.189L28.817,29.814z M15.095,41.28c0.481-0.069,0.955,0.218,1.1,0.696
	c0.145,0.479-0.09,0.98-0.53,1.188L15.095,41.28z M15.382,43.252c-0.482,0.07-0.955-0.218-1.101-0.696
	c-0.145-0.48,0.091-0.981,0.53-1.188L15.382,43.252z M41.685,14.494l0.568,1.885c-0.48,0.07-0.953-0.216-1.1-0.696
	C41.01,15.204,41.243,14.702,41.685,14.494z M41.968,14.409c0.481-0.071,0.953,0.215,1.1,0.695c0.146,0.48-0.089,0.981-0.529,1.188
	L41.968,14.409z"/>
<g display="none">
	<g display="inline">
		<g>
			<path fill="#231F20" d="M45.237,27.754c0,0.307-0.228,0.555-0.507,0.555H26.385c-0.28,0-0.507-0.248-0.507-0.555l0,0
				c0-0.307,0.227-0.556,0.507-0.556H44.73C45.01,27.198,45.237,27.447,45.237,27.754L45.237,27.754z"/>
			<path fill="#231F20" d="M45.237,29.704c0,0.309-0.228,0.558-0.507,0.558H26.385c-0.28,0-0.507-0.249-0.507-0.558l0,0
				c0-0.309,0.227-0.559,0.507-0.559H44.73C45.01,29.146,45.237,29.396,45.237,29.704L45.237,29.704z"/>
			<path fill="#231F20" d="M45.237,31.654c0,0.31-0.228,0.561-0.507,0.561H26.385c-0.28,0-0.507-0.251-0.507-0.561l0,0
				c0-0.311,0.227-0.562,0.507-0.562H44.73C45.01,31.093,45.237,31.344,45.237,31.654L45.237,31.654z"/>
			<path fill="#231F20" d="M45.237,33.604c0,0.312-0.228,0.563-0.507,0.563H26.385c-0.28,0-0.507-0.252-0.507-0.563l0,0
				c0-0.312,0.227-0.565,0.507-0.565H44.73C45.01,33.039,45.237,33.292,45.237,33.604L45.237,33.604z"/>
			<path fill="#231F20" d="M45.237,35.555c0,0.312-0.228,0.566-0.507,0.566H26.385c-0.28,0-0.507-0.254-0.507-0.566l0,0
				c0-0.314,0.227-0.568,0.507-0.568H44.73C45.01,34.986,45.237,35.24,45.237,35.555L45.237,35.555z"/>
			<path fill="#231F20" d="M45.237,37.504c0,0.315-0.228,0.571-0.507,0.571H26.385c-0.28,0-0.507-0.256-0.507-0.571l0,0
				c0-0.314,0.227-0.57,0.507-0.57H44.73C45.01,36.934,45.237,37.189,45.237,37.504L45.237,37.504z"/>
			<path fill="#231F20" d="M45.237,39.454c0,0.317-0.228,0.573-0.507,0.573H26.385c-0.28,0-0.507-0.256-0.507-0.573l0,0
				c0-0.317,0.227-0.573,0.507-0.573H44.73C45.01,38.881,45.237,39.137,45.237,39.454L45.237,39.454z"/>
			<path fill="#231F20" d="M45.237,41.404c0,0.319-0.228,0.577-0.507,0.577H26.385c-0.28,0-0.507-0.258-0.507-0.577l0,0
				c0-0.318,0.227-0.576,0.507-0.576H44.73C45.01,40.828,45.237,41.086,45.237,41.404L45.237,41.404z"/>
			<path fill="#231F20" d="M45.237,43.354c0,0.32-0.228,0.58-0.507,0.58H26.385c-0.28,0-0.507-0.26-0.507-0.58l0,0
				c0-0.32,0.227-0.58,0.507-0.58H44.73C45.01,42.774,45.237,43.034,45.237,43.354L45.237,43.354z"/>
			<path fill="#231F20" d="M45.237,45.305c0,0.322-0.228,0.583-0.507,0.583H26.385c-0.28,0-0.507-0.261-0.507-0.583l0,0
				c0-0.322,0.227-0.583,0.507-0.583H44.73C45.01,44.722,45.237,44.982,45.237,45.305L45.237,45.305z"/>
		</g>
		<path fill="#231F20" d="M47.85,24.766c0,0.793-0.644,1.438-1.438,1.438H24.703c-0.793,0-1.436-0.644-1.436-1.438l0,0
			c0-0.793,0.643-1.436,1.436-1.436h21.709C47.206,23.33,47.85,23.972,47.85,24.766L47.85,24.766z"/>
		<path fill="#231F20" d="M47.85,48.319c0,0.794-0.644,1.437-1.438,1.437H24.703c-0.793,0-1.436-0.643-1.436-1.437l0,0
			c0-0.792,0.643-1.436,1.436-1.436h21.709C47.206,46.884,47.85,47.527,47.85,48.319L47.85,48.319z"/>
	</g>
	<path display="inline" fill="none" stroke="#231F20" stroke-width="1.1807" stroke-linecap="round" stroke-miterlimit="10" d="
		M5.598,28.657c-5.957,5.956-3.69,15.2,2.952,17.856c6.642,2.657,15.792-2.803,15.792-2.803"/>
	<path display="inline" fill="#231F20" d="M33.221,0.25C32.782-0.188,6.183,25.699,6.183,25.699
		c-0.646,0.646-0.679,1.392-0.24,1.829c0.436,0.437,1.008,0.582,1.829-0.24C7.772,27.288,33.659,0.689,33.221,0.25z M8.3,25.807
		c-0.876,0.877-1.729,1.444-1.905,1.269s0.393-1.028,1.27-1.904c0.875-0.876,1.728-1.444,1.904-1.269
		C9.744,24.078,9.176,24.93,8.3,25.807z"/>
</g>
<g>
	<path fill="none" stroke="#231F20" stroke-width="1.2047" stroke-miterlimit="10" d="M42.273,42.505
		c0,1.663-6.927-2.116-18.975,1.599c-8.635,2.662-17.569,0.064-17.569-1.599V18.61c0-1.663,1.349-3.012,3.012-3.012h37.282
		c-0.433,0.012-3.448,0.139-4.252,3.903c-0.545,2.555,0.502,4.506,0.502,4.527V42.505z"/>
	<g>
		<path fill="#231F20" d="M45.581,14.993c-2.44,0-4.419,2.558-4.419,5.714s1.979,5.714,4.419,5.714S50,23.863,50,20.707
			S48.021,14.993,45.581,14.993z M45.562,25.302c-1.977,0-3.578-2.057-3.578-4.595s1.602-4.595,3.578-4.595
			c1.978,0,3.579,2.057,3.579,4.595S47.539,25.302,45.562,25.302z"/>
		<ellipse fill="#231F20" cx="45.562" cy="20.707" rx="1.753" ry="2.252"/>
	</g>
	<g>
		<path fill="#231F20" d="M36.544,31.658c0,1.663-6.928-2.116-18.975,1.599C8.935,35.919,0,33.321,0,31.658V7.764
			c0-1.663,1.348-3.012,3.012-3.012h37.282c1.663,0-3.75,1.349-3.75,3.012l-0.796,2.352l0.796,4.718v4.367V31.658z"/>
		<g>
			<path fill="#231F20" d="M39.806,4.752c-2.441,0-4.419,2.558-4.419,5.714s1.978,5.714,4.419,5.714c2.44,0,4.418-2.558,4.418-5.714
				S42.246,4.752,39.806,4.752z M39.786,15.062c-1.977,0-3.579-2.057-3.579-4.595c0-2.538,1.603-4.595,3.579-4.595
				s3.579,2.058,3.579,4.595C43.365,13.005,41.763,15.062,39.786,15.062z"/>
			<ellipse fill="#231F20" cx="39.786" cy="10.467" rx="1.754" ry="2.252"/>
		</g>
	</g>
</g>
</svg>
