<svg id="camera" xmlns="http://www.w3.org/2000/svg" viewBox="0 0 16 16"><title>icons</title><path d="M8,10.69a2.1,2.1,0,1,1,2.1-2.1A2.1,2.1,0,0,1,8,10.69ZM8,7.13A1.48,1.48,0,1,0,9.5,8.61,1.48,1.48,0,0,0,8,7.13Z"/><path d="M12.77,13.07H3.26a1.51,1.51,0,0,1-1.5-1.5V6.22a1.51,1.51,0,0,1,1.5-1.5H4.68A0.2,0.2,0,0,0,4.85,4.6L5.22,3.49A0.85,0.85,0,0,1,6,2.93h4a0.81,0.81,0,0,1,.76.56L11.15,4.6a0.2,0.2,0,0,0,.17.12h1.42a1.51,1.51,0,0,1,1.5,1.5v5.35A1.45,1.45,0,0,1,12.77,13.07ZM3.26,5.34a0.89,0.89,0,0,0-.88.88v5.35a0.89,0.89,0,0,0,.88.88h9.5a0.89,0.89,0,0,0,.88-0.88V6.22a0.89,0.89,0,0,0-.88-0.88H11.35a0.81,0.81,0,0,1-.76-0.56L10.22,3.67a0.2,0.2,0,0,0-.17-0.12H6a0.2,0.2,0,0,0-.17.12L5.45,4.8a0.85,0.85,0,0,1-.76.56H3.26v0Z"/><path d="M8,11.88a3.29,3.29,0,1,1,3.27-3.29A3.29,3.29,0,0,1,8,11.88ZM8,5.94a2.66,2.66,0,1,0,2.67,2.65A2.67,2.67,0,0,0,8,5.94Z"/><path d="M12.35,6.22a0.42,0.42,0,1,1-.42.42,0.41,0.41,0,0,1,.42-0.42m0-.46a0.88,0.88,0,1,0,.88.88,0.89,0.89,0,0,0-.88-0.88h0Z"/></svg>