<svg id="sketch" xmlns="http://www.w3.org/2000/svg" viewBox="0 0 16 16"><title>icons</title><path d="M12.12,1.38c-0.49,0-2.2,1.71-2.2,1.71h0l-7.2,7.2h0a0.35,0.35,0,0,0-.06.09v0h0L1.4,14.15a0.35,0.35,0,0,0,.33.46l0.11,0,3.72-1.24h0l0.09-.06h0l7.2-7.2h0l0.74-.74a2.74,2.74,0,0,0,1-1.57A5.18,5.18,0,0,0,12.12,1.38ZM10.67,3.29L11.18,3.8,4,10.94l-0.51-.51ZM4.29,11.2l7.14-7.14,0.51,0.51L4.8,11.71ZM2.54,13L3,13.46l-0.67.23Zm0.83,0.32-0.7-.7L3.18,11.1,4.9,12.82Zm2.2-.86L5.06,12,12.2,4.82l0.51,0.51ZM12.9,5.08l-2-2a3.75,3.75,0,0,1,1.24-1,3.89,3.89,0,0,1,1.76,1.67A4,4,0,0,1,12.9,5.08Z"/></svg>