<?xml version="1.0" encoding="utf-8"?>
<!-- Generator: Adobe Illustrator 19.2.1, SVG Export Plug-In . SVG Version: 6.00 Build 0)  -->
<svg version="1.1" id="mobileFr" xmlns="http://www.w3.org/2000/svg" xmlns:xlink="http://www.w3.org/1999/xlink" x="0px" y="0px"
	 viewBox="0 0 16 16" style="enable-background:new 0 0 16 16;" xml:space="preserve">
<title>icons</title>
<path d="M11.9,2.7c-0.1-0.1-0.3-0.1-0.4-0.1c-0.1,0-0.2,0-0.2,0c-0.3,0.1-0.5,0.2-0.7,0.5L6.9,9L5.2,7.1C5,6.9,4.8,6.8,4.5,6.8
	c-0.2,0-0.5,0.1-0.6,0.2C3.5,7.4,3.5,8,3.8,8.3L6.4,11c0.2,0.2,0.4,0.3,0.7,0.3c0.2,0,0.4-0.1,0.6-0.2c0.1-0.1,0.1-0.1,0.2-0.2
	l4.5-6.9C12.5,3.5,12.4,2.9,11.9,2.7z"/>
<path d="M4.9,6.4V3.1c0-0.6,0.4-1,1-1h4.3c0.3,0,0.6,0.2,0.8,0.4c0.2-0.2,0.4-0.3,0.7-0.3c0.1,0,0.2,0,0.2,0
	c-0.2-0.4-0.6-0.7-1.2-0.7h0H5.4C4.7,1.4,4.1,2,4.1,2.7v4C4.3,6.5,4.6,6.4,4.9,6.4z"/>
<path d="M11.2,7.3l0,4.4c0,0.6-0.4,1-1,1H5.8c-0.6,0-1-0.4-1-1v-2L4,8.8v4.6c0,0.7,0.6,1.3,1.3,1.3h5.4c0.7,0,1.3-0.6,1.3-1.3V6
	L11.2,7.3z M9.4,13.8c0,0.1-0.1,0.2-0.2,0.2H6.8c-0.1,0-0.2-0.1-0.2-0.2v-0.3h0c0-0.1,0.1-0.2,0.2-0.2h2.4c0.1,0,0.2,0.1,0.2,0.2
	V13.8z"/>
</svg>
