<svg id="jersey" xmlns="http://www.w3.org/2000/svg" viewBox="0 0 16 16"><title>icons</title><path d="M9.82,14H6.09a1.8,1.8,0,0,1-1.82-1.82V7.55a1.84,1.84,0,0,1-2-.31L1.85,6.78a1.72,1.72,0,0,1-.55-1.26,1.79,1.79,0,0,1,.49-1.29A19.52,19.52,0,0,1,4,2.38,3.65,3.65,0,0,1,5.63,2c0.15,0,.31,0,0.43,0h0a0.35,0.35,0,0,1,.25.09,0.38,0.38,0,0,1,.12.25,1.48,1.48,0,0,0,3,0,0.28,0.28,0,0,1,.12-0.25A0.35,0.35,0,0,1,9.79,2H9.85a2.33,2.33,0,0,0,.46,0,3.65,3.65,0,0,1,1.6.34A19.55,19.55,0,0,1,14.12,4.2a1.81,1.81,0,0,1-.06,2.58l-0.4.43a1.77,1.77,0,0,1-1.26.49h0a2.14,2.14,0,0,1-.77-0.15v4.62A1.82,1.82,0,0,1,9.82,14ZM4.59,5.92h0a0.34,0.34,0,0,1,.34.34V12.2a1.14,1.14,0,0,0,1.14,1.14H9.79a1.14,1.14,0,0,0,1.14-1.14v-6a0.34,0.34,0,0,1,.34-0.34h0a0.34,0.34,0,0,1,.34.34V6.78a1.17,1.17,0,0,0,1.54,0l0.4-.43a1.14,1.14,0,0,0,.06-1.63A20.44,20.44,0,0,0,11.54,3a3.34,3.34,0,0,0-1.29-.25H10.06A2.12,2.12,0,0,1,8,4.51,2.14,2.14,0,0,1,5.88,2.75H5.69A3.71,3.71,0,0,0,4.31,3,21.26,21.26,0,0,0,2.22,4.72a1.07,1.07,0,0,0-.28.8,1.15,1.15,0,0,0,.37.8L2.74,6.78a1.09,1.09,0,0,0,.77.31,1.18,1.18,0,0,0,.77-0.28V6.26A0.3,0.3,0,0,1,4.59,5.92Z"/><path d="M7.19,5.33a0.21,0.21,0,0,1,.15.06,0.21,0.21,0,0,1,.06.15v3a0.21,0.21,0,0,1-.06.15,0.22,0.22,0,0,1-.3,0A0.21,0.21,0,0,1,7,8.51V6.06l-0.32.32a0.21,0.21,0,0,1-.15.06,0.21,0.21,0,0,1-.22-0.21,0.21,0.21,0,0,1,.06-0.15L7,5.39A0.21,0.21,0,0,1,7.19,5.33Z"/><path d="M9.65,7.54V7.85a0.87,0.87,0,0,1-.87.87h0a0.87,0.87,0,0,1-.87-0.87V6.2a0.87,0.87,0,0,1,.87-0.87h0a0.87,0.87,0,0,1,.82.59,0.2,0.2,0,0,1,0,.19,0.21,0.21,0,0,1-.18.09,0.2,0.2,0,0,1-.2-0.14A0.43,0.43,0,0,0,9,5.84a0.43,0.43,0,0,0-.26-0.08h0a0.43,0.43,0,0,0-.31.13,0.42,0.42,0,0,0-.13.31V6.8a0.86,0.86,0,0,1,.44-0.12h0a0.84,0.84,0,0,1,.6.24,0.83,0.83,0,0,1,.27.58A0.27,0.27,0,0,1,9.65,7.54Zm-0.43,0a0.44,0.44,0,0,0-.44-0.44h0a0.43,0.43,0,0,0-.31.13,0.42,0.42,0,0,0-.13.31v0.3a0.44,0.44,0,0,0,.44.44h0a0.44,0.44,0,0,0,.44-0.44V7.55Z"/></svg>