<svg id="brainstorm" xmlns="http://www.w3.org/2000/svg" viewBox="0 0 16 16"><title>icons</title><path d="M14.38,12.44c-0.06-.08-0.36-0.4-0.79-0.88a1,1,0,0,0,.21-0.43,1,1,0,0,0-.31-0.92,1.13,1.13,0,0,0,.34-0.91,1.43,1.43,0,0,0-1.21-1.16c0.21-1-1-2.15-2.77-2.55a4.86,4.86,0,0,0-2.29,0,2,2,0,0,0-1.12.69A2.27,2.27,0,0,0,4,6.13,2.76,2.76,0,0,0,2.75,7.22a1.63,1.63,0,0,0-.22,1.1,1.64,1.64,0,0,0-.76.51,2.16,2.16,0,0,0-.48,1.37,1.86,1.86,0,0,0,1.62,2,1.53,1.53,0,0,0,.4.61,2.28,2.28,0,0,0,1.27.56l0.3,0A2.2,2.2,0,0,0,6,13.11a1.66,1.66,0,0,0,.26-0.18,1.47,1.47,0,0,0,.51.47,2.14,2.14,0,0,0,1,.21H8.15a4.38,4.38,0,0,0,2.39-1.15,11.41,11.41,0,0,1,2.86,1.25,0.79,0.79,0,0,0,1-.09A0.8,0.8,0,0,0,14.38,12.44Zm-0.85.73a11.64,11.64,0,0,0-2-1.12A2.51,2.51,0,0,1,12,12a0.36,0.36,0,1,0,0-.71c-1.36.07-2.57,1.6-3.82,1.6a2.38,2.38,0,0,1-1-.11,0.7,0.7,0,0,1-.39-0.63,1.7,1.7,0,0,0-.45-1.06,2.29,2.29,0,0,0-1.18-.53,0.36,0.36,0,0,0-.11.7,1.63,1.63,0,0,1,.82.36A0.51,0.51,0,0,1,6,12a0.32,0.32,0,0,0,0,0,0.73,0.73,0,0,1-.36.42,1.58,1.58,0,0,1-.94.16,1.73,1.73,0,0,1-.87-0.38,0.91,0.91,0,0,1-.14-1.45,0.94,0.94,0,0,1,.55-0.32,0.36,0.36,0,0,0-.14-0.7,1.64,1.64,0,0,0-1,.57,2,2,0,0,0-.29,1.06A1.19,1.19,0,0,1,2,10.21a1.44,1.44,0,0,1,.32-0.92A0.87,0.87,0,0,1,3,9H3A0.36,0.36,0,0,0,3.35,8.6a1,1,0,0,1,0-1,2.19,2.19,0,0,1,.9-0.8,1.9,1.9,0,0,1,1.33-.15l-0.13,0a1.26,1.26,0,0,0-.67.85,0.36,0.36,0,0,0,.27.42H5.15A0.36,0.36,0,0,0,5.5,7.66a0.56,0.56,0,0,1,.3-0.37,0.92,0.92,0,0,1,.63-0.07A0.35,0.35,0,0,0,6.83,7a1.18,1.18,0,0,1,.9-0.76,4.4,4.4,0,0,1,1.94,0C11.15,6.61,12,7.46,11.92,8a0.34,0.34,0,0,0,0,0H11.74a0.36,0.36,0,0,0-.33.38,0.35,0.35,0,0,0,.38.33,1.16,1.16,0,0,1,1.32.59,0.43,0.43,0,0,1-.31.49,0.42,0.42,0,0,0-.29.32,0.36,0.36,0,0,0,.27.43,0.37,0.37,0,0,1,.33.38,0.21,0.21,0,0,1,0,0h0a0.36,0.36,0,0,0-.53.48l0.3,0.27,0,0,1.09,1C14.25,13,14,13.47,13.52,13.17Z"/><path d="M8.93,8.9A1.54,1.54,0,0,0,7.71,10a2.41,2.41,0,0,0-.94,0,0.36,0.36,0,0,0,.14.7,1.62,1.62,0,0,1,.89.05,0.5,0.5,0,0,1,.34.32,0.35,0.35,0,0,0,.35.29H8.57a0.36,0.36,0,0,0,.28-0.42,1.08,1.08,0,0,0-.44-0.65,0.77,0.77,0,0,1,.67-0.66A0.36,0.36,0,0,0,8.93,8.9Z"/><path d="M9.82,6.86a2.33,2.33,0,0,0-1.29-.09,0.36,0.36,0,0,0,.14.7,1.62,1.62,0,0,1,.89.05,0.5,0.5,0,0,1,.34.32,0.35,0.35,0,0,0,.35.29h0.07A0.36,0.36,0,0,0,10.6,7.7,1.19,1.19,0,0,0,9.82,6.86Z"/><path d="M10,5.2a0.35,0.35,0,0,0,.17,0,0.36,0.36,0,0,0,.31-0.19l1-1.83a0.36,0.36,0,1,0-.63-0.34l-1,1.83A0.36,0.36,0,0,0,10,5.2Z"/><path d="M4.85,5.36A0.36,0.36,0,1,0,5.43,5L4.24,3.25a0.36,0.36,0,1,0-.58.41Z"/><path d="M7.32,4.92a0.36,0.36,0,0,0,.36-0.36V2.21a0.36,0.36,0,0,0-.71,0V4.57A0.36,0.36,0,0,0,7.32,4.92Z"/></svg>