<svg id="develop" xmlns="http://www.w3.org/2000/svg" viewBox="0 0 16 16"><title>icons</title><path d="M9.4,3.83L7.66,9.21a0.16,0.16,0,0,1-.15.11H6.75c-0.08,0-.13-0.05-0.1-0.16L8.38,3.81A0.23,0.23,0,0,1,8.6,3.65H9.3C9.4,3.65,9.43,3.71,9.4,3.83Z"/><path d="M9.61,8.52V7.88a0.24,0.24,0,0,1,.1-0.2l1.57-1.13a0.1,0.1,0,0,0,0-.16L9.7,5.25a0.2,0.2,0,0,1-.08-0.16V4.43c0-.14.11-0.17,0.24-0.07l2.81,2a0.14,0.14,0,0,1,0,.23l-2.85,2C9.73,8.69,9.61,8.67,9.61,8.52Z"/><path d="M6.3,4.44V5.08a0.24,0.24,0,0,1-.1.2L4.62,6.41a0.1,0.1,0,0,0,0,.16L6.21,7.71a0.2,0.2,0,0,1,.08.16V8.53c0,0.14-.11.17-0.24,0.07l-2.81-2a0.14,0.14,0,0,1,0-.23l2.85-2C6.19,4.27,6.3,4.29,6.3,4.44Z"/><path d="M13.45,2.28h-11A1.08,1.08,0,0,0,1.39,3.36v7.39a1.08,1.08,0,0,0,1.07,1.08H6.15l0,1.44H5a0.26,0.26,0,0,0,0,.51h6a0.26,0.26,0,0,0,0-.51H9.64l0-1.44h3.84a1.08,1.08,0,0,0,1.07-1.08V3.36A1.08,1.08,0,0,0,13.45,2.28ZM8,11.45A0.48,0.48,0,1,1,8.43,11,0.48,0.48,0,0,1,8,11.45Zm5.91-2.21a0.86,0.86,0,0,1-.86.86H2.9A0.86,0.86,0,0,1,2,9.25V3.71A0.86,0.86,0,0,1,2.9,2.85H13a0.86,0.86,0,0,1,.86.86V9.25Z"/></svg>