<svg id="mrking" xmlns="http://www.w3.org/2000/svg" viewBox="0 0 16 16"><title>icons</title><path d="M6.91,3.55V2.7H1.78v3H2.59V6.55H7.71v-3H6.91ZM2.28,5.2v-2H6.41v2H2.28ZM7.21,6.05H3.09V5.7H6.91V4.05h0.3v2Z"/><rect x="3.09" y="3.79" width="2.44" height="0.25"/><rect x="3.48" y="4.32" width="1.67" height="0.25"/><path d="M14.65,12.31V2.86h-5V3.72H8.78v9.45h5V12.31h0.87Zm-5.37.36V4.22h4v8.45h-4Zm0.86-9.31h4v8.45H13.78V3.72H10.14V3.37Z"/><circle cx="10.28" cy="5.28" r="0.66"/><rect x="11.43" y="4.93" width="1.44" height="0.25"/><rect x="11.43" y="5.39" width="1.44" height="0.25"/><rect x="9.56" y="6.81" width="1.44" height="0.25"/><rect x="9.56" y="7.26" width="1.44" height="0.25"/><rect x="9.56" y="7.71" width="1.44" height="0.25"/><rect x="9.56" y="8.16" width="1.44" height="0.25"/><rect x="9.56" y="10.67" width="3.37" height="0.25"/><rect x="9.56" y="11.12" width="3.37" height="0.25"/><rect x="9.56" y="11.57" width="3.37" height="0.25"/><rect x="9.56" y="12.02" width="3.37" height="0.25"/><path d="M12.93,10.24H11.36V8.68h1.56v1.56ZM11.61,10h1.06V8.93H11.61V10Z"/><path d="M12.93,8.37H11.36V6.81h1.56V8.37Zm-1.31-.25h1.06V7.06H11.61V8.12Z"/><path d="M11.06,10.24H9.5V8.68h1.56v1.56ZM9.75,10h1.06V8.93H9.75V10Z"/><circle cx="4.74" cy="8.9" r="0.7"/><rect x="3.34" y="9.89" width="2.94" height="0.24"/><rect x="2.1" y="10.44" width="2.4" height="0.24"/><rect x="5.03" y="10.44" width="2.5" height="0.24"/><path d="M1.27,7.43v4.08H2.7V14.6H3.19V13.07H6.48V14.6H7V11.52H8.36V7.43H1.27Zm5.21,5.15H3.19V11.52H6.48v1.07ZM7.87,11H1.76V7.92H7.87V11Z"/></svg>