<?xml version="1.0" encoding="utf-8"?>
<!-- Generator: Adobe Illustrator 19.2.1, SVG Export Plug-In . SVG Version: 6.00 Build 0)  -->
<svg version="1.1" id="Layer_1" xmlns="http://www.w3.org/2000/svg" xmlns:xlink="http://www.w3.org/1999/xlink" x="0px" y="0px"
	 viewBox="0 0 69.3 41.7" style="enable-background:new 0 0 69.3 41.7;" xml:space="preserve">
<g>
	
		<image style="overflow:visible;opacity:0.75;enable-background:new    ;" width="87" height="46" xlink:href="F2C89EB7309025A.png"  transform="matrix(0.7625 0 0 0.8325 1.3333 1.1856)">
	</image>
	<g>
		<path d="M42.4,11.5c-0.5,0-1,0-1.6,0c-0.1,0-0.2-0.1-0.3-0.1c-0.1-0.1-0.1-0.1-0.1-0.1c-0.2,0-0.3,0-0.5,0c-0.1,0-0.1,0.1-0.1,0.1
			l0.1,0.1c0.1,0,0.3,0,0.3,0c0.1,0,0.2,0,0.3,0.1c0.1,0.1,0.1,0.1,0.3,0.1c0.3,0,0.7,0,1,0c0.1,0,0.1,0,0.1,0.1
			c0.1,0.1,0.2,0.1,0.3,0.1c0.3,0,0.5,0,0.8,0c0.1,0,0.2,0,0.3,0.1c0.1,0.1,0.1,0.1,0.3,0.1c0.3,0,0.7,0,1,0c0.1,0,0.1,0,0.1,0.1
			c0.1,0.1,0.2,0.1,0.3,0.1c0.1,0,0.3,0,0.3,0c0.2,0,0.3,0,0.5,0.1c0.1,0.1,0.3,0.1,0.4,0.1c0.1,0,0.3,0,0.3,0.1
			c0.1,0.1,0.2,0.1,0.3,0.1c0.1,0,0.3,0,0.3,0c0.2,0,0.3,0,0.5,0.1c0.1,0.1,0.3,0.1,0.5,0.1c0.1,0,0.2,0,0.3,0.1s0.2,0.1,0.3,0.1
			c0.1,0,0.3,0,0.5,0c0.1,0,0.3,0.2,0.4,0.1c0.1,0,0.3,0,0.3,0c0.2,0.2,0.5,0.1,0.7,0.2c0.1,0,0.1,0.1,0.3,0.1
			c0.1,0.1,0.3,0,0.5,0.1c0.1,0.1,0.3,0.2,0.4,0.1c0.1,0,0.1,0,0.2,0c0.1,0,0.1,0,0.1,0.1c0.2,0.2,0.5,0.1,0.7,0.3
			c0.2,0.1,0.5,0.1,0.7,0.3c0.3-0.1,0.5,0.3,0.8,0.2c0.2,0.1,0.4,0.2,0.6,0.3c0.2,0.1,0.4,0.1,0.6,0.2c0.1,0.1,0.2,0,0.3,0.1
			c0.4,0.3,0.9,0.4,1.3,0.7c0.1,0.1,0.3,0.1,0.5,0.3c0.1,0.1,0.2,0.1,0.3,0.2c0.1,0.1,0.3,0.1,0.4,0.2c0.2,0.1,0.3,0.3,0.5,0.3
			c0.1,0.1,0.3,0.3,0.4,0.3c0.3,0.3,0.5,0.5,0.8,0.8c0.1,0.2,0.3,0.3,0.5,0.5c0.1,0.2,0.2,0.5,0.3,0.7c0.1,0.1,0.1,0.1,0.1,0.3
			c0,0.2,0.3,0.4,0.2,0.7c0,0.1,0,0.2,0.1,0.3c0.1,0.1,0.1,0.3,0.1,0.4c0.1,0.1,0.1,0.2,0.1,0.3s0.1,0.3,0.1,0.4
			c0.1,0.1,0,0.3,0.1,0.3c0.1,0.2,0.1,0.4,0.1,0.6v0.1c0.3,0.4,0.1,0.8,0.1,1.2v0.1c-0.1,0.1-0.1,0.2-0.1,0.3c0,0.1-0.1,0.2-0.1,0.3
			c-0.1,0.1-0.1,0.2-0.1,0.3c-0.1,0.2-0.2,0.4-0.4,0.6c-0.4,0.4-0.9,0.8-1.3,1.3c-0.1,0.1-0.1,0.1-0.1,0.1c-0.3,0-0.3,0.3-0.6,0.4
			c-0.1,0.1-0.2,0.1-0.3,0.1c-0.3,0.1-0.6,0.2-0.9,0.3c-0.2,0.1-0.4,0.2-0.6,0.3c-0.2,0.1-0.4,0.1-0.6,0.2c-0.1,0.1-0.3,0.1-0.5,0.3
			c-0.3-0.1-0.4,0.2-0.7,0.2c-0.1,0-0.1,0-0.2,0.1c-0.3,0.2-0.7,0.3-1,0.5c-0.1,0.1-0.1,0.1-0.2,0.1c-0.1,0.1-0.3,0.2-0.5,0.2
			c-0.1,0-0.1,0.1-0.2,0.2c-0.1,0.2-0.2,0.3-0.5,0.3c-0.1,0-0.2,0-0.3,0.1c-0.1,0.1-0.1,0.1-0.3,0.1c-0.3,0-0.5,0.3-0.8,0.2
			c-0.2-0.1-0.3,0-0.5,0.1c-0.1,0.1-0.1,0.1-0.3,0.1c-0.1,0-0.2,0-0.3,0C50.6,31,50.2,31,50,31c-0.1,0-0.2,0-0.3,0.1
			c-0.1,0.1-0.1,0.1-0.3,0.1c-0.2,0-0.4,0-0.6,0c-0.1,0-0.1,0-0.1,0.1c-0.1,0.1-0.3,0.1-0.4,0.1c-0.1,0-0.3,0-0.4,0.1
			c-0.1,0-0.1,0.1-0.1,0.1c-0.3,0-0.5-0.1-0.8,0.1c-0.2,0-0.3,0-0.5,0c-0.1,0-0.2,0.1-0.3,0.1c-0.1,0.1-0.3,0-0.3,0.1
			C45.6,32,45.4,32,45.1,32H45c-0.3,0.3-0.6,0.1-1,0.1c-0.2,0-0.3,0-0.5,0.1c-0.1,0.1-0.1,0.1-0.3,0.1c-0.1,0-0.2,0-0.3,0
			c-0.3,0.2-0.5,0.1-0.9,0.2c-0.1,0-0.1,0.1-0.1,0.1c-0.1,0.1-0.3,0.1-0.4,0.1c-0.1,0-0.2,0-0.3,0.1c-0.1,0.1-0.1,0.1-0.3,0.1
			c-0.2,0-0.3,0-0.5,0.1c-0.1,0.1-0.2,0.1-0.3,0.1c-0.2,0-0.5-0.1-0.7,0.1c-0.1,0-0.2,0-0.3,0c-0.1,0-0.2,0-0.3,0.1
			s-0.1,0.1-0.3,0.1c-0.2,0-0.4,0-0.6,0c-0.1,0-0.1,0-0.1,0.1c-0.1,0.1-0.3,0.1-0.5,0.1c-0.1,0-0.1,0-0.2,0c-0.1,0-0.2,0.1-0.3,0.1
			c-0.2,0.1-0.6,0.1-0.9,0c-0.1-0.1-0.3-0.1-0.4-0.1c-0.1,0-0.1,0.1-0.1,0.1c0,0,0,0.1,0.1,0.1c0.1,0.1,0.1,0.1-0.1,0.1
			c-0.3,0-0.8,0-1.1,0c-0.1,0-0.2,0-0.3-0.1C34,34,34,34,33.8,34c-0.1,0-0.3,0-0.3,0c-0.2,0-0.4,0-0.6-0.2c-0.2,0-0.3-0.1-0.5,0
			c-0.3,0.1-0.5-0.1-0.7-0.2c-0.1-0.1-0.2-0.2-0.3-0.3c-0.1-0.1-0.2-0.1-0.3-0.1c-0.1-0.1-0.1-0.1-0.2-0.3c-0.1-0.2-0.2-0.3-0.2-0.6
			c0-0.1-0.1-0.1-0.1-0.2c0-0.1,0.1-0.1,0.1-0.2c0-0.2,0-0.3,0-0.5c0-0.1,0-0.1,0.1-0.1c0.1-0.1,0.1-0.3,0-0.4
			c-0.1-0.2-0.1-0.4,0-0.6l0.1-0.1c0-0.3,0.2-0.5,0.3-0.8c0.1-0.2,0.1-0.5,0.2-0.7c0.1-0.1,0-0.2,0-0.3c0-0.1,0.1-0.2,0.1-0.3
			c0.1-0.1,0.1-0.3,0.1-0.4c0-0.1-0.1-0.1-0.1-0.1c-0.2,0-0.3,0.2-0.5,0.2c-0.2,0.2-0.5,0.3-0.7,0.5c-0.4,0.3-1,0.5-1.4,0.8
			c-0.4,0-0.7,0.3-1.1,0.5c-0.1,0.1-0.3,0.1-0.4,0.2c-0.1,0.1-0.3,0.1-0.4,0.1c-0.1,0.1-0.3,0.2-0.4,0.1c-0.1,0-0.3,0.1-0.4,0.1
			c-0.2,0-0.4,0.1-0.5,0.3c-0.1,0.1-0.2,0.1-0.3,0.1c-0.2,0-0.3,0.1-0.5,0.1c-0.1,0.1-0.3,0-0.4,0.1c-0.1,0.1-0.3,0.1-0.4,0.2
			c-0.1,0-0.1,0.1-0.1,0.1c-0.2,0-0.4,0.2-0.6,0.2s-0.3,0.2-0.6,0.2c-0.2,0-0.3,0.2-0.6,0.2c-0.1,0.1-0.3,0.1-0.5,0.1
			c-0.1,0-0.2,0.1-0.3,0.1c-0.1,0.1-0.3,0-0.4,0.1c-0.1,0.1-0.3,0.1-0.5,0.1c-0.1,0.1-0.3,0.1-0.5,0.1s-0.3,0.2-0.4,0.1
			c-0.1,0-0.2,0.1-0.3,0.1c-0.1,0-0.1,0.1-0.1,0.1c-0.3,0-0.5,0-0.7,0.2c-0.2,0-0.3,0.1-0.5,0.1c-0.1,0.1-0.3,0-0.5,0.1
			c-0.1,0-0.1,0.1-0.1,0.1c-0.1,0.1-0.3,0.1-0.4,0.1c-0.1,0-0.2,0-0.3,0.1c-0.1,0.1-0.2,0.1-0.3,0.1c-0.1,0-0.3,0-0.5,0
			c-0.1,0-0.3,0.1-0.4,0.1c-0.1,0-0.3,0-0.3,0c-0.1,0.1-0.3,0.2-0.5,0.1c-0.3,0.2-0.6,0.2-1,0.2c-0.1,0-0.2,0-0.3,0.1
			S12.7,34,12.5,34c-0.1,0-0.3,0-0.3,0c-0.1,0-0.2,0.1-0.3,0.1c-0.1,0.1-0.1,0.1-0.3,0c-0.1-0.1-0.2-0.1-0.3-0.1
			c-0.2,0-0.3-0.1-0.5-0.1c-0.2-0.1-0.4-0.2-0.6-0.3c-0.3-0.1-0.5-0.2-0.7-0.3c-0.3-0.3-0.5-0.5-0.8-0.8c-0.1-0.1-0.1-0.1-0.1-0.1
			c-0.1-0.3-0.3-0.3-0.4-0.6C8,31.4,7.9,31.2,7.8,31c0-0.3,0-0.5,0-0.8c0-0.3,0-0.6,0-0.9c0-0.1,0-0.2-0.1-0.3
			c-0.1-0.1-0.1-0.2-0.1-0.3c0-0.7,0-1.4,0-2c0-0.1,0-0.1-0.1-0.1c-0.1-0.1-0.1-0.2-0.1-0.3c0-0.4,0-0.8,0-1.2l0,0
			c0.1,0,0.2,0,0.3,0C7.8,25,7.9,25,8,25.1c0,0,0.1,0.1,0.1,0c0.3-0.2,0.5-0.4,0.8-0.7c0.1-0.1,0.3-0.2,0.5-0.3
			C9.6,24,9.6,24,9.7,24c0.2,0,0.4,0,0.6,0c0.3,0,0.5-0.1,0.8-0.3c0.3-0.1,0.5-0.3,0.8-0.3c0.2,0,0.4,0,0.6,0c0.1,0,0.2,0,0.3,0
			c0,0,0.1,0,0.1-0.1c0.2-0.1,0.4-0.1,0.6-0.1c0.1,0,0.3,0,0.4-0.1c0.1,0,0.1-0.1,0.1-0.1c0.1,0,0.2,0,0.3,0s0.1,0,0.1-0.1
			c0.3-0.4,0.4-0.4,0.6-0.4c0.1,0,0.2,0,0.3-0.1c0.1-0.1,0.2-0.1,0.3-0.1c0.3,0,0.7,0,1,0c0.3,0,0.5,0.1,0.8-0.1
			c0.1,0,0.2,0.1,0.3,0.1c0.1-0.1,0.1-0.1,0.3-0.1c0.1,0,0.1-0.1,0.1-0.1c0.1,0,0.1,0,0.1,0.1l0.1,0.1c0.3,0,0.6,0,0.9,0
			c0,0,0.1,0,0.1-0.1c0.2-0.2,0.5-0.1,0.7-0.3c0-0.1,0.1,0,0.1,0c0.3,0,0.7,0,1,0c0.1,0,0.1,0.1,0.3,0.1c0.1,0.1,0.2,0.1,0.3-0.1
			c0.1-0.1,0.1-0.1,0.1,0c0.1,0.1,0.1,0.1,0.3,0.1c0.2,0,0.4,0,0.6,0c0.1,0,0.3,0,0.5,0c0.1,0,0.2,0.1,0.3,0.1
			c0.3,0,0.4,0.2,0.7,0.3c0,0,0.1,0.1,0,0.1l-0.1,0.1c-0.2,0-0.4,0-0.6,0c-0.1,0-0.2,0.2-0.4,0.1c-0.1,0-0.3,0-0.3,0
			s-0.1,0.1-0.1,0.1c0,0.1-0.1,0.2-0.1,0.2c-0.2,0.1-0.3,0.2-0.6,0.2c-0.1,0-0.1,0.1-0.2,0.1c-0.1,0.1-0.1,0.3-0.2,0.3
			c-0.1,0.1-0.2,0.1-0.3,0.1c-0.1,0-0.1,0.1-0.1,0.1v0.1c-0.1,0.1-0.3,0.1-0.4,0.2c-0.1,0.1-0.1,0.1-0.3,0.1c-0.2,0-0.3,0-0.5,0.1
			c-0.1,0.1-0.2,0.1-0.3,0.1c-0.1,0.1-0.3,0.1-0.4,0.1c-0.1,0-0.3,0-0.4,0.1c-0.1,0.2-0.3,0.2-0.5,0.2c-0.1,0-0.2,0.1-0.3,0.1
			c-0.1,0.1-0.3,0-0.4,0.1c-0.1,0.1-0.3,0.1-0.5,0.1s-0.2,0-0.3,0.1c-0.1,0.1-0.2,0.1-0.3,0.1S16.1,26,16,25.9c-0.1,0-0.3,0-0.5,0
			c-0.1,0-0.2,0.1-0.3,0.1c-0.3,0-0.5,0.1-0.7,0.2c-0.1,0.1-0.3,0.1-0.5,0.2c-0.1,0.1-0.3,0.1-0.4,0.1c-0.1,0.1-0.3,0.2-0.5,0.2
			c-0.1,0-0.1,0.1-0.2,0.1c-0.1,0.1-0.2,0.2-0.3,0.2c-0.2,0.1-0.3,0.2-0.5,0.2c-0.1,0.1-0.3,0.3-0.4,0.3c-0.2,0.1-0.3,0.2-0.4,0.3
			c-0.1,0.1-0.3,0.1-0.4,0.2c-0.1,0.1-0.2,0.2-0.3,0.2l-0.1,0.1c0,0,0,0.1,0.1,0.1c0.2,0.1,0.3,0.3,0.5,0.3c0.1,0.1,0.3,0.1,0.4,0.1
			c0.2,0,0.4,0,0.6,0c0.1,0.1,0.3,0.2,0.6,0.1c0.2,0,0.3,0,0.5,0c0.1,0,0.1,0,0.1,0.1c0,0,0,0.1,0.1,0.1l-0.1,0.1
			c-0.4,0-0.8,0-1.3,0c-0.3,0-0.5,0-0.8,0c-0.1-0.1-0.1-0.2-0.2-0.2c-0.1,0-0.1,0.1-0.1,0.1l0.1,0.1c0.1,0,0.2,0,0.3,0
			c0,0.1,0,0.1,0.1,0.1c0.1,0.1,0.2,0.1,0.3,0.1c0.1,0.1,0.1,0,0.1,0c0.2-0.1,0.4-0.1,0.5,0c0.1,0.1,0.2,0.1,0.3,0
			c0.2-0.1,0.4-0.1,0.5,0c0.1,0.1,0.1,0.1,0.1,0c0.1-0.1,0.1-0.1,0.3-0.1c0.3,0,0.5,0,0.8,0c0.1,0,0.3-0.1,0.4-0.1
			c0.1-0.1,0.1-0.1,0.3,0c0.1,0.1,0.1,0.1,0.2,0c0.1-0.1,0.2-0.1,0.3-0.1s0.3,0,0.4-0.1c0.1-0.1,0.1-0.1,0.1-0.1
			c0.2,0,0.4,0,0.6-0.1c0.1-0.1,0.3-0.1,0.5-0.1c0.1,0,0.2-0.1,0.3-0.1c0.2-0.1,0.5-0.1,0.7-0.2c0.1,0,0.1,0,0.2,0
			c0.2,0,0.3,0,0.5-0.2c0.1-0.1,0.3-0.2,0.5-0.2c0.2-0.1,0.4-0.2,0.7-0.2c0.1,0,0.1,0,0.1-0.1c0.1-0.1,0.3-0.1,0.4-0.2
			c0.1-0.1,0.3-0.1,0.4-0.1c0.2-0.2,0.5-0.1,0.8-0.3c0.3,0.1,0.4-0.2,0.7-0.2c0.1-0.1,0.3-0.1,0.5-0.2c0.1,0,0.3-0.2,0.5-0.2
			c0.1,0,0.1,0,0.1-0.1c0.1-0.1,0.3-0.1,0.4-0.2v-0.1c0.1,0,0.3,0,0.4,0c0.1,0,0.1-0.1,0.1-0.2c0.1,0,0.3,0,0.4,0
			c0.1,0,0.2-0.1,0.3-0.1c0.2-0.1,0.3-0.1,0.5-0.3v-0.1c0.1,0,0.2,0,0.3,0c0.1,0,0.1-0.1,0.2-0.1c0.1,0,0.1,0,0.1-0.1
			c0.1-0.1,0.1-0.1,0.2-0.1c0.1,0,0.1,0,0.2-0.1v-0.1c0.2,0.1,0.4-0.1,0.5-0.3v-0.1l-0.1-0.1c-0.2,0-0.3,0.1-0.4,0.3
			c-0.1,0-0.3,0-0.4,0c-0.1,0.1-0.5,0.1-0.6,0.3C26,25.2,26,25.2,26,25.3c-0.1,0-0.3,0-0.4,0c0,0-0.1,0-0.1,0.1
			c-0.1,0.1-0.1,0.1-0.2,0.1c-0.1,0.1-0.3,0.2-0.5,0.2l-0.1,0.1v0.1c-0.1,0-0.3,0-0.4,0c-0.1,0-0.1,0.1-0.1,0.2c-0.1,0-0.3,0-0.5,0
			c-0.1,0-0.2,0.1-0.3,0.1c-0.1,0-0.3,0-0.3,0.1c-0.1,0.1-0.4,0.1-0.6,0.2c-0.1,0.1-0.3,0.1-0.5,0.3c-0.3-0.1-0.5,0.3-0.9,0.2
			c-0.1,0-0.1,0-0.1,0c-0.1,0.1-0.3,0.1-0.5,0.1c-0.1,0.1-0.3,0.2-0.5,0.1c-0.1,0-0.3,0.2-0.4,0.1c-0.1,0-0.2,0-0.3,0.1
			c-0.1,0.1-0.1,0.1-0.1,0.1c-0.2,0-0.5,0-0.7,0.2c-0.2,0-0.3,0-0.5,0.1c-0.1,0.1-0.2,0.1-0.3,0c0,0-0.1,0-0.1-0.1
			c0,0,0-0.1,0.1-0.1c0.1-0.1,0.1-0.2,0.3-0.2c0.1,0,0.2-0.1,0.3-0.1c0.1,0,0.3,0,0.3,0s0.2-0.1,0.3-0.1c0.1-0.1,0.1-0.1,0.3-0.1
			c0.3,0,0.4-0.2,0.7-0.2c0.1,0,0.3-0.1,0.4-0.1c0.1-0.1,0.3,0,0.4-0.1c0.1-0.1,0.2-0.1,0.3-0.1c0.1,0,0.1,0,0.1-0.1
			c0.1-0.1,0.3-0.1,0.5-0.1c0.1-0.1,0.3-0.1,0.5-0.2c0.1,0,0.3-0.2,0.4-0.1c0.1,0,0.3-0.1,0.4-0.1c0.2-0.1,0.4-0.3,0.7-0.2
			c0.2-0.1,0.4-0.3,0.6-0.3c0.1-0.1,0.3-0.1,0.5-0.2c0.1,0,0.3-0.1,0.4-0.2c0.1-0.1,0.2-0.1,0.3-0.1c0.1-0.1,0.3-0.1,0.4-0.2
			c0.1-0.1,0.3,0,0.3-0.1c0.2-0.1,0.5-0.2,0.6-0.4c0.1-0.2,0.3-0.3,0.6-0.4c0.2-0.1,0.4-0.1,0.5-0.3c0.2-0.1,0.5-0.2,0.7-0.4
			c0.2-0.2,0.5-0.3,0.8-0.4c0.2-0.1,0.4-0.3,0.5-0.4c0.1-0.1,0.1-0.1,0.1-0.3c0-0.1,0-0.1,0.1-0.1c0.3-0.1,0.5-0.3,0.7-0.5
			c0.1-0.1,0.1-0.1,0.2-0.1c0.1,0,0.1-0.1,0.1-0.1c0-0.1-0.1-0.1-0.1-0.1c-0.1,0-0.2,0-0.3,0c-0.1,0-0.3,0-0.3-0.1
			c-0.1-0.1-0.3,0-0.5-0.1c-0.1-0.1-0.3-0.1-0.5-0.1c-0.1,0-0.2-0.1-0.3-0.1c-0.1,0-0.1-0.1-0.1-0.1c-0.3,0-0.5,0-0.7-0.2h-0.1
			c-0.2,0-0.4,0-0.6-0.1c-0.2,0-0.4-0.1-0.6-0.1c-0.1,0-0.3,0-0.4-0.1c-0.1,0-0.1-0.1-0.1-0.1c-0.2,0-0.3,0-0.5,0
			c-0.3,0-0.5,0.1-0.8-0.1c-0.1-0.1-0.2-0.1-0.3-0.1c-0.5,0-1.1,0-1.6,0c-0.1,0-0.3,0-0.4-0.1c-0.1,0-0.1-0.1-0.1-0.1
			c-0.2,0-0.4,0-0.6,0c-0.1,0-0.1,0-0.1,0.1c-0.1,0.1-0.3,0.1-0.4,0.1c-0.8,0-1.6,0-2.4,0c-0.1,0-0.3,0-0.4,0.1
			c-0.1,0-0.1-0.1-0.2-0.1c-0.2,0.2-0.5,0.1-0.7,0.1c-0.8,0-1.7,0-2.5,0c-0.1,0-0.2,0.1-0.3,0.1c-0.1,0-0.1,0.1-0.1,0.1
			c-0.7,0-1.4,0-2.1,0c-0.2,0-0.3,0-0.5-0.1c-0.1-0.1-0.2-0.1-0.3-0.1c-0.3,0-0.4-0.1-0.7-0.2c-0.5-0.4-0.9-0.8-1.3-1.3
			c-0.1-0.1-0.1-0.1-0.1-0.1c0-0.1,0-0.3,0-0.3c0-0.2,0-0.4-0.1-0.6c-0.1-0.1-0.1-0.2-0.1-0.3c0-0.1,0-0.3-0.1-0.4v-0.1
			c0.1-0.1,0.2-0.3,0.4-0.4C9.9,16,9.9,16,10,16c0.1-0.1,0.2-0.1,0.2-0.3c0-0.3,0-0.5,0-0.8c0-0.1,0.1-0.2,0.1-0.3
			c0.1-0.1,0-0.1,0-0.1c-0.1-0.2-0.1-0.4,0-0.5c0.4-0.4,0.9-0.8,1.3-1.3c0.1-0.1,0.3-0.1,0.5-0.3c0.1-0.1,0.3-0.3,0.4-0.3
			c0.1-0.1,0.3-0.1,0.4-0.2c0.3-0.1,0.5-0.3,0.8-0.4c0.1,0,0.1-0.1,0.1-0.1c0.1-0.1,0.3-0.3,0.5-0.3c0.1-0.1,0.3-0.2,0.5-0.3
			c0.3-0.2,0.8-0.3,1.1-0.5c0.2-0.1,0.4-0.1,0.6-0.2C16.7,10,16.9,10,17,9.9c0.3,0,0.5-0.1,0.8-0.3c0.1-0.1,0.3-0.1,0.4-0.1
			c0.1-0.1,0.3-0.2,0.4-0.1c0.1,0,0.3-0.1,0.4-0.1c0.1-0.1,0.3,0,0.4-0.1C19.5,9,19.5,9,19.7,9c0.1,0,0.3-0.1,0.4-0.1
			c0.1-0.1,0.3,0,0.4-0.1c0.1-0.1,0.1-0.1,0.1-0.1c0.1,0,0.3,0,0.5-0.1c0.2-0.2,0.5-0.1,0.8-0.3c0.1-0.1,0.3,0,0.4-0.1
			C22.4,8,22.5,8.1,22.7,8c0.1,0,0.3-0.2,0.4-0.1c0.1,0,0.3-0.1,0.4-0.1c0.1-0.1,0.3,0,0.5,0c0.3-0.2,0.5-0.1,0.9-0.2
			c0.1,0,0.1,0,0.1-0.1c0.1-0.1,0.3-0.1,0.5-0.1s0.3-0.2,0.5-0.2c0.1,0,0.3,0,0.5,0c0.1,0,0.3,0,0.4-0.1C27,7,27.1,7,27.2,7
			c0.6,0,1.2,0,1.8,0c0.1,0,0.2,0.1,0.3,0.2c0.1,0.1,0.2,0.3,0.2,0.5c0,0.1,0,0.2,0,0.3c0.1,0.1,0.1,0.3,0.3,0.5
			c0.1,0.1,0.3,0.3,0.3,0.4c0.1,0.1,0.1,0.1,0.1,0.1c0,0.2,0.1,0.3,0.2,0.5c0.1,0.1,0,0.2,0,0.3c0,0,0,0.1,0.1,0.1
			c0.1,0,0.1,0,0.1-0.1c0-0.1,0-0.1,0.1-0.1c0.1-0.1,0.1-0.3,0.1-0.4c0-0.2,0-0.4,0-0.6c0-0.2,0.1-0.3,0.3-0.4
			c0.1-0.1,0.3-0.2,0.4-0.2c0.2-0.1,0.4,0,0.6,0c0.3,0,0.4,0.4,0.3,0.7c-0.1,0.1-0.3,0.1-0.3,0.2c0,0.1,0.1,0.1,0.1,0.2
			c-0.1,0.1-0.1,0.2,0,0.2c0.2,0,0.5,0,0.7,0.1c0.1,0,0.3,0,0.3,0c0.2,0,0.3,0,0.5,0.1c0.1,0,0.1,0.1,0.1,0.1c0.2,0,0.3,0,0.5,0
			c0.2,0,0.4,0,0.6,0.1c0.1,0,0.3,0,0.3,0c0.4,0,0.8,0,1.2,0c0.1,0,0.1-0.1,0.1-0.2c0-0.5,0-1.1,0-1.6c0-0.1,0-0.1,0.1-0.1
			c0.1-0.1,0.3-0.1,0.3,0c0.2,0.1,0.3,0.3,0.5,0.5v0.1c0,0.3,0.2,0.5,0.3,0.8c0.1,0.1,0.1,0.2,0.1,0.3c0,0.2,0,0.3,0,0.5
			c0,0.1,0.2,0.3,0.3,0.3c0.2,0,0.3,0,0.5,0c0.1,0,0.3,0,0.3,0c0.2,0,0.3,0.2,0.5,0.1c0.1,0,0.3,0,0.5,0c0,0,0.1,0,0.1,0.1
			c0.1,0.2,0.4,0.1,0.6,0.1h0.1c0.3,0.3,0.7,0.1,1,0.1c0.2,0,0.4,0,0.6,0.1C42.4,11.4,42.4,11.5,42.4,11.5L42.4,11.5z M10.9,14.3
			c0.1,0,0.1,0,0.2-0.2c0.1,0,0.3,0,0.4-0.1c0.1-0.1,0.2-0.2,0.3-0.3c0.1-0.1,0.3-0.1,0.4-0.2c0.1-0.1,0.2-0.2,0.3-0.3
			c0.1,0,0.2-0.2,0.4-0.2c0.3-0.2,0.6-0.3,0.9-0.5c0.2-0.2,0.5-0.3,0.7-0.4c0.2,0,0.3-0.2,0.5-0.2c0.1-0.1,0.3-0.1,0.5-0.3
			c0.1-0.1,0.3-0.1,0.5-0.1c0.1-0.1,0.3-0.2,0.5-0.3c0.1-0.1,0.3,0,0.4-0.1c0.1-0.1,0.3-0.2,0.5-0.3c0.1,0,0.1-0.1,0.2-0.1
			c0.1,0,0.3-0.1,0.4-0.1c0.2-0.1,0.3,0,0.5-0.1c0.1-0.1,0.1-0.1,0.1-0.1c0.3,0,0.4-0.2,0.7-0.2h0.1c0.1-0.1,0.3-0.1,0.5-0.3
			c0.1-0.1,0.3-0.1,0.5-0.1h0.1c0.2-0.2,0.5-0.1,0.7-0.3c0.1-0.1,0.1-0.1,0.3-0.1s0.3,0,0.3-0.1c0.1-0.1,0.3-0.1,0.5-0.1
			c0.1-0.1,0.4-0.1,0.5-0.2c0.1-0.1,0.3-0.1,0.5-0.1s0.3,0,0.3-0.1c0.1-0.1,0.1-0.1,0.3-0.1c0.2,0,0.3,0,0.5-0.1
			c0.1-0.1,0.2-0.1,0.3-0.1c0.1,0,0.2,0,0.3-0.1l0.1-0.1c0.2,0,0.3-0.1,0.5,0C26,8.3,26.1,8,26.2,8c0.1,0,0.3,0,0.3,0
			c0,0,0.1,0,0.1-0.1c0-0.1,0-0.1-0.1-0.1c-0.3,0-0.6-0.1-0.9,0.1c-0.1,0-0.3,0-0.5,0c-0.1,0-0.3,0-0.4,0.1c-0.1,0-0.1,0.1-0.1,0.1
			c-0.2,0-0.4,0-0.6,0c-0.1,0-0.1,0.1-0.3,0.1c-0.1,0.1-0.1,0.1-0.3,0.1c-0.1,0-0.3-0.1-0.4,0.1c-0.1,0.1-0.3,0.1-0.5,0.1
			c-0.1,0.4-0.2,0.5-0.3,0.4c-0.3-0.1-0.5,0.2-0.8,0.2c-0.1,0-0.1,0.1-0.1,0.1c-0.1,0.1-0.1,0.1-0.3,0.1s-0.3-0.1-0.4,0.1
			c-0.1,0.1-0.3,0.1-0.5,0.1c-0.1,0.1-0.3,0.1-0.5,0.1c-0.1,0-0.1,0.1-0.2,0.1c-0.2,0-0.4,0.1-0.6,0.2c-0.2-0.1-0.4,0.1-0.6,0.2
			c-0.1,0-0.3,0.1-0.4,0.1c-0.1,0.1-0.3,0-0.4,0.1c-0.1,0.1-0.3,0.1-0.4,0.2c-0.1,0.1-0.3,0.1-0.4,0.1c-0.1,0-0.1,0.1-0.1,0.1
			c-0.1,0.1-0.3,0.1-0.4,0.2c-0.1,0.1-0.2,0.1-0.3,0.1c-0.1,0.1-0.3,0.1-0.4,0.2c-0.1,0.1-0.3,0.1-0.4,0.2c-0.2,0-0.4,0.3-0.7,0.3
			c-0.1,0-0.1,0.1-0.2,0.1c-0.1,0.1-0.2,0.2-0.3,0.2c-0.2,0.1-0.4,0.3-0.6,0.3c-0.3,0.1-0.4,0.4-0.7,0.4c-0.1,0.1-0.2,0.1-0.3,0.2
			c-0.1,0.1-0.2,0.1-0.3,0.1c-0.2,0.2-0.4,0.4-0.5,0.5v0.1C11,14.1,10.9,14.1,10.9,14.3c-0.1,0-0.1,0.1-0.1,0.2
			c-0.1,0-0.1,0.1-0.1,0.1v0.1c0.1,0.1,0.1,0,0.1-0.1C10.9,14.4,10.9,14.4,10.9,14.3z M58.7,22.6L58.7,22.6c0.1-0.1,0.1-0.2,0.3-0.3
			c0.3-0.1,0.4-0.3,0.5-0.5c0.1-0.1,0.1-0.1,0-0.2c-0.2-0.1-0.3-0.3-0.5-0.5c-0.2,0-0.3-0.2-0.5-0.3c-0.1-0.1-0.3-0.2-0.5-0.3
			c-0.1-0.1-0.2-0.1-0.3-0.2c-0.1-0.1-0.2-0.2-0.3-0.3c-0.1-0.1-0.3-0.2-0.5-0.2c-0.1,0-0.1-0.1-0.1-0.1c-0.2-0.1-0.3-0.3-0.6-0.3
			c-0.1-0.1-0.3-0.2-0.4-0.1c-0.1,0-0.3-0.1-0.4-0.2C55.2,19.1,55,19,54.9,19c-0.2,0-0.3-0.1-0.5-0.2c-0.1-0.1-0.3,0-0.4-0.1
			c-0.1-0.1-0.3,0-0.4-0.1s-0.3-0.1-0.5-0.1c-0.1,0-0.2,0-0.3-0.1c-0.1-0.1-0.1-0.1-0.3-0.1c-0.1,0-0.3-0.1-0.4-0.1s-0.3,0-0.4-0.1
			c-0.1-0.1-0.1-0.1-0.3-0.1c-0.2,0-0.3,0-0.5-0.1c-0.1-0.1-0.2-0.1-0.3-0.1c-0.1,0-0.2,0-0.3,0c-0.2-0.2-0.5-0.1-0.8-0.1
			c-0.1,0-0.2,0-0.3-0.1c-0.1-0.1-0.2-0.1-0.3-0.1c-0.1,0-0.2,0-0.3,0c-0.2-0.2-0.5-0.1-0.8-0.2c-0.1,0-0.1,0-0.2,0
			C47.6,16.9,47.2,17,47,17c-0.1,0-0.2,0-0.3,0c-0.2-0.1-0.3-0.2-0.6-0.1c-0.2,0-0.3,0-0.5,0c-0.1,0-0.1,0-0.2,0
			c-0.2-0.2-0.5-0.1-0.8-0.1s-0.4,0-0.6,0c-0.2-0.2-0.5-0.1-0.7-0.1s-0.4,0-0.6,0c-0.1,0-0.1,0-0.2,0c-0.2-0.1-0.4-0.1-0.6-0.1
			c-0.3,0-0.5-0.1-0.8,0c-0.3,0-0.5-0.1-0.7-0.1c-0.3-0.1-0.5,0-0.8,0c-0.2,0-0.3,0-0.5-0.1c-0.2-0.1-0.5-0.1-0.7-0.1
			c0,0-0.1,0-0.1,0.1c-0.1,0.2-0.3,0.4-0.2,0.7c0,0.3,0,0.5,0,0.8c0,0.1,0,0.1,0,0.2c-0.2,0.2-0.1,0.5-0.1,0.8c0,0.1,0,0.1-0.1,0.1
			c-0.1,0.1-0.1,0.3-0.1,0.4c0,0.1,0,0.2-0.1,0.3c-0.2,0.2-0.1,0.5-0.1,0.7c0,0.1,0,0.2-0.1,0.3c-0.1,0.1-0.1,0.3-0.1,0.4
			c0,0.3,0,0.5,0,0.8c0,0.1,0,0.2-0.1,0.3c-0.2,0.3-0.1,0.5-0.1,0.8c0,0.3,0,0.5,0,0.8c0,0.2,0.1,0.5-0.1,0.7c0,0.1,0,0.1,0,0.2
			c0,0.3,0,0.5,0,0.8c0,0.2,0,0.3-0.1,0.5c0,0.1-0.1,0.1-0.1,0.2c0,0.1,0,0.1,0.1,0.1c0.3,0.1,0.5,0.3,0.8,0.3c0.1,0,0.3-0.1,0.5,0
			l0.1,0.1l-0.1,0.1c-0.2,0-0.5,0.1-0.7,0.1c-0.1,0-0.1,0.2-0.1,0.2c0.1,0.1,0.1,0.1,0.1,0.1c0.1,0,0.1,0,0.1,0.1
			c0,0.1,0,0.1-0.1,0.1c-0.3,0.1-0.1,0.2-0.1,0.3c-0.1,0.1-0.1,0.3-0.3,0.3c-0.1,0-0.1,0.1-0.2,0.2c0,0.1,0,0.2-0.1,0.3
			c-0.1,0.1-0.1,0.1-0.1,0.3c0,0.2,0,0.4,0,0.6c0,0.2,0.1,0.2,0.3,0.3l0.1,0.1l-0.1,0.1c-0.1,0-0.2,0.1-0.3,0
			c-0.3-0.1-0.6-0.3-0.9-0.4c-0.1-0.1-0.2-0.1-0.2-0.3c0-0.1-0.1-0.2-0.3-0.2s-0.3,0-0.4,0.1c-0.1,0.1-0.4,0.1-0.5,0.3v0.1
			c0.1,0.2,0.1,0.2-0.1,0.3c-0.1,0.1-0.3,0.1-0.4,0.2c-0.1,0-0.1,0.1,0,0.1c0.1,0.1,0.1,0.1-0.1,0.2c-0.1,0-0.1,0.1-0.1,0.1l0.1,0.1
			c0.3,0,0.8,0,1.1,0c0.1,0,0.2-0.1,0.3-0.1s0.1-0.1,0.1-0.1c0.2,0,0.4-0.1,0.6,0c0.3,0.1,0.5-0.1,0.7-0.2c0.1,0,0.3,0,0.5,0
			c0.1,0,0.1,0,0.1-0.1c0.2-0.2,0.5-0.1,0.7-0.1c0.1,0,0.2,0,0.3-0.1c0.1-0.1,0.2-0.1,0.3-0.1c0.1,0,0.1,0,0.2,0
			c0.2,0,0.3,0,0.5-0.1c0.1-0.1,0.1-0.1,0.1-0.1c0.1,0,0.3,0,0.5,0c0.1,0,0.1,0,0.1-0.1c0.1-0.1,0.3-0.1,0.4-0.1
			c0.1,0,0.3,0,0.4-0.1c0.1-0.1,0.2-0.1,0.3-0.1c0.1,0,0.2,0,0.3-0.1c0.1-0.1,0.3-0.1,0.4-0.1c0.1,0,0.3,0,0.5,0
			c0.2-0.2,0.5-0.1,0.8-0.1c0.1,0,0.1,0,0.1-0.1c0.1-0.1,0.3-0.1,0.5-0.1c0.1,0,0.3,0,0.3,0c0.1-0.1,0.3-0.1,0.5-0.1
			c0.2,0,0.4,0,0.6-0.1c0.1,0,0.2-0.1,0.3-0.1c0.1,0,0.2-0.1,0.3-0.1c0.1,0,0.1-0.1,0.1-0.1c0.1,0,0.2,0,0.3,0c0.2,0,0.3,0,0.5-0.1
			c0.1-0.1,0.2-0.1,0.3-0.1c0.1,0,0.2,0,0.3-0.1c0.1-0.1,0.2-0.1,0.3-0.1c0.2,0,0.3,0,0.5,0c0.1,0,0.2,0,0.3-0.1
			c0.1-0.1,0.2-0.1,0.3-0.1s0.3,0,0.3-0.1c0.1-0.1,0.3-0.1,0.4-0.1c0.1,0,0.2,0,0.3-0.1c0.2-0.1,0.5-0.1,0.7-0.1
			c0.1,0,0.2,0,0.3-0.1c0.1-0.1,0.3-0.1,0.5-0.1c0.2,0,0.3,0,0.5-0.1C51.9,26,52,26,52.1,26s0.2,0,0.3,0c0.2-0.2,0.4-0.1,0.7-0.2
			c0.1,0,0.1-0.1,0.1-0.1c0.1-0.1,0.3-0.1,0.4-0.1c0.1-0.1,0.3-0.2,0.4-0.1c0.1,0,0.2,0,0.3-0.1c0.1-0.1,0.2-0.1,0.3-0.1
			c0.2,0,0.3-0.1,0.5-0.1c0.1-0.1,0.2,0,0.3-0.1c0.1-0.1,0.2-0.1,0.3-0.1c0.1,0,0.1-0.1,0.1-0.1c-0.1,0-0.1-0.1-0.1-0.1
			c-0.1,0-0.3,0-0.3,0l0,0c0-0.2,0.2-0.3,0.3-0.3c0.2,0.1,0.4-0.1,0.5-0.2c0.1,0,0.2-0.2,0.4-0.2s0.3-0.1,0.5-0.2
			c0.1,0,0.3-0.1,0.4-0.2c0.1-0.1,0.3-0.2,0.5-0.2c0.1,0,0.1-0.1,0.2-0.1c0.1-0.1,0.3-0.2,0.4-0.3c0.1-0.1,0.1-0.2,0-0.3
			C58.7,22.6,58.7,22.6,58.7,22.6L58.7,22.6z M20.1,15.5L20.1,15.5c0.5,0,1,0,1.4,0c0.1,0,0.2,0.1,0.3,0.1c0.1,0.1,0.1,0.1,0.1,0.1
			c0.6,0,1.2,0,1.8,0c0.1,0,0.2,0,0.3,0.1c0.1,0.1,0.3,0.1,0.5,0.1s0.3,0,0.5,0c0.3,0.3,0.8,0.1,1.2,0.1h0.1c0,0,0.1,0,0.1,0.1
			c0.1,0.1,0.3,0.1,0.5,0.1c0.1,0.1,0.4,0.2,0.6,0.1c0.2,0,0.4,0.1,0.6,0.2c0.1,0.1,0.2,0.1,0.3,0.1s0.3,0,0.3,0
			c0.1,0,0.2,0.1,0.3,0.1c0.1,0.1,0.2,0.1,0.3,0.1s0.3,0.2,0.4,0.2s0.3,0.1,0.4,0.1c0.1,0.1,0.3,0,0.4,0.1c0.3,0.2,0.7,0.3,1,0.5
			c0.3,0.1,0.6,0.3,0.8,0.5c0.1,0.1,0.2,0.3,0.2,0.5c0,0.2,0.1,0.4,0.3,0.5c0.1,0.1,0.2,0.3,0.3,0.5c0.1,0.1,0.1,0.2,0.1,0.3
			c0.1,0.1,0.2,0.2,0.3,0.3c0.2,0.1,0.2,0.4,0.3,0.6c-0.1,0.3,0.2,0.4,0.2,0.7c0.1,0.1,0.1,0.3,0.1,0.5c0,0.3,0,0.6,0,0.9
			c0,0.1-0.1,0.3-0.1,0.4c-0.1,0.3-0.3,0.7-0.4,1c-0.1,0.2-0.3,0.3-0.3,0.5c-0.2,0.2-0.3,0.3-0.5,0.5C33,26,32.9,26,32.7,26
			c-0.2,0.2-0.4,0.4-0.5,0.5C32,26.7,32,26.9,32.1,27c0,0.1,0.1,0.1,0.1,0.1c0.2,0,0.4,0,0.6,0c0.2-0.2,0.5-0.1,0.7-0.3
			c0.1-0.1,0.1-0.1,0.3-0.1c0.2,0,0.3,0,0.5,0c0.1,0,0.1-0.1,0.1-0.1l-0.1-0.1c-0.2,0-0.3-0.1-0.4-0.3c0-0.1,0.1-0.2,0.1-0.2
			c0.2,0,0.4,0,0.6,0c0.1,0,0.1-0.1,0.1-0.1c0.1-0.2,0.3-0.4,0.2-0.7c0-0.8,0-1.7,0-2.5c0-0.1,0-0.2,0.1-0.3
			c0.1-0.1,0.1-0.2,0.1-0.3c0-0.3,0-0.5,0-0.8c0-0.1,0-0.2,0.1-0.3c0.2-0.3,0.1-0.5,0.1-0.8c0-0.3-0.1-0.6,0.1-0.9
			c0-0.1,0-0.1,0-0.2c0-0.3,0-0.8,0-1.1c0-0.1,0.1-0.2,0.1-0.3c0.1-0.1,0.1-0.1,0.1-0.3c0-0.3,0-0.7,0-1c0-0.2,0.1-0.3,0.1-0.5
			c0-0.1,0-0.1,0-0.1c-0.1-0.1-0.2-0.3-0.4-0.3c-0.1,0-0.3,0-0.3-0.1c-0.1-0.1-0.3-0.1-0.5-0.1c-0.2,0-0.4,0-0.6,0
			c-0.1,0-0.3-0.1-0.4-0.1c-0.2,0-0.3,0-0.5,0c0,0-0.1,0-0.1-0.1c-0.1-0.1-0.3-0.1-0.4-0.1c-0.1,0-0.3,0-0.5,0
			c-0.1-0.1-0.3-0.1-0.4-0.2c-0.1-0.1-0.3-0.1-0.4-0.1c-0.1,0-0.5-0.3-0.5-0.3c-0.1-0.1-0.3-0.3-0.5-0.5c-0.1-0.1-0.1-0.1-0.1-0.2
			c-0.2-0.3-0.1-0.6-0.3-0.8c-0.1-0.1,0-0.2,0-0.3c0-0.1-0.1-0.1-0.2-0.1c-0.1,0.1-0.1,0.1-0.2,0.1c-0.3,0.1-0.5,0.1-0.6,0.3
			c-0.3,0.2-0.5,0.3-0.9,0.3c-0.2,0-0.4,0-0.6,0c-0.1,0-0.1,0-0.2,0c-0.2,0.2-0.5,0.1-0.8,0.1c-0.3,0-0.6,0-0.9,0
			c-0.1,0-0.1,0-0.1,0.1c-0.3,0.1-0.5,0.2-0.6,0.2s-0.3,0-0.4,0.1c-0.1,0-0.1,0.1-0.1,0.1c-0.1,0-0.3,0-0.5,0c-0.1,0-0.3,0-0.5,0
			c-0.2,0.2-0.5,0.1-0.7,0.3c-0.1,0.1-0.1,0.1-0.3,0.1c-0.3,0-0.5,0.1-0.8,0c-0.3-0.1-0.6,0.2-1,0.2c-0.1,0.1-0.3,0.2-0.5,0.3
			c-0.2,0.1-0.3,0.3-0.5,0.3s-0.3,0.1-0.5,0.2c-0.2,0.1-0.3,0.2-0.5,0.2l-0.1,0.1c0.1,0,0.1,0.1,0.1,0.1
			C19.1,15.5,19.6,15.5,20.1,15.5z"/>
	</g>
</g>
</svg>
