<?xml version="1.0" encoding="utf-8"?>
<!-- Generator: Adobe Illustrator 19.0.0, SVG Export Plug-In . SVG Version: 6.00 Build 0)  -->
<svg version="1.1" id="Layer_1" xmlns="http://www.w3.org/2000/svg" xmlns:xlink="http://www.w3.org/1999/xlink" x="0px" y="0px"
	 viewBox="0 0 203 203" style="enable-background:new 0 0 203 203;" xml:space="preserve">
<style type="text/css">
	.Arched_x0020_Green{fill:url(#SVGID_1_);stroke:#FFFFFF;stroke-width:0.25;stroke-miterlimit:1;}
	.st0{fill:#FFFFFF;}
	.st1{fill:#ED1C24;}
</style>
<linearGradient id="SVGID_1_" gradientUnits="userSpaceOnUse" x1="-114.517" y1="-114.517" x2="-113.8099" y2="-115.2241">
	<stop  offset="0" style="stop-color:#20AC4B"/>
	<stop  offset="0.9831" style="stop-color:#19361A"/>
</linearGradient>
<g>
	<circle class="st0" cx="101.4" cy="100.6" r="98"/>
	<g>
		<ellipse transform="matrix(0.8784 -0.478 0.478 0.8784 -27.78 69.0876)" class="st1" cx="121.9" cy="89.1" rx="5.9" ry="3.2"/>
		<circle class="st1" cx="162.7" cy="66" r="5.8"/>
		<g>
			<circle class="st1" cx="99" cy="30.1" r="9.8"/>
			<polygon points="137.7,62 128.7,77.3 120.7,46.8 136.7,46.8 			"/>
			<polygon points="111.2,76.5 104.9,70.6 124.7,68 127.3,76.5 			"/>
			<polygon points="112.7,54.1 109.5,48.3 119.6,46.3 121.4,52.5 			"/>
			<polygon points="109.2,76.7 104.9,72.1 96.6,92.8 98.9,92.8 			"/>
			<polygon points="136.6,66.3 130.5,77.3 139.3,87.8 145.1,85.8 			"/>
			<polygon points="145.1,87.8 127.2,110 126.5,107.1 137.8,89.7 			"/>
			<polygon points="98.6,94.2 99.8,97.5 88.9,97.5 90.5,94.2 			"/>
			<polygon points="122.1,107.1 125.5,107.4 127.2,114.6 125.2,117.9 			"/>
			<polygon points="112.3,54.9 105.7,52.4 97.2,34.8 101.5,37.1 106.9,45.5 			"/>
			<g>
				<polygon points="150.1,54.4 152.3,50.5 152.1,50.3 137.7,46.8 138.5,51.7 150.1,54.4 				"/>
				<polygon points="153.1,51.2 151,55 162.5,62 165.7,62 				"/>
			</g>
			<polygon points="124.5,30.1 121.4,35.5 124.7,45.5 132.3,45.5 137.7,37 135.8,32.5 			"/>
		</g>
	</g>
	<g>
		<path d="M50.6,123.6H33.5l1.1-4.9h22.6c-0.2,2-0.4,3.3-0.6,4c-1.1,5.1-4.2,9.2-9.3,12.1c-4.4,2.6-9.5,3.9-15.3,3.9
			c-6.1,0-10.8-1.2-14.2-3.7c-3.5-2.5-5.3-6.1-5.3-10.7c0-1.5,0.2-3,0.5-4.7c1.3-5.9,4.5-10.6,9.4-14.1c4.9-3.5,10.9-5.2,17.9-5.2
			c5.2,0,9.2,0.9,12.3,2.8c3.6,2.1,5.4,6.1,5.5,12h-5.8c-0.1-3.5-1.2-6-3.3-7.6c-2.1-1.6-5.3-2.4-9.8-2.4c-5.4,0-10,1.3-13.6,3.8
			c-3.6,2.5-5.9,6.1-7,10.6c-0.3,1.3-0.4,2.5-0.4,3.7c0,3.4,1.3,6.1,3.8,7.9c2.6,1.8,6.2,2.7,11,2.7c4.3,0,8-0.9,11.4-2.8
			C47.8,129.1,49.8,126.7,50.6,123.6z"/>
		<path d="M80,105.6l-7.4,32.7h-5.7l7.4-32.7H59.1l1.1-4.8h36.2l-1.1,4.8H80z"/>
		<path d="M120.4,138.3l-3.2-11.1H97.4l-8.3,11.1h-6.4l28.6-37.5h4.4l10.9,37.5H120.4z M111.7,108.5l-10.6,13.8h14.6L111.7,108.5z"
			/>
	</g>
	<g>
		<g>
			<path class="st1" d="M33.5,141.9H26l-3.1,14.8h6.7c2.7,0,5.1-0.5,7.1-1.5c2.6-1.3,4.1-3.2,4.7-5.8c0.1-0.7,0.2-1.3,0.2-1.9
				C41.6,143.8,38.9,141.9,33.5,141.9z M29.7,155.2h-4.8l2.5-11.8h6c4.4,0,6.5,1.4,6.5,4.3c0,0.5-0.1,1-0.2,1.5
				c-0.5,2.1-1.7,3.7-3.7,4.7C34.4,154.8,32.2,155.2,29.7,155.2z"/>
			<path class="st1" d="M62.5,147.8c0-2.2-1-3.8-3.1-4.8c-1.5-0.7-3.3-1.1-5.6-1.1c-2.7,0-5,0.5-6.9,1.5c-2.4,1.3-3.9,3.2-4.5,5.7
				c-0.1,0.6-0.2,1.2-0.2,1.7c0,2.2,1,3.8,3,4.8c1.5,0.8,3.4,1.2,5.6,1.2c2.7,0,5-0.5,6.9-1.6c2.4-1.3,3.9-3.3,4.5-5.9
				C62.4,148.8,62.5,148.3,62.5,147.8z M51,155.3c-1.9,0-3.5-0.3-4.8-1c-1.5-0.8-2.2-2-2.2-3.6c0-0.4,0.1-0.9,0.2-1.3
				c0.4-2.1,1.6-3.6,3.6-4.6c1.6-0.9,3.7-1.3,6.1-1.3c2,0,3.6,0.3,4.8,0.9c1.5,0.8,2.3,1.9,2.3,3.5c0,0.4-0.1,0.9-0.1,1.3
				c-0.5,2.1-1.6,3.7-3.6,4.8C55.3,154.9,53.3,155.3,51,155.3z"/>
			<path class="st1" d="M72.7,141.9h-7.5l-3.1,14.8h6.7c2.7,0,5.1-0.5,7.1-1.5c2.6-1.3,4.1-3.2,4.7-5.8c0.1-0.7,0.2-1.3,0.2-1.9
				C80.8,143.8,78,141.9,72.7,141.9z M68.9,155.2h-4.8l2.5-11.8h6c4.4,0,6.5,1.4,6.5,4.3c0,0.5-0.1,1-0.2,1.5
				c-0.5,2.1-1.7,3.7-3.7,4.7C73.5,154.8,71.4,155.2,68.9,155.2z"/>
			<path class="st1" d="M91.1,150.7H99l0,0c-0.3,1.6-1.4,2.7-3.4,3.6c-1.6,0.7-3.3,1-5.2,1c-2,0-3.7-0.3-5-0.9
				c-1.6-0.8-2.4-2-2.4-3.6c0-0.4,0.1-0.9,0.1-1.3c0.5-2.1,1.7-3.7,3.7-4.8c1.7-0.9,3.8-1.4,6.1-1.4c4.1,0,6.2,1.2,6.4,3.5l0,0.5
				h1.7l0-0.6c-0.1-1.9-1.2-3.3-3.1-4.1c-1.3-0.6-3-0.9-5-0.9c-2.7,0-5,0.5-7,1.6c-2.5,1.3-4,3.3-4.5,5.9c-0.1,0.6-0.2,1.1-0.2,1.6
				c0,2.2,1.1,3.8,3.2,4.9c1.5,0.7,3.5,1.1,5.8,1.1c2.3,0,4.4-0.4,6.3-1.3c2.6-1.3,4.1-3.2,4.3-5.7l0-0.6h-9.5L91.1,150.7z"/>
			<polygon class="st1" points="104.4,149.7 115.6,149.7 116,148.3 104.7,148.3 105.7,143.4 118.4,143.4 118.7,141.9 104.4,141.9 
				101.2,156.7 115.7,156.7 116.1,155.2 103.2,155.2 			"/>
		</g>
		<g>
			<path d="M134.7,152.6c0.1-0.3,0.1-0.6,0.1-0.8c0-1.3-0.8-2.3-2.3-2.8c0.3-0.1,0.5-0.2,0.7-0.3c1.3-0.7,2-1.5,2.2-2.6
				c0-0.3,0.1-0.5,0.1-0.7c0-0.9-0.4-2.1-2.2-2.8c-0.9-0.4-2.1-0.5-3.4-0.5h-9.3l-3.1,14.8h9.1c1.7,0,3.3-0.2,4.5-0.7
				C133.1,155.3,134.3,154.2,134.7,152.6z M127,155.2h-7.5l1.2-5.4h7.6c1.2,0,2.3,0.1,3.1,0.4c1.5,0.5,1.6,1.2,1.6,1.7
				c0,0.1,0,0.3-0.1,0.5c-0.2,1-1,1.8-2.4,2.3C129.6,155,128.4,155.2,127,155.2z M129.7,143.4c1.1,0,2,0.1,2.7,0.4
				c1.3,0.4,1.4,1.1,1.4,1.5c0,0.1,0,0.3,0,0.4c-0.2,0.9-0.9,1.6-2.1,2c-0.9,0.4-2,0.5-3.3,0.5H121l1-4.9H129.7z"/>
			<path d="M145.4,141.9l-12.1,14.8h2.1l3.7-4.5h9.8l1.7,4.5h1.8l-5.5-14.8H145.4z M140.3,150.7l5.5-6.6l2.5,6.6H140.3z"/>
			<polygon points="157.4,141.9 155.7,141.9 152.5,156.7 165.9,156.7 166.2,155.2 154.6,155.2 			"/>
			<polygon points="168.3,155.2 171.1,141.9 169.4,141.9 166.3,156.7 179.7,156.7 180,155.2 			"/>
		</g>
	</g>
	<g>
		<path d="M101.5,203c-13.7,0-27-2.7-39.5-8c-12.1-5.1-22.9-12.4-32.3-21.7C20.4,163.9,13.1,153.1,8,141c-5.3-12.5-8-25.8-8-39.5
			c0-13.7,2.7-27,8-39.5C13.1,49.9,20.4,39,29.7,29.7C39,20.4,49.9,13.1,62,8c12.5-5.3,25.8-8,39.5-8c13.7,0,27,2.7,39.5,8
			c12.1,5.1,22.9,12.4,32.3,21.7C182.5,39,189.9,49.9,195,62c5.3,12.5,8,25.8,8,39.5c0,13.7-2.7,27-8,39.5
			c-5.1,12.1-12.4,22.9-21.7,32.3c-9.3,9.3-20.2,16.6-32.3,21.7C128.5,200.3,115.2,203,101.5,203L101.5,203z M101.5,4.3
			c-53.6,0-97.1,43.6-97.1,97.1c0,53.6,43.6,97.1,97.1,97.1c53.6,0,97.1-43.6,97.1-97.1C198.6,47.9,155,4.3,101.5,4.3L101.5,4.3z"/>
	</g>
</g>
</svg>
