<?xml version="1.0" encoding="utf-8"?>
<!-- Generator: Adobe Illustrator 19.0.0, SVG Export Plug-In . SVG Version: 6.00 Build 0)  -->
<svg version="1.1" id="Layer_10" xmlns="http://www.w3.org/2000/svg" xmlns:xlink="http://www.w3.org/1999/xlink" x="0px" y="0px"
	 viewBox="121 -22.2 268.3 69.2" style="enable-background:new 121 -22.2 268.3 69.2;" xml:space="preserve">
<style type="text/css">
	.st0{fill:#F7B51D;}
</style>
<g>
	<g>
		<path d="M290.9,12.4c0,1.2-0.9,2.1-2.1,2.1l0,0c-1.2,0-2.1-0.9-2.1-2.1l0,0c0-1.2,0.9-2.1,2.1-2.1l0,0
			C290,10.3,290.9,11.2,290.9,12.4L290.9,12.4z"/>
		<path class="st0" d="M318.8,12.4c0,0.7-0.6,1.3-1.3,1.3s-1.3-0.6-1.3-1.3s0.6-1.3,1.3-1.3S318.8,11.7,318.8,12.4z M286,12.4
			c0-1.1-0.9-1.9-1.9-1.9c-1.1,0-1.9,0.9-1.9,1.9s0.9,1.9,1.9,1.9S286,13.5,286,12.4z M295.5,12.4c0-1.1-0.9-1.9-1.9-1.9
			s-1.9,0.9-1.9,1.9s0.9,1.9,1.9,1.9S295.5,13.5,295.5,12.4z M286.4,5.7c-1.1,0-1.9,0.9-1.9,1.9c0,1.1,0.9,1.9,1.9,1.9
			c1.1,0,1.9-0.9,1.9-1.9C288.4,6.5,287.5,5.7,286.4,5.7z M291.2,9.6c1.1,0,1.9-0.9,1.9-1.9c0-1.1-0.9-1.9-1.9-1.9s-1.9,0.9-1.9,1.9
			S290.1,9.6,291.2,9.6z M286.4,19.1c1.1,0,1.9-0.9,1.9-1.9c0-1.1-0.9-1.9-1.9-1.9c-1.1,0-1.9,0.9-1.9,1.9
			C284.5,18.2,285.4,19.1,286.4,19.1z M291.2,19.1c1.1,0,1.9-0.9,1.9-1.9c0-1.1-0.9-1.9-1.9-1.9s-1.9,0.9-1.9,1.9
			C289.3,18.2,290.1,19.1,291.2,19.1z M281.1,12.4c0-1-0.8-1.8-1.8-1.8s-1.8,0.8-1.8,1.8s0.8,1.8,1.8,1.8S281.1,13.4,281.1,12.4z
			 M300.2,12.4c0-1-0.8-1.8-1.8-1.8s-1.8,0.8-1.8,1.8s0.8,1.8,1.8,1.8C299.4,14.2,300.2,13.4,300.2,12.4z M283.5,7.6
			c0-1-0.8-1.8-1.8-1.8s-1.8,0.8-1.8,1.8s0.8,1.8,1.8,1.8C282.7,9.4,283.5,8.6,283.5,7.6z M297.8,7.6c0-1-0.8-1.8-1.8-1.8
			s-1.8,0.8-1.8,1.8s0.8,1.8,1.8,1.8S297.8,8.6,297.8,7.6z M281.7,19c1,0,1.8-0.8,1.8-1.8s-0.8-1.8-1.8-1.8s-1.8,0.8-1.8,1.8
			S280.7,19,281.7,19z M296,19c1,0,1.8-0.8,1.8-1.8s-0.8-1.8-1.8-1.8s-1.8,0.8-1.8,1.8S295,19,296,19z M277.6,2.8
			c0,0.9,0.8,1.7,1.7,1.7c0.9,0,1.7-0.8,1.7-1.7c0-0.9-0.8-1.7-1.7-1.7C278.4,1.2,277.6,1.9,277.6,2.8z M282.4,2.8
			c0,0.9,0.8,1.7,1.7,1.7c0.9,0,1.7-0.8,1.7-1.7c0-0.9-0.8-1.7-1.7-1.7C283.1,1.2,282.4,1.9,282.4,2.8z M287.1,2.8
			c0,0.9,0.8,1.7,1.7,1.7c0.9,0,1.7-0.8,1.7-1.7c0-0.9-0.8-1.7-1.7-1.7C287.9,1.2,287.1,1.9,287.1,2.8z M291.9,2.8
			c0,0.9,0.8,1.7,1.7,1.7c0.9,0,1.7-0.8,1.7-1.7c0-0.9-0.8-1.7-1.7-1.7C292.7,1.1,291.9,1.9,291.9,2.8z M296.7,2.8
			c0,0.9,0.8,1.7,1.7,1.7s1.7-0.8,1.7-1.7c0-0.9-0.8-1.7-1.7-1.7C297.4,1.2,296.7,1.9,296.7,2.8z M272.8,12.4c0,0.9,0.8,1.7,1.7,1.7
			s1.7-0.8,1.7-1.7s-0.8-1.7-1.7-1.7C273.6,10.7,272.8,11.5,272.8,12.4z M304.8,12.4c0-0.9-0.8-1.7-1.7-1.7s-1.7,0.8-1.7,1.7
			s0.8,1.7,1.7,1.7S304.8,13.3,304.8,12.4z M278.6,7.6c0-0.9-0.8-1.7-1.7-1.7c-0.9,0-1.7,0.8-1.7,1.7c0,0.9,0.8,1.7,1.7,1.7
			C277.8,9.3,278.6,8.5,278.6,7.6z M302.4,7.6c0-0.9-0.8-1.7-1.7-1.7c-0.9,0-1.7,0.8-1.7,1.7c0,0.9,0.8,1.7,1.7,1.7
			C301.7,9.3,302.4,8.5,302.4,7.6z M281,21.9c0-0.9-0.8-1.7-1.7-1.7c-0.9,0-1.7,0.8-1.7,1.7s0.8,1.7,1.7,1.7
			C280.2,23.6,281,22.9,281,21.9z M285.7,21.9c0-0.9-0.8-1.7-1.7-1.7s-1.7,0.8-1.7,1.7s0.8,1.7,1.7,1.7
			C285,23.6,285.7,22.9,285.7,21.9z M290.5,21.9c0-0.9-0.8-1.7-1.7-1.7c-0.9,0-1.7,0.8-1.7,1.7s0.8,1.7,1.7,1.7
			C289.8,23.6,290.5,22.9,290.5,21.9z M295.3,21.9c0-0.9-0.8-1.7-1.7-1.7s-1.7,0.8-1.7,1.7s0.8,1.7,1.7,1.7S295.3,22.9,295.3,21.9z
			 M300.1,21.9c0-0.9-0.8-1.7-1.7-1.7c-0.9,0-1.7,0.8-1.7,1.7s0.8,1.7,1.7,1.7C299.3,23.6,300.1,22.9,300.1,21.9z M276.9,18.8
			c0.9,0,1.7-0.8,1.7-1.7s-0.8-1.7-1.7-1.7s-1.7,0.8-1.7,1.7C275.2,18.1,276,18.8,276.9,18.8z M300.8,18.8c0.9,0,1.7-0.8,1.7-1.7
			s-0.8-1.7-1.7-1.7c-0.9,0-1.7,0.8-1.7,1.7C299.1,18.1,299.8,18.8,300.8,18.8z M272.9,2.8c0,0.9,0.7,1.6,1.6,1.6
			c0.9,0,1.6-0.7,1.6-1.6s-0.7-1.6-1.6-1.6C273.6,1.3,272.9,2,272.9,2.8z M303.1,1.3c-0.9,0-1.6,0.7-1.6,1.6s0.7,1.6,1.6,1.6
			s1.6-0.7,1.6-1.6S304,1.3,303.1,1.3z M276.9-3.5c-0.9,0-1.6,0.7-1.6,1.6s0.7,1.6,1.6,1.6s1.6-0.7,1.6-1.6
			C278.5-2.8,277.8-3.5,276.9-3.5z M281.7-3.5c-0.9,0-1.6,0.7-1.6,1.6s0.7,1.6,1.6,1.6c0.9,0,1.6-0.7,1.6-1.6
			C283.3-2.8,282.5-3.5,281.7-3.5z M286.4-3.5c-0.9,0-1.6,0.7-1.6,1.6s0.7,1.6,1.6,1.6S288-1,288-1.9C288-2.8,287.3-3.5,286.4-3.5z
			 M291.2-3.5c-0.9,0-1.6,0.7-1.6,1.6s0.7,1.6,1.6,1.6c0.9,0,1.6-0.7,1.6-1.6C292.8-2.8,292.1-3.5,291.2-3.5z M296-3.5
			c-0.9,0-1.6,0.7-1.6,1.6s0.7,1.6,1.6,1.6c0.9,0,1.6-0.7,1.6-1.6C297.6-2.8,296.9-3.5,296-3.5z M300.8-3.5c-0.9,0-1.6,0.7-1.6,1.6
			s0.7,1.6,1.6,1.6c0.9,0,1.6-0.7,1.6-1.6C302.3-2.8,301.6-3.5,300.8-3.5z M268.2,12.4c0,0.9,0.7,1.6,1.6,1.6c0.9,0,1.6-0.7,1.6-1.6
			c0-0.9-0.7-1.6-1.6-1.6C268.9,10.8,268.2,11.5,268.2,12.4z M309.5,12.4c0-0.9-0.7-1.6-1.6-1.6s-1.6,0.7-1.6,1.6
			c0,0.9,0.7,1.6,1.6,1.6C308.8,14,309.5,13.3,309.5,12.4z M270.5,7.6c0,0.9,0.7,1.6,1.6,1.6s1.6-0.7,1.6-1.6S273,6,272.1,6
			C271.3,6,270.5,6.7,270.5,7.6z M303.9,7.6c0,0.9,0.7,1.6,1.6,1.6c0.9,0,1.6-0.7,1.6-1.6S306.4,6,305.5,6
			C304.6,6,303.9,6.7,303.9,7.6z M274.5,23.5c0.9,0,1.6-0.7,1.6-1.6c0-0.9-0.7-1.6-1.6-1.6c-0.9,0-1.6,0.7-1.6,1.6
			S273.6,23.5,274.5,23.5z M304.7,21.9c0-0.9-0.7-1.6-1.6-1.6c-0.9,0-1.6,0.7-1.6,1.6c0,0.9,0.7,1.6,1.6,1.6
			C304,23.5,304.7,22.8,304.7,21.9z M273.7,17.2c0-0.9-0.7-1.6-1.6-1.6c-0.9,0-1.6,0.7-1.6,1.6c0,0.9,0.7,1.6,1.6,1.6
			C273,18.7,273.7,18,273.7,17.2z M307.1,17.2c0-0.9-0.7-1.6-1.6-1.6c-0.9,0-1.6,0.7-1.6,1.6c0,0.9,0.7,1.6,1.6,1.6
			C306.4,18.7,307.1,18,307.1,17.2z M276.9,28.3c0.9,0,1.6-0.7,1.6-1.6c0-0.9-0.7-1.6-1.6-1.6s-1.6,0.7-1.6,1.6S276,28.3,276.9,28.3
			z M281.7,28.3c0.9,0,1.6-0.7,1.6-1.6c0-0.9-0.7-1.6-1.6-1.6c-0.9,0-1.6,0.7-1.6,1.6C280.1,27.6,280.8,28.3,281.7,28.3z
			 M286.4,28.3c0.9,0,1.6-0.7,1.6-1.6c0-0.9-0.7-1.6-1.6-1.6s-1.6,0.7-1.6,1.6S285.6,28.3,286.4,28.3z M291.2,28.3
			c0.9,0,1.6-0.7,1.6-1.6c0-0.9-0.7-1.6-1.6-1.6c-0.9,0-1.6,0.7-1.6,1.6C289.6,27.6,290.3,28.3,291.2,28.3z M296,28.3
			c0.9,0,1.6-0.7,1.6-1.6c0-0.9-0.7-1.6-1.6-1.6c-0.9,0-1.6,0.7-1.6,1.6S295.1,28.3,296,28.3z M300.8,28.3c0.9,0,1.6-0.7,1.6-1.6
			c0-0.9-0.7-1.6-1.6-1.6c-0.9,0-1.6,0.7-1.6,1.6S299.9,28.3,300.8,28.3z M274.5-8.2c-0.8,0-1.5,0.7-1.5,1.5c0,0.8,0.7,1.5,1.5,1.5
			s1.5-0.7,1.5-1.5C276-7.5,275.3-8.2,274.5-8.2z M279.3-8.2c-0.8,0-1.5,0.7-1.5,1.5c0,0.8,0.7,1.5,1.5,1.5c0.8,0,1.5-0.7,1.5-1.5
			C280.8-7.5,280.1-8.2,279.3-8.2z M284.1-8.2c-0.8,0-1.5,0.7-1.5,1.5c0,0.8,0.7,1.5,1.5,1.5s1.5-0.7,1.5-1.5
			C285.5-7.5,284.9-8.2,284.1-8.2z M288.8-8.2c-0.8,0-1.5,0.7-1.5,1.5c0,0.8,0.7,1.5,1.5,1.5c0.8,0,1.5-0.7,1.5-1.5
			C290.3-7.5,289.6-8.2,288.8-8.2z M293.6-8.2c-0.8,0-1.5,0.7-1.5,1.5c0,0.8,0.7,1.5,1.5,1.5s1.5-0.7,1.5-1.5
			C295.1-7.5,294.4-8.2,293.6-8.2z M298.4-8.2c-0.8,0-1.5,0.7-1.5,1.5c0,0.8,0.7,1.5,1.5,1.5s1.5-0.7,1.5-1.5
			C299.9-7.5,299.2-8.2,298.4-8.2z M303.1-8.2c-0.8,0-1.5,0.7-1.5,1.5c0,0.8,0.7,1.5,1.5,1.5s1.5-0.7,1.5-1.5
			C304.6-7.5,304-8.2,303.1-8.2z M269.7,4.3c0.8,0,1.5-0.7,1.5-1.5s-0.7-1.5-1.5-1.5c-0.8,0-1.5,0.7-1.5,1.5
			C268.3,3.7,268.9,4.3,269.7,4.3z M307.9,4.3c0.8,0,1.5-0.7,1.5-1.5s-0.7-1.5-1.5-1.5s-1.5,0.7-1.5,1.5
			C306.4,3.7,307.1,4.3,307.9,4.3z M270.6-1.9c0,0.8,0.7,1.5,1.5,1.5s1.5-0.7,1.5-1.5s-0.7-1.5-1.5-1.5S270.6-2.7,270.6-1.9z
			 M305.5-3.4c-0.8,0-1.5,0.7-1.5,1.5s0.7,1.5,1.5,1.5s1.5-0.7,1.5-1.5S306.3-3.4,305.5-3.4z M265,10.9c-0.8,0-1.5,0.7-1.5,1.5
			s0.7,1.5,1.5,1.5s1.5-0.7,1.5-1.5S265.8,10.9,265,10.9z M312.7,13.9c0.8,0,1.5-0.7,1.5-1.5s-0.7-1.5-1.5-1.5
			c-0.8,0-1.5,0.7-1.5,1.5C311.2,13.2,311.9,13.9,312.7,13.9z M267.4,9.1c0.8,0,1.5-0.7,1.5-1.5s-0.7-1.5-1.5-1.5s-1.5,0.7-1.5,1.5
			C265.9,8.4,266.5,9.1,267.4,9.1z M311.8,7.6c0-0.8-0.7-1.5-1.5-1.5c-0.8,0-1.5,0.7-1.5,1.5s0.7,1.5,1.5,1.5
			C311.1,9.1,311.8,8.4,311.8,7.6z M269.7,23.4c0.8,0,1.5-0.7,1.5-1.5s-0.7-1.5-1.5-1.5c-0.8,0-1.5,0.7-1.5,1.5
			S268.9,23.4,269.7,23.4z M307.9,20.4c-0.8,0-1.5,0.7-1.5,1.5s0.7,1.5,1.5,1.5s1.5-0.7,1.5-1.5S308.7,20.4,307.9,20.4z M267.4,18.6
			c0.8,0,1.5-0.7,1.5-1.5s-0.7-1.5-1.5-1.5s-1.5,0.7-1.5,1.5C265.9,18,266.5,18.6,267.4,18.6z M310.3,15.7c-0.8,0-1.5,0.7-1.5,1.5
			s0.7,1.5,1.5,1.5c0.8,0,1.5-0.7,1.5-1.5C311.8,16.3,311.1,15.7,310.3,15.7z M274.5,33c0.8,0,1.5-0.7,1.5-1.5s-0.7-1.5-1.5-1.5
			s-1.5,0.7-1.5,1.5S273.7,33,274.5,33z M279.3,33c0.8,0,1.5-0.7,1.5-1.5s-0.7-1.5-1.5-1.5c-0.8,0-1.5,0.7-1.5,1.5
			S278.5,33,279.3,33z M284.1,33c0.8,0,1.5-0.7,1.5-1.5s-0.7-1.5-1.5-1.5s-1.5,0.7-1.5,1.5S283.2,33,284.1,33z M288.8,33
			c0.8,0,1.5-0.7,1.5-1.5s-0.7-1.5-1.5-1.5c-0.8,0-1.5,0.7-1.5,1.5S288,33,288.8,33z M293.6,33c0.8,0,1.5-0.7,1.5-1.5
			s-0.7-1.5-1.5-1.5s-1.5,0.7-1.5,1.5S292.8,33,293.6,33z M298.4,33c0.8,0,1.5-0.7,1.5-1.5s-0.7-1.5-1.5-1.5s-1.5,0.7-1.5,1.5
			S297.5,33,298.4,33z M303.1,33c0.8,0,1.5-0.7,1.5-1.5s-0.7-1.5-1.5-1.5s-1.5,0.7-1.5,1.5S302.3,33,303.1,33z M272.1,28.2
			c0.8,0,1.5-0.7,1.5-1.5s-0.7-1.5-1.5-1.5s-1.5,0.7-1.5,1.5S271.3,28.2,272.1,28.2z M307,26.7c0-0.8-0.7-1.5-1.5-1.5
			s-1.5,0.7-1.5,1.5s0.7,1.5,1.5,1.5S307,27.5,307,26.7z M269.7-7.9c-0.7,0-1.2,0.5-1.2,1.2c0,0.7,0.5,1.2,1.2,1.2
			c0.7,0,1.2-0.5,1.2-1.2C270.9-7.4,270.4-7.9,269.7-7.9z M307.9-7.9c-0.7,0-1.2,0.5-1.2,1.2c0,0.7,0.5,1.2,1.2,1.2s1.2-0.5,1.2-1.2
			C309.1-7.4,308.6-7.9,307.9-7.9z M272.1-10.3c0.7,0,1.2-0.5,1.2-1.2s-0.5-1.2-1.2-1.2s-1.2,0.5-1.2,1.2S271.5-10.3,272.1-10.3z
			 M276.9-12.7c-0.7,0-1.2,0.5-1.2,1.2s0.5,1.2,1.2,1.2s1.2-0.5,1.2-1.2S277.6-12.7,276.9-12.7z M281.7-12.7c-0.7,0-1.2,0.5-1.2,1.2
			s0.5,1.2,1.2,1.2c0.7,0,1.2-0.5,1.2-1.2S282.3-12.7,281.7-12.7z M286.4-12.7c-0.7,0-1.2,0.5-1.2,1.2s0.5,1.2,1.2,1.2
			s1.2-0.5,1.2-1.2S287.1-12.7,286.4-12.7z M291.2-12.7c-0.7,0-1.2,0.5-1.2,1.2s0.5,1.2,1.2,1.2c0.7,0,1.2-0.5,1.2-1.2
			S291.9-12.7,291.2-12.7z M296-12.7c-0.7,0-1.2,0.5-1.2,1.2s0.5,1.2,1.2,1.2s1.2-0.5,1.2-1.2S296.6-12.7,296-12.7z M300.8-12.7
			c-0.7,0-1.2,0.5-1.2,1.2s0.5,1.2,1.2,1.2c0.7,0,1.2-0.5,1.2-1.2S301.4-12.7,300.8-12.7z M305.5-10.3c0.7,0,1.2-0.5,1.2-1.2
			s-0.5-1.2-1.2-1.2s-1.2,0.5-1.2,1.2S304.9-10.3,305.5-10.3z M265,1.7c-0.7,0-1.2,0.5-1.2,1.2s0.5,1.2,1.2,1.2s1.2-0.5,1.2-1.2
			S265.6,1.7,265,1.7z M312.7,1.7c-0.7,0-1.2,0.5-1.2,1.2s0.5,1.2,1.2,1.2c0.7,0,1.2-0.5,1.2-1.2S313.3,1.7,312.7,1.7z M267.4-3.1
			c-0.7,0-1.2,0.5-1.2,1.2s0.5,1.2,1.2,1.2s1.2-0.5,1.2-1.2C268.6-2.6,268-3.1,267.4-3.1z M310.3-3.1c-0.7,0-1.2,0.5-1.2,1.2
			s0.5,1.2,1.2,1.2c0.7,0,1.2-0.5,1.2-1.2S310.9-3.1,310.3-3.1z M260.2,13.6c0.7,0,1.2-0.5,1.2-1.2s-0.5-1.2-1.2-1.2
			c-0.7,0-1.2,0.5-1.2,1.2C259,13,259.5,13.6,260.2,13.6z M262.6,8.8c0.7,0,1.2-0.5,1.2-1.2s-0.5-1.2-1.2-1.2s-1.2,0.5-1.2,1.2
			C261.4,8.3,261.9,8.8,262.6,8.8z M315.1,8.8c0.7,0,1.2-0.5,1.2-1.2s-0.5-1.2-1.2-1.2s-1.2,0.5-1.2,1.2
			C313.9,8.3,314.4,8.8,315.1,8.8z M265,23.1c0.7,0,1.2-0.5,1.2-1.2s-0.5-1.2-1.2-1.2s-1.2,0.5-1.2,1.2S264.3,23.1,265,23.1z
			 M312.7,23.1c0.7,0,1.2-0.5,1.2-1.2s-0.5-1.2-1.2-1.2c-0.7,0-1.2,0.5-1.2,1.2S312,23.1,312.7,23.1z M262.6,16
			c-0.7,0-1.2,0.5-1.2,1.2s0.5,1.2,1.2,1.2s1.2-0.5,1.2-1.2S263.2,16,262.6,16z M315.1,16c-0.7,0-1.2,0.5-1.2,1.2s0.5,1.2,1.2,1.2
			s1.2-0.5,1.2-1.2S315.7,16,315.1,16z M269.7,32.7c0.7,0,1.2-0.5,1.2-1.2s-0.5-1.2-1.2-1.2c-0.7,0-1.2,0.5-1.2,1.2
			C268.6,32.1,269.1,32.7,269.7,32.7z M307.9,32.7c0.7,0,1.2-0.5,1.2-1.2s-0.5-1.2-1.2-1.2s-1.2,0.5-1.2,1.2
			C306.7,32.1,307.2,32.7,307.9,32.7z M267.4,27.9c0.7,0,1.2-0.5,1.2-1.2s-0.5-1.2-1.2-1.2s-1.2,0.5-1.2,1.2S266.7,27.9,267.4,27.9z
			 M310.3,27.9c0.7,0,1.2-0.5,1.2-1.2s-0.5-1.2-1.2-1.2c-0.7,0-1.2,0.5-1.2,1.2S309.6,27.9,310.3,27.9z M272.1,35
			c-0.7,0-1.2,0.5-1.2,1.2s0.5,1.2,1.2,1.2s1.2-0.5,1.2-1.2S272.8,35,272.1,35z M276.9,37.4c0.7,0,1.2-0.5,1.2-1.2s-0.5-1.2-1.2-1.2
			s-1.2,0.5-1.2,1.2S276.2,37.4,276.9,37.4z M281.7,37.4c0.7,0,1.2-0.5,1.2-1.2s-0.5-1.2-1.2-1.2c-0.7,0-1.2,0.5-1.2,1.2
			S281,37.4,281.7,37.4z M286.4,37.4c0.7,0,1.2-0.5,1.2-1.2s-0.5-1.2-1.2-1.2s-1.2,0.5-1.2,1.2S285.8,37.4,286.4,37.4z M291.2,37.4
			c0.7,0,1.2-0.5,1.2-1.2s-0.5-1.2-1.2-1.2c-0.7,0-1.2,0.5-1.2,1.2S290.6,37.4,291.2,37.4z M296,37.4c0.7,0,1.2-0.5,1.2-1.2
			S296.7,35,296,35s-1.2,0.5-1.2,1.2S295.3,37.4,296,37.4z M300.8,37.4c0.7,0,1.2-0.5,1.2-1.2s-0.5-1.2-1.2-1.2
			c-0.7,0-1.2,0.5-1.2,1.2S300.1,37.4,300.8,37.4z M305.5,35c-0.7,0-1.2,0.5-1.2,1.2s0.5,1.2,1.2,1.2s1.2-0.5,1.2-1.2
			S306.2,35,305.5,35z M274.5-15c0.7,0,1.2-0.5,1.2-1.2c0-0.7-0.5-1.2-1.2-1.2s-1.2,0.5-1.2,1.2C273.3-15.6,273.9-15,274.5-15z
			 M279.3-15c0.7,0,1.2-0.5,1.2-1.2c0-0.7-0.5-1.2-1.2-1.2c-0.7,0-1.2,0.5-1.2,1.2C278.1-15.6,278.6-15,279.3-15z M284.1-15
			c0.7,0,1.2-0.5,1.2-1.2c0-0.7-0.5-1.2-1.2-1.2s-1.2,0.5-1.2,1.2C282.9-15.6,283.4-15,284.1-15z M288.8-15c0.7,0,1.2-0.5,1.2-1.2
			c0-0.7-0.5-1.2-1.2-1.2c-0.7,0-1.2,0.5-1.2,1.2C287.6-15.6,288.2-15,288.8-15z M293.6-15c0.7,0,1.2-0.5,1.2-1.2
			c0-0.7-0.5-1.2-1.2-1.2s-1.2,0.5-1.2,1.2C292.4-15.6,292.9-15,293.6-15z M298.4-15c0.7,0,1.2-0.5,1.2-1.2c0-0.7-0.5-1.2-1.2-1.2
			s-1.2,0.5-1.2,1.2C297.2-15.6,297.7-15,298.4-15z M303.1-15c0.7,0,1.2-0.5,1.2-1.2c0-0.7-0.5-1.2-1.2-1.2s-1.2,0.5-1.2,1.2
			C301.9-15.6,302.5-15,303.1-15z M265-5.5c0.7,0,1.2-0.5,1.2-1.2s-0.5-1.2-1.2-1.2s-1.2,0.5-1.2,1.2S264.3-5.5,265-5.5z M312.7-5.5
			c0.7,0,1.2-0.5,1.2-1.2s-0.5-1.2-1.2-1.2c-0.7,0-1.2,0.5-1.2,1.2S312-5.5,312.7-5.5z M267.4-10.3c0.7,0,1.2-0.5,1.2-1.2
			s-0.5-1.2-1.2-1.2s-1.2,0.5-1.2,1.2S266.7-10.3,267.4-10.3z M310.3-10.3c0.7,0,1.2-0.5,1.2-1.2s-0.5-1.2-1.2-1.2
			c-0.7,0-1.2,0.5-1.2,1.2S309.6-10.3,310.3-10.3z M260.2,1.7c-0.7,0-1.2,0.5-1.2,1.2s0.5,1.2,1.2,1.2c0.7,0,1.2-0.5,1.2-1.2
			S260.9,1.7,260.2,1.7z M317.4,4c0.7,0,1.2-0.5,1.2-1.2s-0.5-1.2-1.2-1.2s-1.2,0.5-1.2,1.2C316.3,3.5,316.8,4,317.4,4z M262.6-3.1
			c-0.7,0-1.2,0.5-1.2,1.2s0.5,1.2,1.2,1.2s1.2-0.5,1.2-1.2S263.2-3.1,262.6-3.1z M315.1-3.1c-0.7,0-1.2,0.5-1.2,1.2
			s0.5,1.2,1.2,1.2s1.2-0.5,1.2-1.2S315.7-3.1,315.1-3.1z M257.8,6.4c-0.7,0-1.2,0.5-1.2,1.2s0.5,1.2,1.2,1.2c0.7,0,1.2-0.5,1.2-1.2
			C259,7,258.5,6.4,257.8,6.4z M319.8,6.4c-0.7,0-1.2,0.5-1.2,1.2s0.5,1.2,1.2,1.2c0.7,0,1.2-0.5,1.2-1.2C321,7,320.5,6.4,319.8,6.4
			z M260.2,23.1c0.7,0,1.2-0.5,1.2-1.2s-0.5-1.2-1.2-1.2c-0.7,0-1.2,0.5-1.2,1.2S259.5,23.1,260.2,23.1z M317.4,23.1
			c0.7,0,1.2-0.5,1.2-1.2s-0.5-1.2-1.2-1.2s-1.2,0.5-1.2,1.2C316.3,22.6,316.8,23.1,317.4,23.1z M257.8,18.3c0.7,0,1.2-0.5,1.2-1.2
			s-0.5-1.2-1.2-1.2c-0.7,0-1.2,0.5-1.2,1.2S257.2,18.3,257.8,18.3z M319.8,18.3c0.7,0,1.2-0.5,1.2-1.2s-0.5-1.2-1.2-1.2
			c-0.7,0-1.2,0.5-1.2,1.2S319.2,18.3,319.8,18.3z M265,30.3c-0.7,0-1.2,0.5-1.2,1.2s0.5,1.2,1.2,1.2s1.2-0.5,1.2-1.2
			S265.6,30.3,265,30.3z M312.7,30.3c-0.7,0-1.2,0.5-1.2,1.2s0.5,1.2,1.2,1.2c0.7,0,1.2-0.5,1.2-1.2S313.3,30.3,312.7,30.3z
			 M262.6,27.9c0.7,0,1.2-0.5,1.2-1.2s-0.5-1.2-1.2-1.2s-1.2,0.5-1.2,1.2C261.4,27.4,261.9,27.9,262.6,27.9z M315.1,27.9
			c0.7,0,1.2-0.5,1.2-1.2s-0.5-1.2-1.2-1.2s-1.2,0.5-1.2,1.2C313.9,27.4,314.4,27.9,315.1,27.9z M274.5,39.8c-0.7,0-1.2,0.5-1.2,1.2
			s0.5,1.2,1.2,1.2s1.2-0.5,1.2-1.2S275.2,39.8,274.5,39.8z M279.3,39.8c-0.7,0-1.2,0.5-1.2,1.2s0.5,1.2,1.2,1.2
			c0.7,0,1.2-0.5,1.2-1.2S279.9,39.8,279.3,39.8z M284.1,39.8c-0.7,0-1.2,0.5-1.2,1.2s0.5,1.2,1.2,1.2s1.2-0.5,1.2-1.2
			C285.2,40.3,284.7,39.8,284.1,39.8z M288.8,39.8c-0.7,0-1.2,0.5-1.2,1.2s0.5,1.2,1.2,1.2c0.7,0,1.2-0.5,1.2-1.2
			S289.5,39.8,288.8,39.8z M293.6,39.8c-0.7,0-1.2,0.5-1.2,1.2s0.5,1.2,1.2,1.2s1.2-0.5,1.2-1.2S294.3,39.8,293.6,39.8z M298.4,39.8
			c-0.7,0-1.2,0.5-1.2,1.2s0.5,1.2,1.2,1.2s1.2-0.5,1.2-1.2C299.6,40.3,299,39.8,298.4,39.8z M303.1,39.8c-0.7,0-1.2,0.5-1.2,1.2
			s0.5,1.2,1.2,1.2s1.2-0.5,1.2-1.2S303.8,39.8,303.1,39.8z M267.4,35c-0.7,0-1.2,0.5-1.2,1.2s0.5,1.2,1.2,1.2s1.2-0.5,1.2-1.2
			S268,35,267.4,35z M310.3,35c-0.7,0-1.2,0.5-1.2,1.2s0.5,1.2,1.2,1.2c0.7,0,1.2-0.5,1.2-1.2S310.9,35,310.3,35z M269.7-15
			c0.7,0,1.2-0.5,1.2-1.2c0-0.7-0.5-1.2-1.2-1.2c-0.7,0-1.2,0.5-1.2,1.2C268.6-15.6,269.1-15,269.7-15z M307.9-15
			c0.7,0,1.2-0.5,1.2-1.2c0-0.7-0.5-1.2-1.2-1.2s-1.2,0.5-1.2,1.2C306.7-15.6,307.2-15,307.9-15z M276.9-19.8c0.7,0,1.2-0.5,1.2-1.2
			c0-0.7-0.5-1.2-1.2-1.2c-0.7,0-1.2,0.5-1.2,1.2C275.7-20.3,276.2-19.8,276.9-19.8z M281.7-19.8c0.7,0,1.2-0.5,1.2-1.2
			c0-0.7-0.6-1.2-1.2-1.2c-0.6,0-1.2,0.5-1.2,1.2C280.5-20.3,281-19.8,281.7-19.8z M286.4-19.8c0.7,0,1.2-0.5,1.2-1.2
			c0-0.7-0.5-1.2-1.2-1.2c-0.7,0-1.2,0.5-1.2,1.2C285.2-20.3,285.8-19.8,286.4-19.8z M291.2-19.8c0.7,0,1.2-0.5,1.2-1.2
			c0-0.7-0.5-1.2-1.2-1.2c-0.7,0-1.2,0.5-1.2,1.2C290-20.3,290.6-19.8,291.2-19.8z M296-19.8c0.7,0,1.2-0.5,1.2-1.2
			c0-0.7-0.6-1.2-1.2-1.2c-0.7,0-1.2,0.5-1.2,1.2C294.8-20.3,295.3-19.8,296-19.8z M300.8-19.8c0.7,0,1.2-0.5,1.2-1.2
			c0-0.7-0.6-1.2-1.2-1.2c-0.7,0-1.2,0.5-1.2,1.2C299.6-20.3,300.1-19.8,300.8-19.8z M260.2-5.5c0.7,0,1.2-0.5,1.2-1.2
			s-0.5-1.2-1.2-1.2c-0.7,0-1.2,0.5-1.2,1.2S259.5-5.5,260.2-5.5z M317.4-5.5c0.7,0,1.2-0.5,1.2-1.2s-0.5-1.2-1.2-1.2
			s-1.2,0.5-1.2,1.2C316.3-6,316.8-5.5,317.4-5.5z M262.6-10.3c0.7,0,1.2-0.5,1.2-1.2s-0.5-1.2-1.2-1.2s-1.2,0.5-1.2,1.2
			S261.9-10.3,262.6-10.3z M315.1-10.3c0.7,0,1.2-0.5,1.2-1.2s-0.5-1.2-1.2-1.2s-1.2,0.5-1.2,1.2S314.4-10.3,315.1-10.3z M255.4,4
			c0.7,0,1.2-0.5,1.2-1.2s-0.5-1.2-1.2-1.2c-0.7,0-1.2,0.5-1.2,1.2S254.8,4,255.4,4z M322.2,4c0.7,0,1.2-0.5,1.2-1.2
			s-0.5-1.2-1.2-1.2c-0.7,0-1.2,0.5-1.2,1.2S321.6,4,322.2,4z M257.8-0.7c0.7,0,1.2-0.5,1.2-1.2s-0.5-1.2-1.2-1.2
			c-0.7,0-1.2,0.5-1.2,1.2C256.6-1.3,257.2-0.7,257.8-0.7z M319.8-0.7c0.7,0,1.2-0.5,1.2-1.2s-0.5-1.2-1.2-1.2
			c-0.7,0-1.2,0.5-1.2,1.2C318.6-1.3,319.2-0.7,319.8-0.7z M255.4,13.6c0.7,0,1.2-0.5,1.2-1.2s-0.5-1.2-1.2-1.2
			c-0.7,0-1.2,0.5-1.2,1.2C254.2,13,254.8,13.6,255.4,13.6z M322.2,11.2c-0.7,0-1.2,0.5-1.2,1.2s0.5,1.2,1.2,1.2
			c0.7,0,1.2-0.5,1.2-1.2S322.9,11.2,322.2,11.2z M255.4,20.7c-0.7,0-1.2,0.5-1.2,1.2s0.5,1.2,1.2,1.2c0.7,0,1.2-0.5,1.2-1.2
			C256.6,21.3,256.1,20.7,255.4,20.7z M322.2,20.7c-0.7,0-1.2,0.5-1.2,1.2s0.5,1.2,1.2,1.2c0.7,0,1.2-0.5,1.2-1.2
			C323.4,21.3,322.9,20.7,322.2,20.7z M260.2,30.3c-0.7,0-1.2,0.5-1.2,1.2s0.5,1.2,1.2,1.2c0.7,0,1.2-0.5,1.2-1.2
			S260.9,30.3,260.2,30.3z M317.4,30.3c-0.7,0-1.2,0.5-1.2,1.2s0.5,1.2,1.2,1.2s1.2-0.5,1.2-1.2C318.6,30.8,318.1,30.3,317.4,30.3z
			 M257.8,25.5c-0.7,0-1.2,0.5-1.2,1.2s0.5,1.2,1.2,1.2c0.7,0,1.2-0.5,1.2-1.2S258.5,25.5,257.8,25.5z M319.8,25.5
			c-0.7,0-1.2,0.5-1.2,1.2s0.5,1.2,1.2,1.2c0.7,0,1.2-0.5,1.2-1.2S320.5,25.5,319.8,25.5z M269.7,39.8c-0.7,0-1.2,0.5-1.2,1.2
			s0.5,1.2,1.2,1.2c0.7,0,1.2-0.5,1.2-1.2S270.4,39.8,269.7,39.8z M307.9,39.8c-0.7,0-1.2,0.5-1.2,1.2s0.5,1.2,1.2,1.2
			s1.2-0.5,1.2-1.2C309.1,40.3,308.6,39.8,307.9,39.8z M262.6,35c-0.7,0-1.2,0.5-1.2,1.2s0.5,1.2,1.2,1.2s1.2-0.5,1.2-1.2
			S263.2,35,262.6,35z M315.1,35c-0.7,0-1.2,0.5-1.2,1.2s0.5,1.2,1.2,1.2s1.2-0.5,1.2-1.2S315.7,35,315.1,35z M276.9,44.6
			c-0.7,0-1.2,0.5-1.2,1.2s0.5,1.2,1.2,1.2s1.2-0.5,1.2-1.2C278.1,45.1,277.6,44.6,276.9,44.6z M281.7,44.6c-0.7,0-1.2,0.5-1.2,1.2
			s0.5,1.2,1.2,1.2c0.7,0,1.2-0.5,1.2-1.2S282.3,44.6,281.7,44.6z M286.4,44.6c-0.7,0-1.2,0.5-1.2,1.2s0.5,1.2,1.2,1.2
			s1.2-0.5,1.2-1.2C287.6,45.1,287.1,44.6,286.4,44.6z M291.2,44.6c-0.7,0-1.2,0.5-1.2,1.2s0.5,1.2,1.2,1.2c0.7,0,1.2-0.5,1.2-1.2
			S291.9,44.6,291.2,44.6z M296,44.6c-0.7,0-1.2,0.5-1.2,1.2s0.5,1.2,1.2,1.2s1.2-0.5,1.2-1.2S296.6,44.6,296,44.6z M300.8,44.6
			c-0.7,0-1.2,0.5-1.2,1.2s0.5,1.2,1.2,1.2c0.7,0,1.2-0.5,1.2-1.2C301.9,45.1,301.4,44.6,300.8,44.6z"/>
	</g>
	<g>
		<path d="M121.2,23.1l0.4-0.5c0.3-0.3,0.6-0.5,0.9-0.2c0.4,0.4,3.5,3.2,7.7,3.2c3.8,0,7-2.6,7-5.6c0-3.7-3.1-5.4-8.1-7.1
			c-4.8-1.7-8.1-3.4-8.1-8.3c0-3.1,2.5-7.4,9.1-7.4c4.2,0,7.2,2.1,7.2,2.1c0.2,0.1,0.5,0.4,0.2,0.9c-0.1,0.2-0.3,0.4-0.3,0.5
			c-0.3,0.3-0.5,0.5-0.9,0.2c-0.1-0.1-2.9-2-6.2-2c-5.2,0-7.1,3.2-7.1,5.6c0,3.6,2.7,5.1,7,6.5c5.7,2,9.4,4,9.4,8.9
			c0,4.2-4.3,7.5-9.1,7.5c-5,0-8.3-2.9-8.9-3.4C121,23.8,120.8,23.5,121.2,23.1z"/>
		<path d="M150.2-0.6h-8c-0.4,0-0.5-0.3-0.5-0.6v-0.6c0-0.3,0.3-0.5,0.5-0.5h18c0.3,0,0.5,0.3,0.5,0.5v0.7c0,0.3-0.2,0.5-0.5,0.5
			h-8.1v27c0,0.3-0.3,0.5-0.7,0.5h-0.8c-0.3,0-0.5-0.3-0.5-0.5L150.2-0.6L150.2-0.6z"/>
		<path d="M178-2.8c8.4,0,15.1,6.8,15.1,15.1c0,8.4-6.7,15.1-15.1,15.1s-15.1-6.6-15.1-15.1C162.9,4,169.6-2.8,178-2.8z M178,25.6
			c7.3,0,13.3-5.9,13.3-13.2s-6-13.3-13.3-13.3c-7.3,0-13.3,6-13.3,13.3C164.7,19.7,170.6,25.6,178,25.6z"/>
		<path d="M198.9-1.8c0-0.3,0.2-0.5,0.5-0.5h10.4c5.1,0,9.4,3.9,9.4,9c0,4.2-2.9,7.6-6.9,8.8l6.1,10.9c0.2,0.3,0.1,0.8-0.3,0.8h-1.3
			c-0.3,0-0.5-0.1-0.6-0.4l-6.1-11c-0.5,0-1,0-1.6,0h-7.7v10.8c0,0.3-0.3,0.5-0.7,0.5h-0.8c-0.3,0-0.5-0.3-0.5-0.5L198.9-1.8
			L198.9-1.8z M209.8,13.9c4,0,7.4-3.1,7.4-7.3c0-4-3.4-7-7.5-7h-8.8v14.3H209.8z"/>
		<path d="M232.3,12.7L221.6-1.8c-0.3-0.3-0.1-0.6,0.3-0.6h1.3c0.2,0,0.4,0.1,0.5,0.3l9.6,13l9.7-13c0.1-0.2,0.3-0.3,0.5-0.3h1.3
			c0.4,0,0.6,0.3,0.3,0.6l-10.9,14.4v13.8c0,0.3-0.3,0.5-0.5,0.5c-0.5,0-1.4,0.1-1.4-0.5C232.3,26.4,232.3,12.7,232.3,12.7z"/>
		<path d="M249.6-1.8c0-0.3,0.3-0.5,0.5-0.5h8.9c5.2,0,8.7,3,8.7,7.6c0,3.3-2,5.7-4.6,6.8c3,0.8,5.5,3,5.5,7c0,4.7-3.8,8-9.2,8h-9.3
			c-0.3,0-0.5-0.3-0.5-0.5L249.6-1.8L249.6-1.8z M259.7,25.2c4.1,0,6.9-2.6,6.9-6.2c0-3.7-3.2-6-7.2-6h-7.8v12.2H259.7z M259.4,11.2
			c3.9,0,6.2-2.5,6.2-5.9c0-3.6-2.5-5.8-6.5-5.8h-7.5v11.7H259.4z"/>
		<path d="M288.8-2.8c8.4,0,15.1,6.8,15.1,15.1c0,8.4-6.7,15.1-15.1,15.1c-8.4,0-15.1-6.6-15.1-15.1C273.7,4,280.4-2.8,288.8-2.8z
			 M288.8,25.6c7.3,0,13.3-5.9,13.3-13.2s-6-13.3-13.3-13.3c-7.3,0-13.3,6-13.3,13.3S281.4,25.6,288.8,25.6z"/>
		<path d="M306.3,26.5l12.9-29.2c0.1-0.2,0.3-0.3,0.5-0.3h0.1c0.2,0,0.4,0,0.5,0.3l12.8,29.2c0.1,0.3,0.1,0.5-0.4,0.5h-1.1
			c-0.3,0-0.5-0.2-0.6-0.4l-3.4-7.7h-16l-3.4,7.7c-0.1,0.2-0.3,0.4-0.6,0.4h-1.2C306.3,27,306.2,26.8,306.3,26.5z M327.1,17.3
			l-7.2-16.9h-0.1l-7.3,16.9H327.1z"/>
		<path d="M337.9-1.8c0-0.3,0.2-0.5,0.5-0.5h10.4c5.1,0,9.4,3.9,9.4,9c0,4.2-2.9,7.6-6.9,8.8l6.1,10.9c0.2,0.3,0.1,0.8-0.3,0.8h-1.3
			c-0.3,0-0.5-0.1-0.6-0.4l-6.1-11c-0.5,0-1,0-1.6,0h-7.7v10.8c0,0.3-0.3,0.5-0.7,0.5h-0.8c-0.3,0-0.5-0.3-0.5-0.5V-1.8H337.9z
			 M348.8,13.9c4,0,7.4-3.1,7.4-7.3c0-4-3.4-7-7.5-7h-8.8v14.3H348.8z"/>
		<path d="M365.2-1.8c0-0.3,0.2-0.5,0.5-0.5h8.9c8.1,0,14.8,6.6,14.8,14.6c0,8.2-6.6,14.7-14.8,14.7h-8.9c-0.3,0-0.5-0.3-0.5-0.5
			V-1.8z M374.2,25.2c7.3,0,13-5.6,13-12.9s-5.7-12.8-13-12.8h-7.1v25.8L374.2,25.2L374.2,25.2z"/>
	</g>
	<g>
		<path d="M200.7,36.2c1,0,1.7,0.3,2.4,0.9c0.1,0.1,0.1,0.2,0,0.3l-0.6,0.6c-0.1,0.1-0.2,0.1-0.2,0c-0.4-0.4-1-0.6-1.5-0.6
			c-1.3,0-2.2,1.1-2.2,2.3s0.9,2.3,2.2,2.3c0.6,0,1.1-0.2,1.5-0.6c0.1-0.1,0.2-0.1,0.2,0l0.6,0.6c0.1,0.1,0.1,0.2,0,0.3
			c-0.7,0.6-1.5,1-2.4,1c-2,0-3.6-1.6-3.6-3.5C197.1,37.8,198.7,36.2,200.7,36.2z"/>
		<path d="M209.3,36.2c2,0,3.5,1.6,3.5,3.6s-1.6,3.5-3.5,3.5c-2,0-3.5-1.6-3.5-3.5C205.8,37.8,207.4,36.2,209.3,36.2z M209.3,42
			c1.2,0,2.3-1,2.3-2.3c0-1.2-1-2.3-2.3-2.3c-1.2,0-2.3,1-2.3,2.3C207.1,41,208.1,42,209.3,42z"/>
		<path d="M216.9,36.4c0-0.1,0.1-0.1,0.2-0.1h0.2c0.1,0,0.1,0,0.2,0.1l2.2,4.6l0,0l2.2-4.6c0-0.1,0.1-0.1,0.2-0.1h0.2
			c0.1,0,0.2,0.1,0.2,0.1l1.2,6.6c0,0.1-0.1,0.2-0.2,0.2h-0.9c-0.1,0-0.2-0.1-0.2-0.1l-0.6-3.7l0,0l-1.7,3.9c0,0.1-0.1,0.1-0.2,0.1
			h-0.2c-0.1,0-0.1,0-0.2-0.1l-1.7-3.9l0,0l-0.6,3.7c0,0.1-0.1,0.1-0.2,0.1h-0.9c-0.1,0-0.2-0.1-0.2-0.2L216.9,36.4z"/>
		<path d="M227.4,36.4c0-0.1,0.1-0.1,0.2-0.1h0.2c0.1,0,0.1,0,0.2,0.1l2.2,4.6l0,0l2.2-4.6c0-0.1,0.1-0.1,0.2-0.1h0.2
			c0.1,0,0.2,0.1,0.2,0.1l1.2,6.6c0,0.1-0.1,0.2-0.2,0.2h-0.9c-0.1,0-0.2-0.1-0.2-0.1l-0.6-3.7l0,0l-1.7,3.9c0,0.1-0.1,0.1-0.2,0.1
			H230c-0.1,0-0.1,0-0.2-0.1l-1.7-3.9l0,0l-0.6,3.7c0,0.1-0.1,0.1-0.2,0.1h-0.9c-0.1,0-0.2-0.1-0.2-0.2L227.4,36.4z"/>
		<path d="M237.2,36.5c0-0.1,0.1-0.2,0.2-0.2h0.9c0.1,0,0.2,0.1,0.2,0.2v4c0,0.8,0.6,1.5,1.4,1.5c0.9,0,1.4-0.7,1.4-1.5v-4
			c0-0.1,0.1-0.2,0.2-0.2h0.9c0.1,0,0.2,0.1,0.2,0.2v4.1c0,1.5-1.2,2.7-2.7,2.7s-2.7-1.2-2.7-2.7V36.5z"/>
		<path d="M246.3,36.4c0-0.1,0.1-0.2,0.2-0.2h0.2l4.1,4.3l0,0v-4.1c0-0.1,0.1-0.2,0.2-0.2h0.9c0.1,0,0.2,0.1,0.2,0.2V43
			c0,0.1-0.1,0.2-0.2,0.2h-0.2l-4.1-4.5l0,0v4.2c0,0.1-0.1,0.2-0.2,0.2h-0.9c-0.1,0-0.2-0.1-0.2-0.2V36.4z"/>
		<path d="M255.9,36.5c0-0.1,0.1-0.2,0.2-0.2h0.9c0.1,0,0.2,0.1,0.2,0.2V43c0,0.1-0.1,0.2-0.2,0.2h-0.9c-0.1,0-0.2-0.1-0.2-0.2V36.5
			z"/>
		<path d="M264,36.2c1,0,1.7,0.3,2.4,0.9c0.1,0.1,0.1,0.2,0,0.3l-0.6,0.6c-0.1,0.1-0.2,0.1-0.2,0c-0.4-0.4-1-0.6-1.5-0.6
			c-1.3,0-2.2,1.1-2.2,2.3s0.9,2.3,2.2,2.3c0.6,0,1.1-0.2,1.5-0.6c0.1-0.1,0.2-0.1,0.2,0l0.6,0.6c0.1,0.1,0.1,0.2,0,0.3
			c-0.7,0.6-1.5,1-2.4,1c-2,0-3.6-1.6-3.6-3.5C260.4,37.8,262,36.2,264,36.2z"/>
		<path d="M268.8,43l3.1-6.6c0-0.1,0.1-0.1,0.2-0.1h0.1c0.1,0,0.1,0,0.2,0.1l3,6.6c0.1,0.1,0,0.3-0.2,0.3h-0.9
			c-0.1,0-0.2-0.1-0.3-0.2l-0.5-1.1h-2.9l-0.5,1.1c0,0.1-0.1,0.2-0.3,0.2h-0.9C268.8,43.2,268.7,43.1,268.8,43z M273,40.9l-1-2.2
			l0,0l-1,2.2H273z"/>
		<path d="M278.7,37.5h-1.5c-0.1,0-0.2-0.1-0.2-0.2v-0.8c0-0.1,0.1-0.2,0.2-0.2h4.3c0.1,0,0.2,0.1,0.2,0.2v0.8
			c0,0.1-0.1,0.2-0.2,0.2H280V43c0,0.1-0.1,0.2-0.2,0.2h-0.9c-0.1,0-0.2-0.1-0.2-0.2V37.5L278.7,37.5z"/>
		<path d="M284.7,36.5c0-0.1,0.1-0.2,0.2-0.2h0.9c0.1,0,0.2,0.1,0.2,0.2V43c0,0.1-0.1,0.2-0.2,0.2h-0.9c-0.1,0-0.2-0.1-0.2-0.2V36.5
			z"/>
		<path d="M292.8,36.2c2,0,3.5,1.6,3.5,3.6s-1.6,3.5-3.5,3.5c-2,0-3.5-1.6-3.5-3.5C289.2,37.8,290.8,36.2,292.8,36.2z M292.8,42
			c1.2,0,2.3-1,2.3-2.3c0-1.2-1-2.3-2.3-2.3c-1.2,0-2.3,1-2.3,2.3C290.5,41,291.5,42,292.8,42z"/>
		<path d="M299.6,36.4c0-0.1,0.1-0.2,0.2-0.2h0.2l4.1,4.3l0,0v-4.1c0-0.1,0.1-0.2,0.2-0.2h0.9c0.1,0,0.2,0.1,0.2,0.2V43
			c0,0.1-0.1,0.2-0.2,0.2H305l-4.1-4.5l0,0v4.2c0,0.1-0.1,0.2-0.2,0.2h-0.9c-0.1,0-0.2-0.1-0.2-0.2V36.4z"/>
		<path d="M308.8,42.3l0.4-0.6c0.1-0.1,0.2-0.1,0.3-0.1s0.8,0.6,1.5,0.6c0.5,0,0.9-0.3,0.9-0.8c0-0.5-0.4-0.8-1.2-1.2
			c-0.9-0.4-1.8-1-1.8-2.1c0-0.9,0.6-1.9,2.2-1.9c1,0,1.8,0.5,2,0.7c0.1,0.1,0.1,0.2,0.1,0.3l-0.4,0.6c-0.1,0.1-0.2,0.2-0.3,0.1
			c-0.1,0-0.8-0.5-1.4-0.5s-0.9,0.4-0.9,0.7c0,0.5,0.4,0.8,1.2,1.1c1,0.4,2.1,1,2.1,2.2c0,1-0.9,1.9-2.3,1.9c-1.2,0-2-0.6-2.2-0.8
			C308.7,42.5,308.7,42.4,308.8,42.3z"/>
	</g>
</g>
</svg>
