<?xml version="1.0" encoding="utf-8"?>
<!-- Generator: Adobe Illustrator 19.0.0, SVG Export Plug-In . SVG Version: 6.00 Build 0)  -->
<svg version="1.1" id="Layer_1" xmlns="http://www.w3.org/2000/svg" xmlns:xlink="http://www.w3.org/1999/xlink" x="0px" y="0px"
	 viewBox="0 0 74.8 65.1" style="enable-background:new 0 0 74.8 65.1;" xml:space="preserve">
<style type="text/css">
	.st0{fill:#D55028;}
	.st1{fill:#FFFFFF;}
	.st2{fill:#F09821;}
	.st3{fill:url(#XMLID_44_);}
</style>
<path id="XMLID_15_" class="st0" d="M33.8,12.6c0,0-1.8-5.4,1-7.8S41,0.1,46.3,4.1c3.4,2.9,5.9,7.3,6,8.2c0.1,1,1.3,6.1,2.1,8.2
	c0,0,2.3,5.8,0.2,10.7c0,0,0.7,4.4-0.2,5.9c-0.9,1.4-6.2,7.7-6.6,8.1c-2.7,2.6-4.7,3.9-6.6,3.3c0,0-3.1,13.4-6.4,13.7c0,0-1,0-1.1-1
	c0,0-0.4,2-1.7,2.5c0,0-1,0-1-1c0,0-0.5,0.5-1.2,0.1c-1.3-0.7-3.2-13.1-1.4-16.7c-0.2-6-0.8-27.8,5.3-32.5
	C33.8,13.7,34,13.2,33.8,12.6z"/>
<path id="XMLID_14_" class="st1" d="M41.1,10.6c-0.1,0.9,0.2,1.8,0.8,1.8s1.7-1,1.7-2.3c0-1.2-0.5-1.9-1.1-1.9
	C42.1,8.3,41.3,9.6,41.1,10.6z"/>
<path id="XMLID_13_" class="st2" d="M39.7,17.2c0,0-1,1.4,0.1,2.7c0,0,0.2,0.6-0.5,0.2c-0.7-0.4-3-2.6-3.5-5.5c0,0-0.1-0.1-0.4-0.4
	c0,0-0.7-0.5,0.1-1c0.8-0.4,2.9-1.1,4.7,0.2C41,14.2,39.8,17.1,39.7,17.2z"/>
<linearGradient id="XMLID_44_" gradientUnits="userSpaceOnUse" x1="12.7195" y1="43.2786" x2="92.8158" y2="43.2786">
	<stop  offset="0" style="stop-color:#D55028"/>
	<stop  offset="8.468873e-02" style="stop-color:#D75728"/>
	<stop  offset="1" style="stop-color:#F09821"/>
</linearGradient>
<path id="XMLID_6_" class="st3" d="M72.2,39c-11.7-3.2-33.4-2.9-66.7-1.3c0.1,1.7,0.1,1.8,0.7,3.8C6.7,43.3,7.4,45,8,46.7
	c24.8-1.5,63.5-2.8,65.4,3.3C76.4,46.9,74,39.5,72.2,39z"/>
<g id="XMLID_20_">
	<path id="XMLID_12_" class="st2" d="M36.7,36.7c0.4,1.5,0.4,2.9,0.7,4.3c0.1,0.6,1.5,0.8,1.2,0c-0.7-1.9-0.5-2.7-0.6-4.1
		C38,36.1,36.5,35.9,36.7,36.7z"/>
	<path id="XMLID_11_" class="st2" d="M46.4,35.2c0.6,1.5,0.3,2.8,0,4.2c-0.1,0.6,1.1,1,1.2,0.3c0.3-1.4,0.2-2.7,0.1-4
		C47.5,34.9,46.1,34.4,46.4,35.2z"/>
	<path id="XMLID_10_" class="st2" d="M40.1,36.3c0.1,1,0.4,1.6,0.3,3c0,0.5-1.2,0.7-1.2,0.2c0-1-0.2-1.9-0.3-2.9
		C38.8,36.1,40,35.8,40.1,36.3z"/>
	<path id="XMLID_9_" class="st2" d="M44.6,35.1c-0.1,1,0,1.9,0,2.8c0.1,0.6,1.5,0.8,1.3,0.1c-0.4-1.5-0.2-1.8-0.1-2.8
		C45.9,34.6,44.7,34.4,44.6,35.1z"/>
	<path id="XMLID_8_" class="st2" d="M38.4,42.5c0.4,1.5-0.7-1.2-0.7-1.2l0.7,0C38.5,41.3,38,41,38.4,42.5z"/>
	<path id="XMLID_7_" class="st2" d="M45.7,39.3c0.4,1.5-0.7-1.2-0.7-1.2l0.7,0C45.7,38.1,45.3,37.8,45.7,39.3z"/>
	<path id="XMLID_5_" class="st2" d="M46.6,40.6c-0.3,1.5,0.6-1.2,0.6-1.2l-0.7,0C46.5,39.5,46.9,39.1,46.6,40.6z"/>
	<path id="XMLID_4_" class="st2" d="M39.8,40.6c0.1,1.1,0.3-1,0.3-1l-0.6,0.2C39.5,39.8,39.8,39.5,39.8,40.6z"/>
</g>
<path id="XMLID_3_" class="st0" d="M32.9,10c0.5,0.7,1.4,5.2-3.8,7.2c0,0,1.1,2.6,1.2,3.1c0,0.5-0.4,16.8-1.1,18.5
	c-0.7,1.7-4.6,6-5.6,7.6c-1,1.6-0.8,3.5-3.9,4.3s-2.3-1.3-2.4-1.3c-0.1,0-0.1,0-0.1,0s-6.7,15-7.6,15.5C8.7,65.3,8,64.2,8,64.2
	S7.8,65,7.2,65.1C5.9,65.2,5.1,57.5,4.8,51c0,0-0.4,1.3-1,1.7s-1.6-3.3-1.6-3.7s-2.6-13.1-2.1-15.5c0.5-2.5,3-16.7,7.6-20
	c1.3-0.9,0.7-2.3,3.2-3.3c0,0,1.7-6.7,8.6-9.6c3.9-1.6,13,0.2,14.1,7.3C33.9,9.2,32.7,9.5,32.9,10z"/>
<path id="XMLID_2_" class="st2" d="M33,10c0.2-0.2,0.2-1-0.5-1.1c0,0-1.8-0.2-2.8,1c-1,1.1,0,3.5,0.3,4.4c0.3,0.9-0.4,1.9-0.9,2.4
	c-0.5,0.4-0.2,0.6,0.6,0.4C30.9,16.6,34.5,14.2,33,10z"/>
<path id="XMLID_1_" class="st1" d="M28.9,6c0.9,1,0.3,2.3-0.9,2.5c-0.9,0.1-2.6-1.3-2.5-2.4c0-0.6-0.9-1,0.2-1
	C26.7,4.3,27.8,4.7,28.9,6z"/>
</svg>
