<?xml version="1.0" encoding="utf-8"?>
<!-- Generator: Adobe Illustrator 16.0.0, SVG Export Plug-In . SVG Version: 6.00 Build 0)  -->
<!DOCTYPE svg PUBLIC "-//W3C//DTD SVG 1.1//EN" "http://www.w3.org/Graphics/SVG/1.1/DTD/svg11.dtd">
<svg version="1.1" id="Layer_1" xmlns="http://www.w3.org/2000/svg" xmlns:xlink="http://www.w3.org/1999/xlink" x="0px" y="0px"
	 width="220px" height="220px" viewBox="0 0 220 220" enable-background="new 0 0 220 220" xml:space="preserve">
<g>
	<path id="White" fill="#FFFFFF" d="M220,110c0,60.752-49.252,109.998-109.998,109.998C49.246,219.999,0,170.752,0,110
		C0,49.247,49.246,0.001,110.002,0.001C170.748,0.001,220,49.247,220,110z"/>
	<g id="Orange">
		<g>
			<path fill="#D14D27" d="M125.683,32.157h-5.836c-0.656-8.523-6.896-15.207-14.497-15.207c-0.434,0-0.859,0.027-1.284,0.068
				v-0.003c-8.898,0.435-14.498,5.051-18.517,7.854c-2.294,1.6-7.289,4.277-11.158,6.276c0.882,0.206,1.8,0.457,2.778,0.728
				c4.692,1.298,10.539,2.913,18.244,0.532c2.485-0.768,3.936-1.18,4.872-1.191c0.066-0.057,0.14-0.1,0.225-0.123l0.975-0.247
				c0.379-0.095,0.785,0.23,0.913,0.729l1.211,4.754c0.124,0.501-0.078,0.982-0.457,1.077l-0.975,0.25
				c-0.182,0.046-0.371-0.008-0.533-0.132c-0.658,0.599-1.842,1.065-3.893,1.542c-1.23,0.287-2.307,0.567-3.354,0.838
				c-2.773,0.718-4.937,1.278-7.339,1.278c-1.362,0-2.794-0.179-4.456-0.61c0.776,0.47,1.493,0.928,2.097,1.358
				c4.626,3.291,14.601,10.125,22.349,8.293v-0.004c5.444-0.723,9.972-4.89,11.883-10.552h6.753V32.157z M112.359,30.139
				l0.193,0.746c0.043,0.167-0.058,0.334-0.225,0.376l-2.383,0.606c-0.162,0.042-0.333-0.055-0.376-0.222l-0.188-0.746
				c-0.046-0.167,0.058-0.34,0.224-0.38l2.38-0.605C112.15,29.872,112.321,29.973,112.359,30.139z M111.945,28.502l0.189,0.745
				c0.047,0.167-0.058,0.337-0.224,0.38l-2.38,0.605c-0.165,0.043-0.336-0.058-0.379-0.225l-0.189-0.748
				c-0.043-0.166,0.062-0.334,0.226-0.377l2.383-0.605C111.733,28.235,111.903,28.334,111.945,28.502z M108.196,30.878l0.682-0.172
				c0.093-0.026,0.255,0.28,0.364,0.684c0.101,0.403,0.103,0.751,0.008,0.776l-0.682,0.172c-0.098,0.025-0.26-0.28-0.364-0.685
				C108.104,31.251,108.101,30.903,108.196,30.878z M107.791,30.017c-0.104-0.404-0.104-0.749-0.012-0.773l0.681-0.172
				c0.097-0.027,0.259,0.28,0.364,0.684c0.1,0.403,0.104,0.749,0.007,0.772l-0.678,0.174
				C108.057,30.727,107.892,30.419,107.791,30.017z M108.016,19.969c0.08-0.218,0.638-0.214,1.234,0.015
				c0.595,0.226,1.013,0.59,0.928,0.808c-0.081,0.218-0.636,0.214-1.23-0.013C108.348,20.552,107.935,20.189,108.016,19.969z
				 M104.019,28.375l3.319-0.843c0.473-0.124,0.943,0.104,1.048,0.509c0.101,0.402-0.201,0.827-0.677,0.95l-3.319,0.844
				c-0.479,0.123-0.947-0.106-1.053-0.51C103.236,28.922,103.539,28.496,104.019,28.375z M104.548,37.052
				c-0.203,0.053-0.421-0.071-0.471-0.28l-1.479-5.809c-0.055-0.209,0.073-0.419,0.279-0.473c0.209-0.054,0.421,0.074,0.475,0.282
				l1.479,5.809C104.885,36.788,104.757,36.998,104.548,37.052z M108.033,36.163l-1.871,0.48c-0.496,0.125-1.006-0.177-1.13-0.674
				l-1.215-4.757c-0.124-0.497,0.178-1.005,0.673-1.133l1.873-0.478c0.504-0.125,1.009,0.175,1.137,0.675l1.207,4.755
				C108.84,35.53,108.537,36.038,108.033,36.163z M108.626,33.298c-0.104-0.403-0.104-0.751-0.012-0.776l0.682-0.173
				c0.096-0.024,0.258,0.286,0.363,0.687c0.101,0.403,0.104,0.749,0.007,0.774l-0.68,0.172
				C108.894,34.008,108.728,33.702,108.626,33.298z M110.124,35.598l-0.682,0.174c-0.098,0.023-0.259-0.283-0.359-0.684
				c-0.104-0.404-0.112-0.753-0.012-0.776l0.677-0.174c0.101-0.023,0.26,0.284,0.363,0.684
				C110.217,35.227,110.217,35.574,110.124,35.598z M109.988,33.291l-0.19-0.748c-0.042-0.167,0.059-0.334,0.226-0.377l2.383-0.607
				c0.162-0.042,0.333,0.059,0.375,0.224l0.19,0.748c0.042,0.167-0.055,0.334-0.225,0.378l-2.38,0.604
				C110.201,33.555,110.03,33.454,109.988,33.291z M113.202,34.695l-2.383,0.607c-0.162,0.042-0.332-0.058-0.374-0.225l-0.19-0.746
				c-0.042-0.167,0.055-0.334,0.225-0.379l2.376-0.606c0.17-0.04,0.339,0.058,0.382,0.225l0.189,0.747
				C113.47,34.483,113.365,34.652,113.202,34.695z"/>
			<path fill="#D14D27" d="M94.215,39.194c0.998-0.259,2.136-0.551,3.374-0.839c2.104-0.489,3.164-0.899,3.668-1.477l-1.199-4.708
				c-0.02-0.067-0.032-0.139-0.032-0.205c-0.912,0.084-2.39,0.52-4.396,1.137c-7.914,2.447-13.869,0.799-18.654-0.524
				c-1.297-0.357-2.484-0.683-3.605-0.907c-2.398,1.234-4.147,2.103-4.147,2.103s5.327,2.391,10.108,4.956
				C86.028,41.316,89.031,40.538,94.215,39.194z"/>
		</g>
		<path fill="#D14D27" d="M138.458,27.155c-0.374-0.639-0.75-0.592-0.75-0.592v3.697l-1.11-0.008
			c-0.004-2.025-0.112-3.534-0.414-3.534c-0.866,0-3.599-0.913-4.139,1.82c0.773,0.016,1.36,0.5,1.721,1.194
			c0.112,0.208-0.205,0.394-0.313,0.184c-0.316-0.605-0.789-1.008-1.459-1.013c-0.01,0.07-0.019,0.142-0.023,0.217
			c-0.025,0.41-0.08,0.762-0.153,1.07c0.63,0.181,1.16,0.572,1.517,1.131c0.123,0.204-0.189,0.384-0.313,0.188
			c-0.311-0.484-0.767-0.801-1.3-0.958c-0.109,0.349-0.244,0.622-0.392,0.838c0.519,0.197,0.963,0.537,1.273,1.029
			c0.123,0.203-0.194,0.384-0.317,0.186c-0.291-0.462-0.712-0.752-1.208-0.911c-0.297,0.298-0.617,0.416-0.865,0.458
			c0.267,0.35,0.486,0.738,0.684,1.121c0.104,0.21-0.208,0.394-0.312,0.183c-0.232-0.449-0.504-0.911-0.841-1.297h-3.133v7.509
			l9.575,1.063c0,0,0.062-0.876,0.132-2.193l1.393,0.012v2.193c0,0,0.264-0.031,0.75-0.565
			C138.946,39.645,138.846,27.795,138.458,27.155z M137.708,37.331l-1.327-0.012c0.09-1.758,0.179-3.931,0.209-5.852l1.118,0.01
			V37.331z"/>
	</g>
	<g id="Navy_Blue">
		<g>
			<path fill="none" d="M154.379,107.79c3.16,0,3.16-2.755,3.16-2.755s0-1.337,0-4.173c0-2.84-3.16-2.917-3.16-2.917
				c-2.751,0-2.844,2.286-2.844,2.286l0.012,4.725C151.547,104.955,151.21,107.79,154.379,107.79z"/>
			<path fill="none" d="M154.507,114.646c-2.546,0-3.045,1.888-3.045,3.071c0,1.18,0,10.241,0,10.241s0.666,2.833,3.578,2.833
				c0,0.522,0,2.189,0,4.58h1.505v-17.893C156.545,117.478,157.053,114.646,154.507,114.646z"/>
			<path fill="none" d="M64.944,98.048c-3.294,0-3.267,3.575-3.267,3.575v26.049c0,0,0,3.149,3.443,3.149
				c3.447,0,3.447-3.149,3.447-3.149v-26.049C68.568,101.623,68.235,98.048,64.944,98.048z"/>
			<path fill="#232459" d="M114.124,135.286v-16.435h-5.443c0,0,0,3.78,0,6.521c0,2.751,0,5.448-2.999,5.448
				c-3.001,0-2.445-5.448-2.445-5.448s0.108-21.224,0.108-24.376c0-3.15,2.337-2.948,2.337-2.948V86.36H92.903
				c0,0,0.111,8.855,0.111,11.688c3.003,0,2.445,2.317,2.445,2.317s0,24.262,0,27.411c0,3.153-2.445,3.401-2.445,3.401
				s0,1.605,0,4.182h-0.008c0,0,0,53.626,0,55.622c0,3.467-2.088,3.675-2.088,3.675s1.432,0.67,4.403,1.262
				c3.326,0.662,8.952,1.288,14.802,1.288c2.204-0.312,4.008,0.016,4.008-3.879c0-3.896,0-58.04,0-58.04H114.124z"/>
			<path fill="#232459" d="M139.295,105.267V86.36h-24.668h-0.503c0,0,0,8.747,0,11.506c3.753,0,4.588,3.547,4.588,3.547
				s0,23.551,0,26.467c0,2.91-2.507,3.296-2.507,3.296s0,1.589,0,4.193h0.043v58.799c0,0,0.042,2.248-1.289,3.036
				c7.421-0.448,13.112-1.535,20.025-3.555c1.765-0.514,4.311-1.265,4.311-6.542c0-1.37,0-48,0-51.737v-0.204v-16.504h-5.75v7.563
				c0,0,0.085,4.565-3.587,4.565c-3.663,0-3.415-4.329-3.415-4.329v-10.477h6.831l-0.085-8.35h-6.746v-5.908
				c0,0,0.17-3.861,3.415-3.861c3.255,0,3.501,3.547,3.501,3.547v3.854H139.295z"/>
			<path fill="#232459" d="M69.571,86.395c0,0-3.893,0-8.558,0c-8.11,0-7.22,7.347-7.22,7.347s-0.031,28.15-0.031,30.459
				c0.08,4.063-0.104,7.789,0.653,11.169c0,3.049,0,32.483,0,35.504c0,3.154-3.373,2.21-3.373,2.21l3.373,3.172
				c5.401,4.638,11.224,8.608,17.848,11.765c1.261,0.599,3.861,0.971,3.861-2.179c0-3.041,0-46.835,0-50.473
				c0-0.068,0-0.138,0-0.204c0-16.292,0-36.317,0-41.424C76.125,85.448,69.571,86.395,69.571,86.395z M61.678,101.623
				c0,0-0.027-3.575,3.267-3.575c3.291,0,3.624,3.575,3.624,3.575v26.049c0,0,0,3.149-3.447,3.149c-3.443,0-3.443-3.149-3.443-3.149
				V101.623z"/>
			<path fill="#232459" d="M190.378,121.262c0-2.836-1.417-3.857-1.417-3.857s-7.833-6.62-9.667-8.156
				c-1.83-1.533-1.754-2.798-1.754-2.798v-5.431c0,0,0-3.076,2.585-3.076s2.507,2.917,2.507,2.917v4.332h7.746c0,0,0-8.507,0-13.393
				c0-4.882-5.834-5.44-5.834-5.44h-8.082c-6.588,0-6.588,5.676-6.588,5.676s0,10.871,0,15.127c0,4.25,1.087,4.959,1.087,4.959
				s7.335,6.144,9.18,7.723c1.857,1.574,2.569,3.543,2.569,3.543v3.307c0,0,0,4.175-3.583,4.175c-3.582,0-3.497-3.385-3.497-3.385
				v-8.743h-5.756c0,0,0,7.401,0,16.423c0,0.066,0,0.13,0,0.204v38.46c4.73-5.165,20.317-20.288,20.317-45.757l0,0
				C190.524,124.519,190.378,122.078,190.378,121.262z"/>
			<path fill="#232459" d="M91.123,98.048V86.36H78.349v11.688c2.221,0,2.333,2.104,2.333,2.104s0,25.418,0,28.146
				c0,2.731-2.333,2.522-2.333,2.522s0,1.722,0,4.345h-0.004c0,0,0,48.228,0,51.172c0,3.605-2.979,3.605-2.979,3.605
				s2.794,1.567,10.942,3.262c4.001,0.835,4.815-1.166,4.815-3.367c0-0.545,0,8.233,0-54.469c0-0.074,0-0.138,0-0.204
				c0-2.395,0-4.004,0-4.345c-2.553,0-2.665-2.31-2.665-2.31s0-25.104,0-27.832C88.458,97.947,91.123,98.048,91.123,98.048z"/>
			<path fill="none" d="M30.604,100.253v0.287C30.604,100.54,30.619,100.427,30.604,100.253z"/>
			<path fill="#232459" d="M51.891,120.378c0-3.292-0.396-5.737-1.184-7.331c-0.786-1.598-2.283-2.735-4.488-3.424
				c1.98-0.623,3.304-1.521,3.977-2.685c0.674-1.165,1.015-3.226,1.015-6.182c0-4.373-0.48-7.541-1.432-9.51
				c-0.951-1.969-2.206-3.272-3.753-3.919c-1.556-0.646-2.167-0.967-5.177-0.967h-7.436l0,0h-2.141h-2.757v11.688
				c0,0,1.099-0.042,1.922,0.666c0.649,0.564,0.805,1.184,0.835,1.539c0.016,0.174,0,0.287,0,0.287l0.043-0.054v28.019
				c-0.047,0.364-0.216,0.932-0.823,1.455c-0.824,0.708-1.923,0.665-1.923,0.665v3.973c0,10.856,8.465,23.631,20.156,35.574
				c0.975,0.995,2.982,1.231,2.982-1.284v-39.691c0.12-1.191,0.183-2.565,0.183-4.127V120.378z M37.73,100.842
				c0-1.606,1.343-2.906,2.994-2.906c1.656,0,2.995,1.3,2.995,2.906v4.213c0,1.605-1.339,2.909-2.995,2.909
				c-1.651,0-2.994-1.304-2.994-2.909V100.842z M37.73,118.274c0-1.961,1.343-3.551,2.994-3.551c1.656,0,2.995,1.59,2.995,3.551
				v9.026c0,1.965-1.015,3.555-2.995,3.555c-1.978,0-2.994-1.005-2.994-3.555V118.274z"/>
			<path fill="#232459" d="M165.207,128.744c0,0,0-11.502,0-13.943c0-2.441-1.664-3.231-2.662-3.699
				c2.168,0,2.662-2.917,2.662-2.917s0-11.498,0-16.384c0-4.882-5.748-5.44-5.748-5.44h-18.246c0,0,0,9.065,0,11.506
				c2.499,0,2.499,2.519,2.499,2.519s0,25.132,0,27.809s-2.499,2.755-2.499,2.755s0,1.691,0,4.421h0.023
				c0.015,5.44,0.201,52.287,0.186,53.785c-0.031,2.495-1.168,3.229-1.168,3.229c4.333-1.594,8.479-3.807,12.392-6.112
				c2.666-1.688,2.395-5.149,2.395-5.149V135.37c0-0.074,0-0.138,0-0.204c0-2.279,0-3.865,0-4.376c-2.912,0-3.578-2.833-3.578-2.833
				s0-9.061,0-10.241c0-1.184,0.499-3.071,3.045-3.071s2.038,2.832,2.038,2.832v17.893h0.039v48.716
				c3.015-1.938,5.281-3.126,8.095-5.215c2.409-1.795,3.12-3.135,3.12-6.914c0-2.317,0-33.473,0-36.587c0-0.074,0-0.138,0-0.204
				c0-2.26,0-3.846,0-4.295C165.796,130.871,165.207,128.744,165.207,128.744z M154.379,107.79c-3.169,0-2.832-2.835-2.832-2.835
				l-0.012-4.725c0,0,0.093-2.286,2.844-2.286c0,0,3.16,0.077,3.16,2.917c0,2.836,0,4.173,0,4.173S157.539,107.79,154.379,107.79z"
				/>
		</g>
		<g>
			<path fill="#232459" d="M109.717,208.909c-26.28,0-50.986-10.237-69.572-28.818c-18.582-18.582-28.815-43.296-28.815-69.573
				c0-36.363,21.859-68.285,50.349-86.928c7.545-4.936,14.532-6.74,14.532-6.74l3.621,6.035
				c-2.229,1.016-15.809,9.273-17.634,10.392c4.614,3.289,14.771,8.482,21.045,13.158c6.283,4.676,12.768,8.042,21.906,8.042
				c7.49,0,12.108-3.284,14.763-7.464l1.014-2.498c0,0,18.06,0.542,21.14,0.915c0-0.807,0.468-14.099-0.166-18.868
				c0,0-1.648-1.511-6.67-2.821l2.867-7.462c19.827,5.961,37.65,18.393,50.193,35.003c12.969,17.177,19.819,37.655,19.819,59.235
				c0,26.277-10.233,50.991-28.814,69.573C160.704,198.671,135.997,208.909,109.717,208.909z M55.434,37.846
				c-14.786,9.948-36.091,43.744-36.091,72.671c0,24.138,9.396,46.832,26.47,63.905c17.068,17.07,39.767,26.472,63.904,26.472
				c24.142,0,46.836-9.402,63.908-26.472c17.069-17.073,26.472-39.767,26.472-63.905c0-19.819-6.294-38.633-18.203-54.404
				c-8.554-11.324-21.003-21.071-33.917-28.138c0.518,4.683,0.509,25.133,0.509,25.133s-16.96-0.734-22.709-0.824
				c-1.799,2.795-4.999,4.742-8.523,6.465c-3.555,1.738-7.887,2.825-12.213,3.059c-0.712,0.041-1.439,0.062-2.159,0.062
				c-13.224,0-18.84-5.784-24.11-9.66C73.501,48.328,55.434,37.846,55.434,37.846z"/>
		</g>
		<path fill="#232459" d="M112.127,49.296l-3.389-14.084c0,0-0.043,0.488-0.24,0.701c-0.197,0.21-1.094,0.412-1.094,0.412
			c1.621,7.062,2.541,11.317,3.018,13.574C110.994,49.703,111.562,49.504,112.127,49.296z"/>
		<path fill="#232459" d="M110.571,50.608c0.198,0.949,0.279,1.365,0.279,1.365l1.788-0.54l-0.341-1.432
			C111.726,50.214,111.152,50.413,110.571,50.608z"/>
		<path fill="#232459" d="M105.693,10.334c-0.382-0.898-0.653-1.868-0.762-2.843c-2.058,0.695-3.188,2.102-3.164,2.758
			c0.023,0.652,1.488,8.846,3.54,17.796l1.968-0.498l-3.381-14.982C103.895,12.565,103.593,10.977,105.693,10.334z"/>
		<path fill="#232459" d="M105.747,7.226c-0.153,0.046-0.305,0.097-0.456,0.146c0.102,0.982,0.371,1.972,0.771,2.877
			c0.132-0.031,0.274-0.063,0.418-0.098C106.007,9.259,105.778,8.229,105.747,7.226z"/>
		<path fill="#232459" d="M106.766,6.926c-0.217,0.062-0.434,0.124-0.65,0.188c0.016,1.007,0.24,2.06,0.735,2.952
			c0.182-0.042,0.363-0.085,0.549-0.129C106.959,8.982,106.611,7.973,106.766,6.926z"/>
		<path fill="#232459" d="M108.405,6.5c-0.186,0.045-0.366,0.088-0.552,0.135c0.012,1.06,0.416,2.063,0.932,2.988
			c0.155-0.039,0.313-0.071,0.472-0.106C108.815,8.567,108.599,7.516,108.405,6.5z"/>
		<path fill="#232459" d="M109.304,6.292c-0.178,0.04-0.356,0.079-0.538,0.122c0.189,1.02,0.414,2.073,0.862,3.018
			c0.217-0.046,0.43-0.096,0.635-0.14C109.729,8.397,109.559,7.287,109.304,6.292z"/>
		<path fill="#232459" d="M110.479,6.052c-0.263,0.048-0.534,0.102-0.813,0.163c0.248,0.994,0.411,2.127,0.976,2.996
			c0.247-0.054,0.477-0.104,0.696-0.147C110.773,8.184,110.649,7.069,110.479,6.052z"/>
		<path fill="#232459" d="M113.021,5.875c-0.174-0.146-1.019-0.085-2.183,0.112c0.167,1.006,0.286,2.159,0.895,2.996
			c0.634-0.126,1.091-0.204,1.246-0.2C113.768,8.803,113.706,6.448,113.021,5.875z"/>
		<path fill="#232459" d="M107.484,6.732c-0.108,0.027-0.216,0.057-0.325,0.084c-0.216,1.06,0.159,2.08,0.612,3.036
			c0.209-0.048,0.425-0.098,0.634-0.147C107.903,8.784,107.512,7.783,107.484,6.732z"/>
	</g>
</g>
</svg>
