<?xml version="1.0" encoding="utf-8"?>
<!-- Generator: Adobe Illustrator 16.0.0, SVG Export Plug-In . SVG Version: 6.00 Build 0)  -->
<!DOCTYPE svg PUBLIC "-//W3C//DTD SVG 1.1//EN" "http://www.w3.org/Graphics/SVG/1.1/DTD/svg11.dtd">
<svg version="1.1" id="Layer_1" xmlns="http://www.w3.org/2000/svg" xmlns:xlink="http://www.w3.org/1999/xlink" x="0px" y="0px"
	 width="271.363px" height="246.44px" viewBox="0 0 271.363 246.44" enable-background="new 0 0 271.363 246.44"
	 xml:space="preserve">
<g>
	<g opacity="0.5">
		
			<image overflow="visible" opacity="0.15" width="1189" height="743" xlink:href="60D42258004AA4C8.png"  transform="matrix(0.24 0 0 0.24 -6.5791 -10.7822)">
		</image>
		<g>
			<g>
				<polygon fill="#58595B" points="6.837,67.151 23.689,91.32 23.689,71.834 6.359,45.924 				"/>
				<polygon fill="#A6A8AB" points="25.257,92.656 68.857,75.194 68.857,55.387 25.257,72.129 				"/>
				<polygon fill="#A6A8AB" points="123.869,14.308 123.869,0 6.713,43.642 14.522,55.322 				"/>
				<polygon fill="#29B473" points="24.346,71.68 24.509,71.68 24.473,71.592 				"/>
				<polygon fill="#58595B" points="102.854,58.817 114.72,73.51 114.72,59.379 102.854,45.061 				"/>
				<polygon fill="#58595B" points="254.096,38.585 233.605,14.396 233.605,29.556 243.982,42.637 				"/>
				<polygon fill="#A6A8AB" points="232.038,13.415 116.287,59.626 116.287,74.578 232.038,29.335 				"/>
				<polygon fill="#58595B" points="70.425,75.445 123.18,140.266 123.869,124.18 70.425,56.501 				"/>
				<polygon fill="#58595B" points="145.927,25.199 125.436,1.016 125.436,14.589 136.819,28.758 				"/>
				<polygon fill="#58595B" points="211.021,75.436 254.897,128.004 265.315,123.972 211.021,58.442 				"/>
				<polygon fill="#A6A8AB" points="124.746,141.281 157.658,128.077 157.658,112.064 125.436,124.445 				"/>
				<polygon fill="#A6A8AB" points="233.605,152.429 248.777,146.225 248.777,139.349 253.586,137.609 253.586,144.391 
					265.83,139.473 265.83,125.451 233.605,137.831 				"/>
				<polygon fill="#58595B" points="178.59,87.876 232.038,151.434 232.038,137.575 178.59,72.991 				"/>
				<polygon fill="#58595B" points="138.689,101.582 148.438,113.932 157.147,110.586 138.689,88.313 				"/>
				<polygon fill="#A6A8AB" points="149.197,98.53 177.023,87.63 177.023,71.951 139.206,86.477 				"/>
			</g>
		</g>
	</g>
	<g>
		<path fill="#231F20" d="M18.239,176.863v5.895h-1.445c-0.037-0.89-0.148-1.669-0.334-2.336c-0.186-0.556-0.491-1.084-0.917-1.585
			c-0.427-0.5-1.011-0.751-1.752-0.751h-2.28v35.534c0,0.52,0.074,0.899,0.223,1.14c0.147,0.242,0.314,0.381,0.501,0.417
			c0.185,0.111,0.407,0.111,0.667,0v1.446H6.173v-1.446c0.296,0.111,0.537,0.111,0.723,0c0.185-0.036,0.361-0.175,0.528-0.417
			c0.167-0.24,0.25-0.62,0.25-1.14v-35.534H5.339c-0.779,0-1.372,0.251-1.78,0.751c-0.408,0.501-0.687,1.029-0.834,1.585
			c-0.223,0.667-0.353,1.446-0.389,2.336H0.834v-5.895H18.239z"/>
		<path fill="#231F20" d="M36.701,215.511c0.259,0,0.463-0.036,0.611-0.111c0.148-0.073,0.297-0.147,0.445-0.223v1.224
			c-0.223,0.187-0.501,0.361-0.834,0.528c-0.334,0.167-0.778,0.25-1.335,0.25c-0.482,0-0.964-0.093-1.445-0.277
			c-0.482-0.187-0.928-0.481-1.335-0.89c-0.408-0.408-0.751-0.937-1.028-1.585c-0.278-0.648-0.437-1.455-0.473-2.419v-9.12
			c0-0.815-0.111-1.474-0.334-1.974c-0.223-0.501-0.51-0.881-0.862-1.141c-0.353-0.259-0.732-0.436-1.14-0.528
			c-0.408-0.092-0.778-0.157-1.112-0.194h-2.28v14.569c0,0.52,0.074,0.899,0.223,1.14c0.147,0.242,0.297,0.381,0.445,0.417
			c0.222,0.111,0.463,0.111,0.723,0v1.446h-6.673v-1.446c0.259,0.111,0.481,0.111,0.667,0c0.186-0.036,0.361-0.175,0.528-0.417
			c0.167-0.24,0.25-0.62,0.25-1.14v-33.81c0-0.52-0.083-0.908-0.25-1.168c-0.167-0.259-0.343-0.426-0.528-0.501
			c-0.186-0.036-0.408-0.036-0.667,0v-1.334h7.952c1.371,0,2.585,0.231,3.642,0.694c1.057,0.465,1.938,1.066,2.642,1.808
			c0.704,0.742,1.232,1.595,1.585,2.559c0.352,0.964,0.528,1.965,0.528,3.002v6.062c0,1.446-0.371,2.855-1.112,4.227
			c-0.742,1.372-1.891,2.391-3.447,3.059c2.113,0.854,3.169,2.484,3.169,4.894v8.897c0,0.964,0.064,1.789,0.195,2.475
			C35.579,215.169,35.996,215.511,36.701,215.511z M25.579,178.197v19.297h3.003c0.334,0,0.731-0.103,1.196-0.307
			c0.463-0.203,0.907-0.519,1.334-0.945c0.426-0.426,0.797-0.981,1.112-1.668c0.314-0.686,0.473-1.51,0.473-2.475v-8.452
			c0-0.927-0.158-1.732-0.473-2.419c-0.315-0.686-0.687-1.252-1.112-1.696c-0.427-0.445-0.871-0.778-1.334-1.001
			c-0.465-0.223-0.862-0.334-1.196-0.334H25.579z"/>
		<path fill="#231F20" d="M56.108,210.784v5.839H40.593v-1.446c0.297,0.111,0.52,0.111,0.668,0c0.185-0.036,0.361-0.175,0.528-0.417
			c0.167-0.24,0.25-0.62,0.25-1.14v-33.754c0-0.557-0.083-0.954-0.25-1.196c-0.167-0.24-0.344-0.397-0.528-0.473
			c-0.148-0.073-0.371-0.073-0.668,0v-1.334h15.516v5.839h-1.446c-0.037-0.853-0.148-1.613-0.334-2.28
			c-0.186-0.556-0.491-1.084-0.917-1.585c-0.427-0.5-1.011-0.751-1.752-0.751h-5.783v18.018h3.893c0.481,0,0.853-0.13,1.112-0.39
			c0.259-0.259,0.445-0.556,0.556-0.89c0.148-0.407,0.223-0.87,0.223-1.39h1.279v6.84h-1.279c0-0.519-0.074-0.964-0.223-1.335
			c-0.11-0.37-0.297-0.695-0.556-0.973c-0.26-0.278-0.631-0.418-1.112-0.418h-3.893v17.739h5.783c0.741,0,1.325-0.222,1.752-0.667
			c0.426-0.445,0.731-0.964,0.917-1.557c0.186-0.668,0.297-1.427,0.334-2.28H56.108z"/>
		<path fill="#231F20" d="M73.067,176.919h5.395v1.39c-0.334-0.073-0.667-0.073-1.001,0c-0.297,0.075-0.575,0.232-0.834,0.473
			c-0.26,0.242-0.427,0.621-0.501,1.14c0,0.038-0.103,0.594-0.306,1.669c-0.204,1.075-0.454,2.475-0.751,4.198
			s-0.648,3.689-1.057,5.895c-0.408,2.206-0.815,4.44-1.223,6.701c-0.965,5.375-2.077,11.455-3.337,18.239h-2.836l-2.892-18.239
			c-0.371-2.261-0.732-4.495-1.084-6.701c-0.354-2.205-0.668-4.171-0.945-5.895c-0.278-1.724-0.501-3.123-0.668-4.198
			s-0.25-1.631-0.25-1.669c-0.111-0.519-0.288-0.897-0.528-1.14c-0.241-0.24-0.51-0.397-0.807-0.473
			c-0.333-0.073-0.667-0.073-1.001,0v-1.39h8.23v1.39c-0.334-0.073-0.631-0.073-0.89,0c-0.223,0.075-0.408,0.232-0.557,0.473
			c-0.148,0.242-0.166,0.621-0.055,1.14c0,0.038,0.063,0.528,0.194,1.474c0.129,0.946,0.314,2.188,0.556,3.727s0.51,3.3,0.807,5.282
			c0.296,1.984,0.611,4.014,0.945,6.09s0.657,4.134,0.973,6.172c0.315,2.039,0.621,3.875,0.918,5.506
			c0.334-1.631,0.686-3.467,1.057-5.506c0.37-2.038,0.741-4.096,1.112-6.172c0.37-2.076,0.723-4.105,1.057-6.09
			c0.333-1.982,0.63-3.744,0.89-5.282c0.259-1.538,0.463-2.78,0.611-3.727c0.147-0.945,0.223-1.436,0.223-1.474
			c0.111-0.519,0.092-0.897-0.056-1.14c-0.148-0.24-0.315-0.397-0.5-0.473c-0.261-0.073-0.557-0.073-0.891,0V176.919z"/>
		<path fill="#231F20" d="M96.091,196.826c0,2.41,0,4.505,0,6.284s-0.047,3.327-0.14,4.644s-0.26,2.428-0.5,3.336
			c-0.241,0.909-0.604,1.715-1.084,2.419c-0.742,1.112-1.688,1.956-2.837,2.53c-1.149,0.575-2.317,0.862-3.503,0.862
			c-1.149,0-2.308-0.287-3.476-0.862c-1.168-0.574-2.123-1.418-2.864-2.53c-0.481-0.704-0.843-1.51-1.084-2.419
			c-0.241-0.908-0.408-2.02-0.5-3.336c-0.094-1.316-0.14-2.864-0.14-4.644s0-3.874,0-6.284c0-3.225,0.019-5.903,0.056-8.035
			s0.203-3.901,0.501-5.311c0.147-1.187,0.519-2.233,1.112-3.142c0.592-0.908,1.315-1.641,2.168-2.197
			c1.371-0.853,2.78-1.278,4.227-1.278c0.704,0,1.427,0.111,2.169,0.333c0.741,0.223,1.427,0.538,2.058,0.945
			c0.853,0.557,1.585,1.289,2.196,2.197s0.973,1.955,1.084,3.142c0.259,1.409,0.417,3.179,0.473,5.311
			S96.091,193.602,96.091,196.826z M92.254,209.228c0-1.558,0-3.429,0-5.617c0-2.187,0.018-4.448,0.056-6.784
			c-0.038-2.298-0.056-4.532-0.056-6.7c0-2.169,0-4.032,0-5.589c0-2.336-0.408-3.967-1.224-4.894
			c-0.816-0.927-1.817-1.391-3.003-1.391c-1.187,0-2.188,0.464-3.003,1.391s-1.224,2.558-1.224,4.894v12.289v12.401
			c0,2.335,0.361,3.995,1.085,4.977c0.723,0.982,1.788,1.474,3.197,1.474c1.408,0,2.455-0.491,3.142-1.474
			C91.91,213.223,92.254,211.562,92.254,209.228z"/>
		<path fill="#231F20" d="M114.608,215.511c0.259,0,0.463-0.036,0.611-0.111c0.148-0.073,0.297-0.147,0.445-0.223v1.224
			c-0.223,0.187-0.501,0.361-0.834,0.528c-0.334,0.167-0.778,0.25-1.335,0.25c-0.482,0-0.964-0.093-1.445-0.277
			c-0.482-0.187-0.928-0.481-1.335-0.89c-0.408-0.408-0.751-0.937-1.028-1.585c-0.278-0.648-0.437-1.455-0.473-2.419v-9.12
			c0-0.815-0.111-1.474-0.334-1.974c-0.223-0.501-0.51-0.881-0.862-1.141c-0.353-0.259-0.732-0.436-1.14-0.528
			c-0.408-0.092-0.778-0.157-1.112-0.194h-2.28v14.569c0,0.52,0.074,0.899,0.223,1.14c0.147,0.242,0.297,0.381,0.445,0.417
			c0.222,0.111,0.463,0.111,0.723,0v1.446h-6.673v-1.446c0.259,0.111,0.481,0.111,0.667,0c0.186-0.036,0.361-0.175,0.528-0.417
			c0.167-0.24,0.25-0.62,0.25-1.14v-33.81c0-0.52-0.083-0.908-0.25-1.168c-0.167-0.259-0.343-0.426-0.528-0.501
			c-0.186-0.036-0.408-0.036-0.667,0v-1.334h7.952c1.371,0,2.585,0.231,3.642,0.694c1.057,0.465,1.938,1.066,2.642,1.808
			c0.704,0.742,1.232,1.595,1.585,2.559c0.352,0.964,0.528,1.965,0.528,3.002v6.062c0,1.446-0.371,2.855-1.112,4.227
			c-0.742,1.372-1.891,2.391-3.447,3.059c2.113,0.854,3.169,2.484,3.169,4.894v8.897c0,0.964,0.064,1.789,0.195,2.475
			C113.486,215.169,113.903,215.511,114.608,215.511z M103.486,178.197v19.297h3.003c0.334,0,0.731-0.103,1.196-0.307
			c0.463-0.203,0.907-0.519,1.334-0.945c0.426-0.426,0.797-0.981,1.112-1.668c0.314-0.686,0.473-1.51,0.473-2.475v-8.452
			c0-0.927-0.158-1.732-0.473-2.419c-0.315-0.686-0.687-1.252-1.112-1.696c-0.427-0.445-0.871-0.778-1.334-1.001
			c-0.465-0.223-0.862-0.334-1.196-0.334H103.486z"/>
		<path fill="#231F20" d="M145.358,176.863v5.895h-1.445c-0.037-0.89-0.148-1.669-0.334-2.336c-0.186-0.556-0.491-1.084-0.917-1.585
			c-0.427-0.5-1.011-0.751-1.752-0.751h-2.28v35.534c0,0.52,0.074,0.899,0.223,1.14c0.147,0.242,0.314,0.381,0.501,0.417
			c0.185,0.111,0.407,0.111,0.667,0v1.446h-6.729v-1.446c0.296,0.111,0.537,0.111,0.723,0c0.185-0.036,0.361-0.175,0.528-0.417
			c0.167-0.24,0.25-0.62,0.25-1.14v-35.534h-2.335c-0.779,0-1.372,0.251-1.78,0.751c-0.408,0.501-0.687,1.029-0.834,1.585
			c-0.223,0.667-0.353,1.446-0.389,2.336h-1.502v-5.895H145.358z"/>
		<path fill="#231F20" d="M166.879,215.177v1.446h-6.729v-1.446c0.296,0.111,0.537,0.111,0.723,0
			c0.147-0.036,0.306-0.175,0.473-0.417c0.167-0.24,0.25-0.62,0.25-1.14v-16.237h-8.508v16.237c0,0.52,0.074,0.899,0.223,1.14
			c0.147,0.242,0.296,0.381,0.444,0.417c0.223,0.111,0.464,0.111,0.724,0v1.446h-6.674v-1.446c0.297,0.111,0.52,0.111,0.668,0
			c0.185-0.036,0.361-0.175,0.528-0.417c0.166-0.24,0.25-0.62,0.25-1.14v-33.754c0-0.557-0.084-0.954-0.25-1.196
			c-0.167-0.24-0.344-0.397-0.528-0.473c-0.148-0.073-0.371-0.073-0.668,0v-1.334h6.674v1.334c-0.26-0.073-0.501-0.073-0.724,0
			c-0.148,0.075-0.297,0.232-0.444,0.473c-0.148,0.242-0.223,0.64-0.223,1.196v16.182h8.508v-16.182c0-0.557-0.083-0.954-0.25-1.196
			c-0.167-0.24-0.325-0.397-0.473-0.473c-0.186-0.073-0.427-0.073-0.723,0v-1.334h6.729v1.334c-0.297-0.073-0.557-0.073-0.778,0
			c-0.148,0.075-0.298,0.232-0.445,0.473c-0.148,0.242-0.223,0.64-0.223,1.196v33.754c0,0.52,0.074,0.899,0.223,1.14
			c0.147,0.242,0.297,0.381,0.445,0.417C166.322,215.288,166.582,215.288,166.879,215.177z"/>
		<path fill="#231F20" d="M175.165,213.62c0,0.52,0.083,0.899,0.25,1.14c0.167,0.242,0.324,0.381,0.473,0.417
			c0.185,0.111,0.426,0.111,0.723,0v1.446h-6.729v-1.446c0.296,0.111,0.556,0.111,0.778,0c0.111-0.036,0.25-0.175,0.417-0.417
			c0.167-0.24,0.25-0.62,0.25-1.14v-33.754c0-0.557-0.083-0.954-0.25-1.196c-0.167-0.24-0.306-0.397-0.417-0.473
			c-0.223-0.073-0.482-0.073-0.778,0v-1.334h6.729v1.334c-0.297-0.073-0.538-0.073-0.723,0c-0.148,0.075-0.306,0.232-0.473,0.473
			c-0.167,0.242-0.25,0.64-0.25,1.196V213.62z"/>
		<path fill="#231F20" d="M194.684,210.784v5.839h-15.516v-1.446c0.297,0.111,0.52,0.111,0.668,0
			c0.185-0.036,0.361-0.175,0.528-0.417c0.167-0.24,0.25-0.62,0.25-1.14v-33.754c0-0.557-0.083-0.954-0.25-1.196
			c-0.167-0.24-0.344-0.397-0.528-0.473c-0.148-0.073-0.371-0.073-0.668,0v-1.334h15.516v5.839h-1.446
			c-0.037-0.853-0.148-1.613-0.334-2.28c-0.186-0.556-0.491-1.084-0.917-1.585c-0.427-0.5-1.011-0.751-1.752-0.751h-5.783v18.018
			h3.893c0.481,0,0.853-0.13,1.112-0.39c0.259-0.259,0.445-0.556,0.556-0.89c0.148-0.407,0.223-0.87,0.223-1.39h1.279v6.84h-1.279
			c0-0.519-0.074-0.964-0.223-1.335c-0.11-0.37-0.297-0.695-0.556-0.973c-0.26-0.278-0.631-0.418-1.112-0.418h-3.893v17.739h5.783
			c0.741,0,1.325-0.222,1.752-0.667c0.426-0.445,0.731-0.964,0.917-1.557c0.186-0.668,0.297-1.427,0.334-2.28H194.684z"/>
		<path fill="#231F20" d="M205.915,193.435c2.483,3.188,4.291,6.145,5.422,8.869s1.455,5.403,0.974,8.035
			c-0.223,0.854-0.511,1.679-0.862,2.475c-0.353,0.798-0.807,1.512-1.362,2.142c-0.556,0.631-1.242,1.14-2.058,1.529
			c-0.815,0.389-1.799,0.602-2.947,0.639c-0.742,0.037-1.418-0.103-2.029-0.417c-0.612-0.314-1.159-0.592-1.641-0.834
			c-0.482-0.24-0.862-0.342-1.14-0.306c-0.278,0.037-0.437,0.427-0.473,1.168h-1.446v-9.898h1.501
			c-0.11,0.815-0.139,1.585-0.083,2.308s0.157,1.418,0.306,2.086c0.148,0.556,0.334,1.103,0.557,1.64
			c0.222,0.538,0.519,1.029,0.89,1.474c0.37,0.445,0.834,0.816,1.39,1.112c0.557,0.297,1.242,0.464,2.058,0.501
			c0.557,0.037,1.168-0.111,1.835-0.445c0.668-0.334,1.205-0.759,1.613-1.279c0.926-1.26,1.315-2.613,1.168-4.059
			c-0.149-1.446-0.575-2.854-1.279-4.227c-0.705-1.371-1.539-2.678-2.503-3.921c-0.964-1.241-1.779-2.308-2.446-3.197
			c-1.298-1.557-2.327-3.095-3.086-4.615c-0.761-1.52-1.326-2.983-1.696-4.394c-0.371-1.408-0.557-2.771-0.557-4.087
			c0-1.315,0.13-2.566,0.39-3.754c0.481-1.779,1.251-3.16,2.308-4.143c1.057-0.981,2.642-1.474,4.755-1.474
			c0.703,0,1.343,0.177,1.918,0.528c0.574,0.353,1.075,0.659,1.502,0.918c0.426,0.26,0.75,0.371,0.973,0.333
			c0.223-0.036,0.37-0.444,0.445-1.223h1.557v9.731h-1.557c0.073-1.705-0.056-3.17-0.39-4.394c-0.26-1.112-0.723-2.131-1.39-3.059
			c-0.668-0.926-1.669-1.39-3.003-1.39c-0.742,0-1.438,0.148-2.086,0.444c-0.648,0.297-1.177,0.687-1.585,1.168
			c-0.89,1.261-1.307,2.53-1.251,3.81c0.056,1.278,0.37,2.53,0.945,3.753c0.574,1.224,1.288,2.383,2.142,3.476
			C204.543,191.553,205.284,192.545,205.915,193.435z"/>
		<path fill="#231F20" d="M222.875,193.435c2.483,3.188,4.291,6.145,5.422,8.869s1.455,5.403,0.974,8.035
			c-0.223,0.854-0.511,1.679-0.862,2.475c-0.353,0.798-0.807,1.512-1.362,2.142c-0.556,0.631-1.242,1.14-2.058,1.529
			c-0.815,0.389-1.799,0.602-2.947,0.639c-0.742,0.037-1.418-0.103-2.029-0.417c-0.612-0.314-1.159-0.592-1.641-0.834
			c-0.482-0.24-0.862-0.342-1.14-0.306c-0.278,0.037-0.437,0.427-0.473,1.168h-1.446v-9.898h1.501
			c-0.11,0.815-0.139,1.585-0.083,2.308s0.157,1.418,0.306,2.086c0.148,0.556,0.334,1.103,0.557,1.64
			c0.222,0.538,0.519,1.029,0.89,1.474c0.37,0.445,0.834,0.816,1.39,1.112c0.557,0.297,1.242,0.464,2.058,0.501
			c0.557,0.037,1.168-0.111,1.835-0.445c0.668-0.334,1.205-0.759,1.613-1.279c0.926-1.26,1.315-2.613,1.168-4.059
			c-0.149-1.446-0.575-2.854-1.279-4.227c-0.705-1.371-1.539-2.678-2.503-3.921c-0.964-1.241-1.779-2.308-2.446-3.197
			c-1.298-1.557-2.327-3.095-3.086-4.615c-0.761-1.52-1.326-2.983-1.696-4.394c-0.371-1.408-0.557-2.771-0.557-4.087
			c0-1.315,0.13-2.566,0.39-3.754c0.481-1.779,1.251-3.16,2.308-4.143c1.057-0.981,2.642-1.474,4.755-1.474
			c0.703,0,1.343,0.177,1.918,0.528c0.574,0.353,1.075,0.659,1.502,0.918c0.426,0.26,0.75,0.371,0.973,0.333
			c0.223-0.036,0.37-0.444,0.445-1.223h1.557v9.731h-1.557c0.073-1.705-0.056-3.17-0.39-4.394c-0.26-1.112-0.723-2.131-1.39-3.059
			c-0.668-0.926-1.669-1.39-3.003-1.39c-0.742,0-1.438,0.148-2.086,0.444c-0.648,0.297-1.177,0.687-1.585,1.168
			c-0.89,1.261-1.307,2.53-1.251,3.81c0.056,1.278,0.37,2.53,0.945,3.753c0.574,1.224,1.288,2.383,2.142,3.476
			C221.503,191.553,222.244,192.545,222.875,193.435z"/>
		<path fill="#231F20" d="M247.343,210.784v5.839h-15.516v-1.446c0.297,0.111,0.52,0.111,0.668,0
			c0.185-0.036,0.361-0.175,0.528-0.417c0.167-0.24,0.25-0.62,0.25-1.14v-33.754c0-0.557-0.083-0.954-0.25-1.196
			c-0.167-0.24-0.344-0.397-0.528-0.473c-0.148-0.073-0.371-0.073-0.668,0v-1.334h15.516v5.839h-1.446
			c-0.037-0.853-0.148-1.613-0.334-2.28c-0.186-0.556-0.491-1.084-0.917-1.585c-0.427-0.5-1.011-0.751-1.752-0.751h-5.783v18.018
			h3.893c0.481,0,0.853-0.13,1.112-0.39c0.259-0.259,0.445-0.556,0.556-0.89c0.148-0.407,0.223-0.87,0.223-1.39h1.279v6.84h-1.279
			c0-0.519-0.074-0.964-0.223-1.335c-0.11-0.37-0.297-0.695-0.556-0.973c-0.26-0.278-0.631-0.418-1.112-0.418h-3.893v17.739h5.783
			c0.741,0,1.325-0.222,1.752-0.667c0.426-0.445,0.731-0.964,0.917-1.557c0.186-0.668,0.297-1.427,0.334-2.28H247.343z"/>
		<path fill="#231F20" d="M264.469,176.919h4.894v1.39c-0.333-0.073-0.611-0.073-0.834,0c-0.186,0.075-0.361,0.232-0.528,0.473
			c-0.167,0.242-0.25,0.621-0.25,1.14v36.702h-4.671l-9.231-31.919v28.916c0,0.52,0.084,0.89,0.25,1.112
			c0.167,0.223,0.343,0.371,0.528,0.444c0.223,0.075,0.501,0.075,0.834,0v1.446h-4.894v-1.446c0.297,0.075,0.557,0.075,0.779,0
			c0.185-0.073,0.37-0.222,0.556-0.444s0.278-0.593,0.278-1.112v-33.699c0-0.519-0.093-0.897-0.278-1.14
			c-0.186-0.24-0.371-0.397-0.556-0.473c-0.223-0.073-0.482-0.073-0.779,0v-1.39h5.673l9.843,33.81v-30.808
			c0-0.519-0.094-0.897-0.278-1.14c-0.187-0.24-0.371-0.397-0.557-0.473c-0.222-0.073-0.481-0.073-0.778,0V176.919z"/>
	</g>
	<g>
		<path fill="#231F20" d="M67.471,241.451v-15.884h6.466c0.641,0,1.237,0.138,1.789,0.414c0.552,0.275,1.025,0.641,1.421,1.096
			s0.705,0.97,0.929,1.544s0.335,1.159,0.335,1.756c0,0.612-0.097,1.201-0.29,1.768c-0.194,0.567-0.47,1.07-0.828,1.51
			c-0.358,0.44-0.787,0.798-1.286,1.074c-0.5,0.276-1.048,0.437-1.645,0.48l4.026,6.242h-0.536l-4.027-6.242h-5.906v6.242H67.471z
			 M67.918,234.762h6.175c0.597,0,1.133-0.126,1.61-0.38s0.884-0.585,1.22-0.996c0.336-0.41,0.593-0.876,0.771-1.397
			c0.18-0.522,0.269-1.06,0.269-1.611c0-0.566-0.104-1.11-0.312-1.633c-0.21-0.522-0.496-0.984-0.861-1.388
			c-0.366-0.402-0.795-0.727-1.287-0.973s-1.015-0.369-1.565-0.369h-6.019V234.762z"/>
		<path fill="#231F20" d="M92.258,241.004v0.447H81.833v-15.884h10.224v0.447H82.28v7.092h8.568v0.447H82.28v7.45H92.258z"/>
		<path fill="#231F20" d="M100.76,225.567h0.402l6.913,15.884h-0.492l-2.483-5.683h-8.3l-2.483,5.683h-0.492L100.76,225.567z
			 M104.898,235.321l-3.938-9.105l-3.981,9.105H104.898z"/>
		<path fill="#231F20" d="M110.715,241.451v-15.884h0.447v15.437h9.978v0.447H110.715z"/>
		<path fill="#231F20" d="M139.328,241.004v0.447h-10.425v-15.884h10.224v0.447h-9.776v7.092h8.568v0.447h-8.568v7.45H139.328z"/>
		<path fill="#231F20" d="M151.544,227.67c-0.627-0.686-1.279-1.155-1.958-1.409s-1.487-0.381-2.428-0.381
			c-0.909,0-1.688,0.09-2.338,0.269c-0.648,0.18-1.182,0.437-1.599,0.772c-0.418,0.335-0.724,0.734-0.918,1.196
			c-0.193,0.463-0.291,0.984-0.291,1.566c0,0.567,0.098,1.04,0.291,1.421c0.194,0.38,0.492,0.701,0.896,0.962
			c0.402,0.261,0.92,0.484,1.555,0.671c0.634,0.187,1.391,0.369,2.271,0.548c0.88,0.18,1.678,0.373,2.394,0.582
			s1.323,0.47,1.823,0.783c0.5,0.312,0.884,0.701,1.152,1.163c0.269,0.463,0.402,1.044,0.402,1.745c0,1.298-0.495,2.289-1.487,2.976
			c-0.992,0.686-2.36,1.029-4.105,1.029c-1.282,0-2.42-0.198-3.411-0.594c-0.992-0.395-1.913-1.018-2.764-1.867l0.336-0.291
			c0.806,0.835,1.682,1.439,2.629,1.812c0.947,0.373,2.024,0.56,3.232,0.56c1.581,0,2.83-0.294,3.747-0.884
			c0.918-0.589,1.376-1.479,1.376-2.673c0-0.597-0.104-1.101-0.312-1.511c-0.209-0.41-0.53-0.764-0.962-1.062
			c-0.434-0.298-0.984-0.552-1.656-0.761c-0.671-0.209-1.462-0.402-2.371-0.581c-0.88-0.164-1.659-0.34-2.338-0.526
			s-1.253-0.425-1.723-0.716s-0.824-0.656-1.062-1.096c-0.239-0.44-0.358-0.988-0.358-1.645c0-0.687,0.131-1.294,0.392-1.823
			s0.634-0.977,1.119-1.343c0.484-0.365,1.065-0.641,1.744-0.827s1.443-0.28,2.294-0.28c1.014,0,1.897,0.146,2.65,0.437
			s1.443,0.779,2.069,1.465L151.544,227.67z"/>
		<path fill="#231F20" d="M166.533,226.015h-6.085v15.437h-0.447v-15.437h-6.086v-0.447h12.618V226.015z"/>
		<path fill="#231F20" d="M172.707,225.567h0.402l6.913,15.884h-0.492l-2.483-5.683h-8.3l-2.483,5.683h-0.492L172.707,225.567z
			 M176.846,235.321l-3.938-9.105l-3.981,9.105H176.846z"/>
		<path fill="#231F20" d="M191.902,226.015h-6.085v15.437h-0.447v-15.437h-6.086v-0.447h12.618V226.015z"/>
		<path fill="#231F20" d="M204.944,241.004v0.447H194.52v-15.884h10.224v0.447h-9.776v7.092h8.568v0.447h-8.568v7.45H204.944z"/>
	</g>
</g>
</svg>
